thinwide.ufo
<glyph name="dollar" format="1">
  <advance width="705"/>
  <unicode hex="0024"/>
  <outline>
    <contour>
      <point x="90" y="99"/>
      <point x="68" y="99"/>
      <point x="90" y="99" type="curve"/>
      <point x="90" y="219"/>
      <point x="90" y="99"/>
      <point x="90" y="219" type="curve"/>
      <point x="68" y="219"/>
      <point x="90" y="219"/>
      <point x="68" y="219" type="curve"/>
      <point x="68" y="99"/>
      <point x="68" y="219"/>
      <point x="68" y="99" type="curve"/>
    </contour>
    <contour>
      <point x="589.745" y="631.081888889"/>
      <point x="611.525" y="631.081888889"/>
      <point x="589.745" y="631.081888889" type="curve"/>
      <point x="589.745" y="511.081888889"/>
      <point x="589.745" y="631.081888889"/>
      <point x="589.745" y="511.081888889" type="curve"/>
      <point x="611.525" y="511.081888889"/>
      <point x="589.745" y="511.081888889"/>
      <point x="611.525" y="511.081888889" type="curve"/>
      <point x="611.525" y="631.081888889"/>
      <point x="611.525" y="511.081888889"/>
      <point x="611.525" y="631.081888889" type="curve"/>
    </contour>
    <contour>
      <point x="341.5" y="-43.1"/>
      <point x="317.3" y="-43.1"/>
      <point x="341.5" y="-43.1" type="curve"/>
      <point x="341.5" y="-9.1758948"/>
      <point x="341.5" y="24.7492281333"/>
      <point x="341.5" y="58.6733333333" type="curve"/>
      <point x="317.3" y="58.6733333333"/>
      <point x="341.5" y="58.6733333333"/>
      <point x="317.3" y="58.6733333333" type="curve"/>
      <point x="317.3" y="24.7492281333"/>
      <point x="317.3" y="-9.1758948"/>
      <point x="317.3" y="-43.1" type="curve"/>
    </contour>
    <contour>
      <point x="357.7" y="671.308888889"/>
      <point x="333.5" y="671.308888889"/>
      <point x="357.7" y="671.308888889" type="curve"/>
      <point x="357.7" y="705.232994089"/>
      <point x="357.7" y="739.158117022"/>
      <point x="357.7" y="773.082222222" type="curve"/>
      <point x="333.5" y="773.082222222"/>
      <point x="357.7" y="773.082222222"/>
      <point x="333.5" y="773.082222222" type="curve"/>
      <point x="333.5" y="739.158117022"/>
      <point x="333.5" y="705.232994089"/>
      <point x="333.5" y="671.308888889" type="curve"/>
    </contour>
    <contour>
      <point x="68" y="99"/>
      <point x="81" y="118"/>
      <point x="68" y="99" type="curve"/>
      <point x="142" y="71"/>
      <point x="230" y="48"/>
      <point x="328" y="48" type="curve"/>
      <point x="489" y="48"/>
      <point x="632" y="73"/>
      <point x="632" y="198" type="curve"/>
      <point x="632" y="320"/>
      <point x="491" y="342"/>
      <point x="356" y="385" type="curve"/>
      <point x="236" y="423"/>
      <point x="127" y="443"/>
      <point x="127" y="543" type="curve"/>
      <point x="127" y="635"/>
      <point x="231" y="662"/>
      <point x="352" y="662" type="curve"/>
      <point x="447" y="662"/>
      <point x="514" y="647"/>
      <point x="599" y="613" type="curve"/>
      <point x="612" y="631"/>
      <point x="599" y="613"/>
      <point x="612" y="631" type="curve"/>
      <point x="523" y="666"/>
      <point x="452" y="683"/>
      <point x="354" y="683" type="curve"/>
      <point x="216" y="683"/>
      <point x="103" y="651"/>
      <point x="103" y="543" type="curve"/>
      <point x="103" y="429"/>
      <point x="216" y="405"/>
      <point x="342" y="365" type="curve"/>
      <point x="470" y="326"/>
      <point x="608" y="304"/>
      <point x="608" y="197" type="curve"/>
      <point x="608" y="93"/>
      <point x="478" y="69"/>
      <point x="331" y="69" type="curve"/>
      <point x="236" y="69"/>
      <point x="152" y="93"/>
      <point x="81" y="118" type="curve"/>
    </contour>
  </outline>
</glyph>
<glyph name="quotesingle" format="1">
  <advance width="187"/>
  <unicode hex="0027"/>
  <outline>
    <contour>
      <point x="105" y="658"/>
      <point x="81" y="658"/>
      <point x="105" y="658" type="curve"/>
      <point x="105" y="721"/>
      <point x="105" y="783"/>
      <point x="105" y="846" type="curve"/>
      <point x="81" y="846"/>
      <point x="105" y="846"/>
      <point x="81" y="846" type="curve"/>
      <point x="81" y="783"/>
      <point x="81" y="721"/>
      <point x="81" y="658" type="curve"/>
    </contour>
  </outline>
</glyph>
<glyph name="parenleft" format="1">
  <advance width="475"/>
  <unicode hex="0028"/>
  <outline>
    <contour>
      <point x="425" y="-235"/>
      <point x="411" y="-251"/>
      <point x="425" y="-235" type="curve"/>
      <point x="220" y="-86"/>
      <point x="106" y="73"/>
      <point x="106" y="326" type="curve"/>
      <point x="106" y="578"/>
      <point x="221" y="735"/>
      <point x="423" y="888" type="curve"/>
      <point x="409" y="903"/>
      <point x="423" y="888"/>
      <point x="409" y="903" type="curve"/>
      <point x="198" y="749"/>
      <point x="81" y="586"/>
      <point x="81" y="326" type="curve"/>
      <point x="81" y="66"/>
      <point x="199" y="-96"/>
      <point x="411" y="-251" type="curve"/>
    </contour>
  </outline>
</glyph>
<glyph name="plus" format="1">
  <advance width="875"/>
  <unicode hex="002B"/>
  <outline>
    <contour>
      <point x="156" y="297"/>
      <point x="156" y="321"/>
      <point x="156" y="297" type="curve"/>
      <point x="156" y="297"/>
      <point x="781" y="297"/>
      <point x="781" y="297" type="curve"/>
      <point x="781" y="321"/>
      <point x="781" y="297"/>
      <point x="781" y="321" type="curve"/>
      <point x="781" y="321"/>
      <point x="156" y="321"/>
      <point x="156" y="321" type="curve"/>
    </contour>
    <contour>
      <point x="475.15" y="18"/>
      <point x="450.95" y="18"/>
      <point x="475.15" y="18" type="curve"/>
      <point x="475.15" y="18"/>
      <point x="475.15" y="588"/>
      <point x="475.15" y="588" type="curve"/>
      <point x="450.95" y="588"/>
      <point x="475.15" y="588"/>
      <point x="450.95" y="588" type="curve"/>
      <point x="450.95" y="588"/>
      <point x="450.95" y="18"/>
      <point x="450.95" y="18" type="curve"/>
    </contour>
  </outline>
</glyph>
<glyph name="comma" format="1">
  <advance width="212"/>
  <unicode hex="002C"/>
  <outline>
    <contour>
      <point x="51" y="-99"/>
      <point x="27" y="-99"/>
      <point x="51" y="-99" type="curve"/>
      <point x="101" y="-39"/>
      <point x="150" y="22"/>
      <point x="199" y="82" type="curve"/>
      <point x="168" y="82"/>
      <point x="199" y="82"/>
      <point x="168" y="82" type="curve"/>
      <point x="121" y="22"/>
      <point x="74" y="-39"/>
      <point x="27" y="-99" type="curve"/>
    </contour>
  </outline>
</glyph>
<glyph name="hyphen" format="1">
  <advance width="472"/>
  <unicode hex="002D"/>
  <outline>
    <contour>
      <point x="122.85" y="260.339777778"/>
      <point x="122.85" y="284.055777778"/>
      <point x="122.85" y="260.339777778" type="curve"/>
      <point x="253.7986905" y="260.339777778"/>
      <point x="384.7513095" y="260.339777778"/>
      <point x="515.7" y="260.339777778" type="curve"/>
      <point x="515.7" y="284.055777778"/>
      <point x="515.7" y="260.339777778"/>
      <point x="515.7" y="284.055777778" type="curve"/>
      <point x="384.7513095" y="284.055777778"/>
      <point x="253.7986905" y="284.055777778"/>
      <point x="122.85" y="284.055777778" type="curve"/>
    </contour>
  </outline>
</glyph>
<glyph name="slash" format="1">
  <advance width="683"/>
  <unicode hex="002F"/>
  <outline>
    <contour>
      <point x="86.35" y="-67.0466666667"/>
      <point x="62.15" y="-67.0466666667"/>
      <point x="86.35" y="-67.0466666667" type="curve"/>
      <point x="278.048083" y="236.274744533"/>
      <point x="469.751917" y="539.605255467"/>
      <point x="661.45" y="842.926666667" type="curve"/>
      <point x="637.25" y="842.926666667"/>
      <point x="661.45" y="842.926666667"/>
      <point x="637.25" y="842.926666667" type="curve"/>
      <point x="445.551917" y="539.605255467"/>
      <point x="253.848083" y="236.274744533"/>
      <point x="62.15" y="-67.0466666667" type="curve"/>
    </contour>
  </outline>
</glyph>
<glyph name="six" format="1">
  <advance width="646"/>
  <unicode hex="0036"/>
  <outline>
    <contour>
      <point x="56" y="230"/>
      <point x="39" y="241"/>
      <point x="56" y="230" type="curve"/>
      <point x="119" y="343"/>
      <point x="219" y="385"/>
      <point x="339" y="385" type="curve"/>
      <point x="482" y="385"/>
      <point x="587" y="332"/>
      <point x="587" y="202" type="curve"/>
      <point x="587" y="76"/>
      <point x="483" y="21"/>
      <point x="345" y="21" type="curve"/>
      <point x="180" y="21"/>
      <point x="60" y="91"/>
      <point x="60" y="242" type="curve"/>
      <point x="60" y="543"/>
      <point x="317" y="645"/>
      <point x="628" y="717" type="curve"/>
      <point x="624" y="734"/>
      <point x="628" y="717"/>
      <point x="624" y="734" type="curve"/>
      <point x="294" y="665"/>
      <point x="35" y="554"/>
      <point x="35" y="241" type="curve"/>
      <point x="35" y="75"/>
      <point x="166" y="-5"/>
      <point x="344" y="-5" type="curve"/>
      <point x="500" y="-5"/>
      <point x="613" y="61"/>
      <point x="613" y="203" type="curve"/>
      <point x="613" y="347"/>
      <point x="497" y="409"/>
      <point x="341" y="409" type="curve"/>
      <point x="202" y="409"/>
      <point x="97" y="357"/>
      <point x="39" y="241" type="curve"/>
    </contour>
  </outline>
</glyph>
<glyph name="seven" format="1">
  <advance width="729"/>
  <unicode hex="0037"/>
  <outline>
    <contour>
      <point x="81" y="580"/>
      <point x="59" y="580"/>
      <point x="81" y="580" type="curve"/>
      <point x="81" y="700"/>
      <point x="81" y="580"/>
      <point x="81" y="700" type="curve"/>
      <point x="59" y="700"/>
      <point x="81" y="700"/>
      <point x="59" y="700" type="curve"/>
      <point x="59" y="580"/>
      <point x="59" y="700"/>
      <point x="59" y="580" type="curve"/>
    </contour>
    <contour>
      <point x="59" y="700"/>
      <point x="59" y="722"/>
      <point x="59" y="700" type="curve"/>
      <point x="272" y="700"/>
      <point x="485" y="700"/>
      <point x="697" y="700" type="curve"/>
      <point x="697" y="722"/>
      <point x="697" y="700"/>
      <point x="697" y="722" type="curve"/>
      <point x="476" y="722"/>
      <point x="267" y="722"/>
      <point x="59" y="722" type="curve"/>
    </contour>
    <contour>
      <point x="684" y="722"/>
      <point x="697" y="700"/>
      <point x="684" y="722" type="curve"/>
      <point x="114" y="0"/>
      <point x="682" y="721"/>
      <point x="113" y="0" type="curve"/>
      <point x="140" y="0"/>
      <point x="129" y="0"/>
      <point x="144" y="0" type="curve"/>
      <point x="696" y="699"/>
      <point x="144" y="0"/>
      <point x="697" y="700" type="curve"/>
    </contour>
  </outline>
</glyph>
<glyph name="eight" format="1">
  <advance width="604"/>
  <unicode hex="0038"/>
  <outline>
    <contour>
      <point x="61" y="562"/>
      <point x="85" y="562"/>
      <point x="61" y="562" type="curve"/>
      <point x="61" y="434"/>
      <point x="174" y="415"/>
      <point x="300" y="369" type="curve"/>
      <point x="433" y="320"/>
      <point x="554" y="297"/>
      <point x="554" y="170" type="curve"/>
      <point x="554" y="47"/>
      <point x="445" y="19"/>
      <point x="304" y="19" type="curve"/>
      <point x="164" y="19"/>
      <point x="59" y="49"/>
      <point x="59" y="170" type="curve"/>
      <point x="59" y="301"/>
      <point x="182" y="319"/>
      <point x="317" y="369" type="curve"/>
      <point x="439" y="417"/>
      <point x="552" y="434"/>
      <point x="552" y="560" type="curve"/>
      <point x="552" y="688"/>
      <point x="449" y="727"/>
      <point x="304" y="727" type="curve"/>
      <point x="165" y="727"/>
      <point x="61" y="685"/>
      <point x="61" y="562" type="curve"/>
      <point x="85" y="562"/>
      <point x="61" y="562"/>
      <point x="85" y="562" type="curve"/>
      <point x="85" y="670"/>
      <point x="180" y="703"/>
      <point x="303" y="703" type="curve"/>
      <point x="433" y="703"/>
      <point x="528" y="674"/>
      <point x="528" y="560" type="curve"/>
      <point x="528" y="446"/>
      <point x="418" y="429"/>
      <point x="300" y="387" type="curve"/>
      <point x="160" y="334"/>
      <point x="35" y="313"/>
      <point x="35" y="170" type="curve"/>
      <point x="35" y="36"/>
      <point x="149" y="-5"/>
      <point x="303" y="-5" type="curve"/>
      <point x="459" y="-5"/>
      <point x="578" y="32"/>
      <point x="578" y="170" type="curve"/>
      <point x="578" y="310"/>
      <point x="454" y="335"/>
      <point x="317" y="387" type="curve"/>
      <point x="197" y="432"/>
      <point x="85" y="445"/>
      <point x="85" y="562" type="curve"/>
    </contour>
  </outline>
</glyph>
<glyph name="nine" format="1">
  <advance width="761"/>
  <unicode hex="0039"/>
  <outline>
    <contour>
      <point x="688" y="492"/>
      <point x="701" y="485"/>
      <point x="687.675" y="492.11" type="curve"/>
      <point x="624.443310264" y="379.418360606"/>
      <point x="535.263138353" y="335.900111111"/>
      <point x="404.75" y="335.900111111" type="curve"/>
      <point x="261.643584045" y="335.900111111"/>
      <point x="155.2" y="390.131979551"/>
      <point x="155.2" y="519.686777778" type="curve"/>
      <point x="155.2" y="646.040694508"/>
      <point x="260" y="702"/>
      <point x="398" y="702" type="curve"/>
      <point x="563" y="702"/>
      <point x="683.025" y="630.757370947"/>
      <point x="683.025" y="479.695444444" type="curve"/>
      <point x="683.025" y="179.018946666"/>
      <point x="432" y="49"/>
      <point x="115.25" y="7.51088888889" type="curve"/>
      <point x="119.65" y="-11.8931111111"/>
      <point x="115.25" y="7.51088888889"/>
      <point x="119.65" y="-11.8931111111" type="curve"/>
      <point x="451" y="24"/>
      <point x="706.125" y="167.769767567"/>
      <point x="706.125" y="480.773444444" type="curve"/>
      <point x="706.125" y="647.360075288"/>
      <point x="577.841086446" y="727.120333333"/>
      <point x="399.475" y="727.120333333" type="curve"/>
      <point x="243.998117157" y="727.120333333"/>
      <point x="131.0" y="661.453533771"/>
      <point x="131.0" y="518.608777778" type="curve"/>
      <point x="131.0" y="375.149370677"/>
      <point x="246.487131066" y="313.262111111"/>
      <point x="402.55" y="313.262111111" type="curve"/>
      <point x="541.581295804" y="313.262111111"/>
      <point x="650" y="364"/>
      <point x="701" y="485" type="curve"/>
    </contour>
  </outline>
</glyph>
<glyph name="less" format="1">
  <advance width="959"/>
  <unicode hex="003C"/>
  <outline>
    <contour>
      <point x="873.45" y="581.858"/>
      <point x="873.45" y="558.142"/>
      <point x="873.45" y="581.858" type="curve"/>
      <point x="599.4027405" y="491.8589"/>
      <point x="325.3472595" y="401.8571"/>
      <point x="51.3" y="311.858" type="curve"/>
      <point x="51.3" y="288.142"/>
      <point x="51.3" y="311.858"/>
      <point x="51.3" y="288.142" type="curve"/>
      <point x="325.3472595" y="378.1411"/>
      <point x="599.4027405" y="468.1429"/>
      <point x="873.45" y="558.142" type="curve"/>
    </contour>
    <contour>
      <point x="886.95" y="47.858"/>
      <point x="886.95" y="24.142"/>
      <point x="886.95" y="47.858" type="curve"/>
      <point x="608.4027855" y="135.85712"/>
      <point x="329.8472145" y="223.85888"/>
      <point x="51.3" y="311.858" type="curve"/>
      <point x="51.3" y="288.142"/>
      <point x="51.3" y="311.858"/>
      <point x="51.3" y="288.142" type="curve"/>
      <point x="329.8472145" y="200.14288"/>
      <point x="608.4027855" y="112.14112"/>
      <point x="886.95" y="24.142" type="curve"/>
    </contour>
  </outline>
</glyph>
<glyph name="question" format="1">
  <advance width="479"/>
  <unicode hex="003F"/>
  <outline>
    <contour>
      <point x="164" y="334"/>
      <point x="189" y="334"/>
      <point x="164" y="334" type="curve"/>
      <point x="164" y="297"/>
      <point x="164" y="259"/>
      <point x="164" y="222" type="curve"/>
      <point x="189" y="222"/>
      <point x="164" y="222"/>
      <point x="189" y="222" type="curve"/>
      <point x="189" y="259"/>
      <point x="189" y="297"/>
      <point x="189" y="334" type="curve"/>
    </contour>
    <contour>
      <point x="83" y="672"/>
      <point x="75" y="694"/>
      <point x="83" y="672" type="curve"/>
      <point x="121" y="683"/>
      <point x="149" y="688"/>
      <point x="188" y="688" type="curve"/>
      <point x="320" y="688"/>
      <point x="427" y="637"/>
      <point x="427" y="519" type="curve"/>
      <point x="427" y="390"/>
      <point x="308" y="334"/>
      <point x="164" y="334" type="curve"/>
      <point x="164" y="311"/>
      <point x="164" y="334"/>
      <point x="164" y="311" type="curve"/>
      <point x="321" y="311"/>
      <point x="450" y="376"/>
      <point x="450" y="519" type="curve"/>
      <point x="450" y="649"/>
      <point x="332" y="710"/>
      <point x="190" y="710" type="curve"/>
      <point x="148" y="710"/>
      <point x="116" y="704"/>
      <point x="75" y="694" type="curve"/>
    </contour>
    <contour>
      <point x="191" y="11"/>
      <point x="163" y="11"/>
      <point x="191" y="11" type="curve"/>
      <point x="191" y="20"/>
      <point x="186" y="25"/>
      <point x="177" y="25" type="curve"/>
      <point x="168" y="25"/>
      <point x="163" y="19"/>
      <point x="163" y="11" type="curve"/>
      <point x="191" y="11"/>
      <point x="163" y="11"/>
      <point x="191" y="11" type="curve"/>
      <point x="191" y="2"/>
      <point x="186" y="-2"/>
      <point x="177" y="-2" type="curve"/>
      <point x="168" y="-2"/>
      <point x="163" y="3"/>
      <point x="163" y="11" type="curve"/>
    </contour>
  </outline>
</glyph>
<glyph name="B" format="1">
  <advance width="787"/>
  <unicode hex="0042"/>
  <outline>
    <contour>
      <point x="216" y="722"/>
      <point x="216" y="700"/>
      <point x="216" y="722" type="curve"/>
      <point x="149" y="722"/>
      <point x="83" y="722"/>
      <point x="16" y="722" type="curve"/>
      <point x="16" y="700"/>
      <point x="16" y="722"/>
      <point x="16" y="700" type="curve"/>
      <point x="216" y="700"/>
      <point x="16" y="700"/>
      <point x="216" y="700" type="curve"/>
    </contour>
    <contour>
      <point x="214" y="22"/>
      <point x="214" y="0"/>
      <point x="214" y="22" type="curve"/>
      <point x="15" y="22"/>
      <point x="214" y="22"/>
      <point x="15" y="22" type="curve"/>
      <point x="15" y="0"/>
      <point x="15" y="22"/>
      <point x="15" y="0" type="curve"/>
      <point x="81" y="0"/>
      <point x="148" y="0"/>
      <point x="214" y="0" type="curve"/>
    </contour>
    <contour>
      <point x="201" y="700"/>
      <point x="201" y="722"/>
      <point x="201" y="700" type="curve"/>
      <point x="298" y="700"/>
      <point x="395" y="700"/>
      <point x="492" y="700" type="curve"/>
      <point x="597" y="700"/>
      <point x="679" y="656"/>
      <point x="679" y="555" type="curve"/>
      <point x="679" y="447"/>
      <point x="555" y="421"/>
      <point x="434" y="421" type="curve"/>
      <point x="356" y="421"/>
      <point x="278" y="421"/>
      <point x="201" y="421" type="curve"/>
      <point x="201" y="399"/>
      <point x="201" y="421"/>
      <point x="201" y="399" type="curve"/>
      <point x="274" y="399"/>
      <point x="348" y="399"/>
      <point x="422" y="399" type="curve"/>
      <point x="563" y="399"/>
      <point x="703" y="430"/>
      <point x="703" y="555" type="curve"/>
      <point x="703" y="669"/>
      <point x="615" y="722"/>
      <point x="492" y="722" type="curve"/>
      <point x="395" y="722"/>
      <point x="298" y="722"/>
      <point x="201" y="722" type="curve"/>
    </contour>
    <contour>
      <point x="223" y="0"/>
      <point x="198" y="0"/>
      <point x="223" y="0" type="curve"/>
      <point x="223" y="241"/>
      <point x="223" y="481"/>
      <point x="223" y="722" type="curve"/>
      <point x="198" y="722"/>
      <point x="223" y="722"/>
      <point x="198" y="722" type="curve"/>
      <point x="198" y="481"/>
      <point x="198" y="241"/>
      <point x="198" y="0" type="curve"/>
    </contour>
    <contour>
      <point x="201" y="399"/>
      <point x="201" y="421"/>
      <point x="201" y="399" type="curve"/>
      <point x="278" y="399"/>
      <point x="356" y="399"/>
      <point x="434" y="399" type="curve"/>
      <point x="599" y="399"/>
      <point x="742" y="355"/>
      <point x="742" y="204" type="curve"/>
      <point x="742" y="73"/>
      <point x="636" y="22"/>
      <point x="490" y="22" type="curve"/>
      <point x="393" y="22"/>
      <point x="297" y="22"/>
      <point x="201" y="22" type="curve"/>
      <point x="201" y="0"/>
      <point x="201" y="22"/>
      <point x="201" y="0" type="curve"/>
      <point x="297" y="0"/>
      <point x="393" y="0"/>
      <point x="490" y="0" type="curve"/>
      <point x="651" y="0"/>
      <point x="766" y="59"/>
      <point x="766" y="204" type="curve"/>
      <point x="766" y="372"/>
      <point x="607" y="421"/>
      <point x="422" y="421" type="curve"/>
      <point x="348" y="421"/>
      <point x="274" y="421"/>
      <point x="201" y="421" type="curve"/>
    </contour>
  </outline>
</glyph>
<glyph name="C" format="1">
  <advance width="874"/>
  <unicode hex="0043"/>
  <outline>
    <contour>
      <point x="792" y="655"/>
      <point x="814" y="655"/>
      <point x="792" y="655" type="curve"/>
      <point x="792" y="535"/>
      <point x="792" y="655"/>
      <point x="792" y="535" type="curve"/>
      <point x="814" y="535"/>
      <point x="792" y="535"/>
      <point x="814" y="535" type="curve"/>
      <point x="814" y="655"/>
      <point x="814" y="535"/>
      <point x="814" y="655" type="curve"/>
    </contour>
    <contour>
      <point x="814" y="655"/>
      <point x="801" y="638"/>
      <point x="814" y="655" type="curve"/>
      <point x="721" y="697"/>
      <point x="622" y="727"/>
      <point x="512" y="727" type="curve"/>
      <point x="254" y="727"/>
      <point x="81" y="594"/>
      <point x="81" y="344" type="curve"/>
      <point x="81" y="113"/>
      <point x="243" y="-5"/>
      <point x="484" y="-5" type="curve"/>
      <point x="626" y="-5"/>
      <point x="720" y="25"/>
      <point x="839" y="96" type="curve"/>
      <point x="824" y="113"/>
      <point x="839" y="96"/>
      <point x="824" y="113" type="curve"/>
      <point x="713" y="43"/>
      <point x="619" y="19"/>
      <point x="485" y="19" type="curve"/>
      <point x="259" y="19"/>
      <point x="105" y="130"/>
      <point x="105" y="345" type="curve"/>
      <point x="105" y="578"/>
      <point x="269" y="704"/>
      <point x="511" y="704" type="curve"/>
      <point x="616" y="704"/>
      <point x="713" y="680"/>
      <point x="801" y="638" type="curve"/>
    </contour>
  </outline>
</glyph>
<glyph name="D" format="1">
  <advance width="946"/>
  <unicode hex="0044"/>
  <outline>
    <contour>
      <point x="221" y="22"/>
      <point x="221" y="0"/>
      <point x="221" y="22" type="curve"/>
      <point x="22" y="22"/>
      <point x="221" y="22"/>
      <point x="22" y="22" type="curve"/>
      <point x="22" y="0"/>
      <point x="22" y="22"/>
      <point x="22" y="0" type="curve"/>
      <point x="88" y="0"/>
      <point x="155" y="0"/>
      <point x="221" y="0" type="curve"/>
    </contour>
    <contour>
      <point x="221" y="722"/>
      <point x="221" y="700"/>
      <point x="221" y="722" type="curve"/>
      <point x="155" y="722"/>
      <point x="88" y="722"/>
      <point x="22" y="722" type="curve"/>
      <point x="22" y="700"/>
      <point x="22" y="722"/>
      <point x="22" y="700" type="curve"/>
      <point x="221" y="700"/>
      <point x="22" y="700"/>
      <point x="221" y="700" type="curve"/>
    </contour>
    <contour>
      <point x="206" y="722"/>
      <point x="231" y="722"/>
      <point x="206" y="722" type="curve"/>
      <point x="206" y="481"/>
      <point x="206" y="241"/>
      <point x="206" y="0" type="curve"/>
      <point x="231" y="0"/>
      <point x="206" y="0"/>
      <point x="231" y="0" type="curve"/>
      <point x="231" y="241"/>
      <point x="231" y="481"/>
      <point x="231" y="722" type="curve"/>
    </contour>
    <contour>
      <point x="221" y="0"/>
      <point x="221" y="22"/>
      <point x="221" y="0" type="curve"/>
      <point x="311" y="0"/>
      <point x="401" y="0"/>
      <point x="491" y="0" type="curve"/>
      <point x="751" y="0"/>
      <point x="912" y="106"/>
      <point x="912" y="350" type="curve"/>
      <point x="912" y="608"/>
      <point x="746" y="722"/>
      <point x="474" y="722" type="curve"/>
      <point x="389" y="722"/>
      <point x="305" y="722"/>
      <point x="221" y="722" type="curve"/>
      <point x="221" y="700"/>
      <point x="221" y="722"/>
      <point x="221" y="700" type="curve"/>
      <point x="305" y="700"/>
      <point x="389" y="700"/>
      <point x="472" y="700" type="curve"/>
      <point x="730" y="700"/>
      <point x="889" y="593"/>
      <point x="889" y="350" type="curve"/>
      <point x="889" y="121"/>
      <point x="738" y="22"/>
      <point x="494" y="22" type="curve"/>
      <point x="403" y="22"/>
      <point x="312" y="22"/>
      <point x="221" y="22" type="curve"/>
    </contour>
  </outline>
</glyph>
<glyph name="G" format="1">
  <advance width="956"/>
  <unicode hex="0047"/>
  <outline>
    <contour>
      <point x="851" y="642"/>
      <point x="872" y="642"/>
      <point x="851" y="642" type="curve"/>
      <point x="851" y="522"/>
      <point x="851" y="642"/>
      <point x="851" y="522" type="curve"/>
      <point x="872" y="522"/>
      <point x="851" y="522"/>
      <point x="872" y="522" type="curve"/>
      <point x="872" y="642"/>
      <point x="872" y="522"/>
      <point x="872" y="642" type="curve"/>
    </contour>
    <contour>
      <point x="886" y="319"/>
      <point x="886" y="297"/>
      <point x="886" y="319" type="curve"/>
      <point x="787" y="319"/>
      <point x="688" y="319"/>
      <point x="589" y="319" type="curve"/>
      <point x="589" y="297"/>
      <point x="589" y="319"/>
      <point x="589" y="297" type="curve"/>
      <point x="688" y="297"/>
      <point x="787" y="297"/>
      <point x="886" y="297" type="curve"/>
    </contour>
    <contour>
      <point x="895" y="77"/>
      <point x="873" y="77"/>
      <point x="895" y="77" type="curve"/>
      <point x="895" y="158"/>
      <point x="895" y="238"/>
      <point x="895" y="319" type="curve"/>
      <point x="873" y="319"/>
      <point x="895" y="319"/>
      <point x="873" y="319" type="curve"/>
      <point x="873" y="238"/>
      <point x="873" y="158"/>
      <point x="873" y="77" type="curve"/>
    </contour>
    <contour>
      <point x="872" y="642"/>
      <point x="860" y="624"/>
      <point x="872" y="642" type="curve"/>
      <point x="748" y="703"/>
      <point x="639" y="727"/>
      <point x="501" y="727" type="curve"/>
      <point x="241" y="727"/>
      <point x="61" y="611"/>
      <point x="61" y="365" type="curve"/>
      <point x="61" y="112"/>
      <point x="248" y="-5"/>
      <point x="516" y="-5" type="curve"/>
      <point x="664" y="-5"/>
      <point x="760" y="19"/>
      <point x="895" y="77" type="curve"/>
      <point x="883" y="93"/>
      <point x="895" y="77"/>
      <point x="883" y="93" type="curve"/>
      <point x="754" y="38"/>
      <point x="657" y="20"/>
      <point x="517" y="20" type="curve"/>
      <point x="263" y="20"/>
      <point x="85" y="129"/>
      <point x="85" y="367" type="curve"/>
      <point x="85" y="595"/>
      <point x="258" y="704"/>
      <point x="502" y="704" type="curve"/>
      <point x="635" y="704"/>
      <point x="740" y="681"/>
      <point x="860" y="624" type="curve"/>
    </contour>
  </outline>
</glyph>
<glyph name="M" format="1">
  <advance width="1370"/>
  <unicode hex="004D"/>
  <outline>
    <contour>
      <point x="1152" y="0"/>
      <point x="1152" y="22"/>
      <point x="1152" y="0" type="curve"/>
      <point x="1219" y="0"/>
      <point x="1285" y="0"/>
      <point x="1351" y="0" type="curve"/>
      <point x="1351" y="22"/>
      <point x="1351" y="0"/>
      <point x="1351" y="22" type="curve"/>
      <point x="1152" y="22"/>
      <point x="1351" y="22"/>
      <point x="1152" y="22" type="curve"/>
    </contour>
    <contour>
      <point x="1152" y="22"/>
      <point x="1152" y="0"/>
      <point x="1152" y="22" type="curve"/>
      <point x="953" y="22"/>
      <point x="1152" y="22"/>
      <point x="953" y="22" type="curve"/>
      <point x="953" y="0"/>
      <point x="953" y="22"/>
      <point x="953" y="0" type="curve"/>
      <point x="1020" y="0"/>
      <point x="1086" y="0"/>
      <point x="1152" y="0" type="curve"/>
    </contour>
    <contour>
      <point x="222" y="22"/>
      <point x="222" y="0"/>
      <point x="222" y="22" type="curve"/>
      <point x="23" y="22"/>
      <point x="222" y="22"/>
      <point x="23" y="22" type="curve"/>
      <point x="23" y="0"/>
      <point x="23" y="22"/>
      <point x="23" y="0" type="curve"/>
      <point x="89" y="0"/>
      <point x="156" y="0"/>
      <point x="222" y="0" type="curve"/>
    </contour>
    <contour>
      <point x="302" y="722"/>
      <point x="302" y="700"/>
      <point x="302" y="722" type="curve"/>
      <point x="235" y="722"/>
      <point x="169" y="722"/>
      <point x="103" y="722" type="curve"/>
      <point x="103" y="700"/>
      <point x="103" y="722"/>
      <point x="103" y="700" type="curve"/>
      <point x="302" y="700"/>
      <point x="103" y="700"/>
      <point x="302" y="700" type="curve"/>
    </contour>
    <contour>
      <point x="1070" y="700"/>
      <point x="1070" y="722"/>
      <point x="1070" y="700" type="curve"/>
      <point x="1269" y="700"/>
      <point x="1070" y="700"/>
      <point x="1269" y="700" type="curve"/>
      <point x="1269" y="722"/>
      <point x="1269" y="700"/>
      <point x="1269" y="722" type="curve"/>
      <point x="1203" y="722"/>
      <point x="1136" y="722"/>
      <point x="1070" y="722" type="curve"/>
    </contour>
    <contour>
      <point x="222" y="0"/>
      <point x="222" y="22"/>
      <point x="222" y="0" type="curve"/>
      <point x="288" y="0"/>
      <point x="222" y="0"/>
      <point x="421" y="0" type="curve"/>
      <point x="421" y="22"/>
      <point x="421" y="0"/>
      <point x="421" y="22" type="curve"/>
      <point x="222" y="22"/>
      <point x="421" y="22"/>
      <point x="222" y="22" type="curve"/>
    </contour>
    <contour>
      <point x="1163" y="0"/>
      <point x="1139" y="0"/>
      <point x="1163" y="0" type="curve"/>
      <point x="1135" y="241"/>
      <point x="1107" y="481"/>
      <point x="1080" y="722" type="curve"/>
      <point x="1058" y="722"/>
      <point x="1080" y="722"/>
      <point x="1058" y="722" type="curve"/>
      <point x="1085" y="481"/>
      <point x="1112" y="241"/>
      <point x="1139" y="0" type="curve"/>
    </contour>
    <contour>
      <point x="233" y="0"/>
      <point x="209" y="0"/>
      <point x="233" y="0" type="curve"/>
      <point x="259" y="241"/>
      <point x="284" y="481"/>
      <point x="310" y="722" type="curve"/>
      <point x="288" y="722"/>
      <point x="310" y="722"/>
      <point x="288" y="722" type="curve"/>
      <point x="262" y="481"/>
      <point x="235" y="241"/>
      <point x="209" y="0" type="curve"/>
    </contour>
    <contour>
      <point x="693" y="0"/>
      <point x="671" y="0"/>
      <point x="695" y="0" type="curve"/>
      <point x="570" y="241"/>
      <point x="444" y="481"/>
      <point x="315" y="722" type="curve"/>
      <point x="293" y="722"/>
      <point x="313" y="722"/>
      <point x="291" y="722" type="curve"/>
      <point x="417" y="481"/>
      <point x="543" y="241"/>
      <point x="669" y="0" type="curve"/>
    </contour>
    <contour>
      <point x="703" y="0"/>
      <point x="680" y="0"/>
      <point x="705" y="0" type="curve"/>
      <point x="829" y="241"/>
      <point x="953" y="481"/>
      <point x="1077" y="722" type="curve"/>
      <point x="1055" y="722"/>
      <point x="1075" y="722"/>
      <point x="1053" y="722" type="curve"/>
      <point x="926" y="481"/>
      <point x="803" y="241"/>
      <point x="678" y="0" type="curve"/>
    </contour>
  </outline>
</glyph>
<glyph name="Q" format="1">
  <advance width="991"/>
  <unicode hex="0051"/>
  <outline>
    <contour>
      <point x="494" y="4"/>
      <point x="515" y="15"/>
      <point x="494" y="4" type="curve"/>
      <point x="641" y="-196"/>
      <point x="803" y="-240"/>
      <point x="1040" y="-240" type="curve"/>
      <point x="1040" y="-217"/>
      <point x="1040" y="-240"/>
      <point x="1040" y="-217" type="curve"/>
      <point x="814" y="-217"/>
      <point x="658" y="-177"/>
      <point x="515" y="15" type="curve"/>
    </contour>
    <contour>
      <point x="114" y="360"/>
      <point x="89" y="360"/>
      <point x="114" y="360" type="curve"/>
      <point x="114" y="576"/>
      <point x="269" y="703"/>
      <point x="493" y="703" type="curve"/>
      <point x="717" y="703"/>
      <point x="872" y="578"/>
      <point x="872" y="363" type="curve"/>
      <point x="872" y="147"/>
      <point x="719" y="19"/>
      <point x="496" y="19" type="curve"/>
      <point x="270" y="19"/>
      <point x="114" y="144"/>
      <point x="114" y="360" type="curve"/>
      <point x="89" y="360"/>
      <point x="114" y="360"/>
      <point x="89" y="360" type="curve"/>
      <point x="89" y="129"/>
      <point x="256" y="-5"/>
      <point x="495" y="-5" type="curve"/>
      <point x="733" y="-5"/>
      <point x="897" y="132"/>
      <point x="897" y="364" type="curve"/>
      <point x="897" y="594"/>
      <point x="732" y="727"/>
      <point x="494" y="727" type="curve"/>
      <point x="255" y="727"/>
      <point x="89" y="591"/>
      <point x="89" y="360" type="curve"/>
    </contour>
  </outline>
</glyph>
<glyph name="S" format="1">
  <advance width="681"/>
  <unicode hex="0053"/>
  <outline>
    <contour>
      <point x="589" y="663"/>
      <point x="611" y="663"/>
      <point x="589" y="663" type="curve"/>
      <point x="589" y="543"/>
      <point x="589" y="663"/>
      <point x="589" y="543" type="curve"/>
      <point x="611" y="543"/>
      <point x="589" y="543"/>
      <point x="611" y="543" type="curve"/>
      <point x="611" y="663"/>
      <point x="611" y="543"/>
      <point x="611" y="663" type="curve"/>
    </contour>
    <contour>
      <point x="89" y="58"/>
      <point x="67" y="58"/>
      <point x="89" y="58" type="curve"/>
      <point x="89" y="178"/>
      <point x="89" y="58"/>
      <point x="89" y="178" type="curve"/>
      <point x="67" y="178"/>
      <point x="89" y="178"/>
      <point x="67" y="178" type="curve"/>
      <point x="67" y="58"/>
      <point x="67" y="178"/>
      <point x="67" y="58" type="curve"/>
    </contour>
    <contour>
      <point x="67" y="58"/>
      <point x="80" y="78"/>
      <point x="67" y="58" type="curve"/>
      <point x="157" y="16"/>
      <point x="250" y="-5"/>
      <point x="348" y="-5" type="curve"/>
      <point x="509" y="-5"/>
      <point x="631" y="30"/>
      <point x="631" y="169" type="curve"/>
      <point x="631" y="304"/>
      <point x="501" y="334"/>
      <point x="367" y="382" type="curve"/>
      <point x="248" y="424"/>
      <point x="126" y="447"/>
      <point x="126" y="563" type="curve"/>
      <point x="126" y="666"/>
      <point x="230" y="706"/>
      <point x="350" y="706" type="curve"/>
      <point x="444" y="706"/>
      <point x="514" y="684"/>
      <point x="600" y="646" type="curve"/>
      <point x="611" y="663"/>
      <point x="600" y="646"/>
      <point x="611" y="663" type="curve"/>
      <point x="522" y="703"/>
      <point x="449" y="727"/>
      <point x="351" y="727" type="curve"/>
      <point x="216" y="727"/>
      <point x="102" y="679"/>
      <point x="102" y="562" type="curve"/>
      <point x="102" y="434"/>
      <point x="227" y="407"/>
      <point x="353" y="362" type="curve"/>
      <point x="480" y="318"/>
      <point x="607" y="290"/>
      <point x="607" y="169" type="curve"/>
      <point x="607" y="43"/>
      <point x="495" y="19"/>
      <point x="349" y="19" type="curve"/>
      <point x="255" y="19"/>
      <point x="166" y="40"/>
      <point x="80" y="78" type="curve"/>
    </contour>
  </outline>
</glyph>
<glyph name="U" format="1">
  <advance width="1118"/>
  <unicode hex="0055"/>
  <outline>
    <contour>
      <point x="894" y="700"/>
      <point x="894" y="722"/>
      <point x="894" y="700" type="curve"/>
      <point x="1093" y="700"/>
      <point x="894" y="700"/>
      <point x="1093" y="700" type="curve"/>
      <point x="1093" y="722"/>
      <point x="1093" y="700"/>
      <point x="1093" y="722" type="curve"/>
      <point x="1027" y="722"/>
      <point x="960" y="722"/>
      <point x="894" y="722" type="curve"/>
    </contour>
    <contour>
      <point x="894" y="722"/>
      <point x="894" y="700"/>
      <point x="894" y="722" type="curve"/>
      <point x="827" y="722"/>
      <point x="761" y="722"/>
      <point x="695" y="722" type="curve"/>
      <point x="695" y="700"/>
      <point x="695" y="722"/>
      <point x="695" y="700" type="curve"/>
      <point x="894" y="700"/>
      <point x="695" y="700"/>
      <point x="894" y="700" type="curve"/>
    </contour>
    <contour>
      <point x="219" y="722"/>
      <point x="219" y="700"/>
      <point x="219" y="722" type="curve"/>
      <point x="152" y="722"/>
      <point x="86" y="722"/>
      <point x="20" y="722" type="curve"/>
      <point x="20" y="700"/>
      <point x="20" y="722"/>
      <point x="20" y="700" type="curve"/>
      <point x="219" y="700"/>
      <point x="20" y="700"/>
      <point x="219" y="700" type="curve"/>
    </contour>
    <contour>
      <point x="219" y="700"/>
      <point x="219" y="722"/>
      <point x="219" y="700" type="curve"/>
      <point x="418" y="700"/>
      <point x="219" y="700"/>
      <point x="418" y="700" type="curve"/>
      <point x="418" y="722"/>
      <point x="418" y="700"/>
      <point x="418" y="722" type="curve"/>
      <point x="352" y="722"/>
      <point x="285" y="722"/>
      <point x="219" y="722" type="curve"/>
    </contour>
    <contour>
      <point x="218" y="721"/>
      <point x="213" y="721"/>
      <point x="204" y="721" type="curve"/>
      <point x="204" y="540"/>
      <point x="204" y="452"/>
      <point x="204" y="271" type="curve"/>
      <point x="204" y="68"/>
      <point x="338" y="-5"/>
      <point x="558" y="-5" type="curve"/>
      <point x="774" y="-5"/>
      <point x="906" y="65"/>
      <point x="906" y="263" type="curve"/>
      <point x="906" y="447"/>
      <point x="906" y="537"/>
      <point x="906" y="721" type="curve"/>
      <point x="897" y="721"/>
      <point x="892" y="721"/>
      <point x="883" y="721" type="curve"/>
      <point x="883" y="535"/>
      <point x="883" y="445"/>
      <point x="883" y="259" type="curve"/>
      <point x="883" y="84"/>
      <point x="759" y="19"/>
      <point x="560" y="19" type="curve"/>
      <point x="353" y="19"/>
      <point x="227" y="85"/>
      <point x="227" y="275" type="curve"/>
      <point x="227" y="454"/>
      <point x="227" y="542"/>
      <point x="227" y="721" type="curve"/>
    </contour>
  </outline>
</glyph>
<glyph name="V" format="1">
  <advance width="1155"/>
  <unicode hex="0056"/>
  <outline>
    <contour>
      <point x="947" y="722"/>
      <point x="947" y="700"/>
      <point x="947" y="722" type="curve"/>
      <point x="879" y="722"/>
      <point x="811" y="722"/>
      <point x="743" y="722" type="curve"/>
      <point x="743" y="700"/>
      <point x="743" y="722"/>
      <point x="743" y="700" type="curve"/>
      <point x="947" y="700"/>
      <point x="743" y="700"/>
      <point x="947" y="700" type="curve"/>
    </contour>
    <contour>
      <point x="216" y="722"/>
      <point x="216" y="700"/>
      <point x="216" y="722" type="curve"/>
      <point x="149" y="722"/>
      <point x="83" y="722"/>
      <point x="16" y="722" type="curve"/>
      <point x="16" y="700"/>
      <point x="16" y="722"/>
      <point x="16" y="700" type="curve"/>
      <point x="216" y="700"/>
      <point x="16" y="700"/>
      <point x="216" y="700" type="curve"/>
    </contour>
    <contour>
      <point x="947" y="700"/>
      <point x="947" y="722"/>
      <point x="947" y="700" type="curve"/>
      <point x="1146" y="700"/>
      <point x="947" y="700"/>
      <point x="1146" y="700" type="curve"/>
      <point x="1146" y="722"/>
      <point x="1146" y="700"/>
      <point x="1146" y="722" type="curve"/>
      <point x="1080" y="722"/>
      <point x="1014" y="722"/>
      <point x="947" y="722" type="curve"/>
    </contour>
    <contour>
      <point x="216" y="700"/>
      <point x="216" y="722"/>
      <point x="216" y="700" type="curve"/>
      <point x="420" y="700"/>
      <point x="216" y="700"/>
      <point x="420" y="700" type="curve"/>
      <point x="420" y="722"/>
      <point x="420" y="700"/>
      <point x="420" y="722" type="curve"/>
      <point x="352" y="722"/>
      <point x="284" y="722"/>
      <point x="216" y="722" type="curve"/>
    </contour>
    <contour>
      <point x="950" y="722"/>
      <point x="977" y="722"/>
      <point x="950" y="722" type="curve"/>
      <point x="825" y="481"/>
      <point x="700" y="241"/>
      <point x="575" y="0" type="curve"/>
      <point x="602" y="0"/>
      <point x="575" y="0"/>
      <point x="602" y="0" type="curve"/>
      <point x="727" y="241"/>
      <point x="852" y="481"/>
      <point x="977" y="722" type="curve"/>
    </contour>
    <contour>
      <point x="187" y="722"/>
      <point x="214" y="722"/>
      <point x="186" y="722" type="curve"/>
      <point x="313" y="481"/>
      <point x="440" y="241"/>
      <point x="567" y="0" type="curve"/>
      <point x="594" y="0"/>
      <point x="568" y="0"/>
      <point x="595" y="0" type="curve"/>
      <point x="468" y="241"/>
      <point x="341" y="481"/>
      <point x="215" y="722" type="curve"/>
    </contour>
  </outline>
</glyph>
<glyph name="W" format="1">
  <advance width="1422"/>
  <unicode hex="0057"/>
  <outline>
    <contour>
      <point x="220" y="700"/>
      <point x="220" y="722"/>
      <point x="220" y="700" type="curve"/>
      <point x="419" y="700"/>
      <point x="220" y="700"/>
      <point x="419" y="700" type="curve"/>
      <point x="419" y="722"/>
      <point x="419" y="700"/>
      <point x="419" y="722" type="curve"/>
      <point x="353" y="722"/>
      <point x="287" y="722"/>
      <point x="220" y="722" type="curve"/>
    </contour>
    <contour>
      <point x="220" y="722"/>
      <point x="220" y="700"/>
      <point x="220" y="722" type="curve"/>
      <point x="154" y="722"/>
      <point x="87" y="722"/>
      <point x="21" y="722" type="curve"/>
      <point x="21" y="700"/>
      <point x="21" y="722"/>
      <point x="21" y="700" type="curve"/>
      <point x="220" y="700"/>
      <point x="21" y="700"/>
      <point x="220" y="700" type="curve"/>
    </contour>
    <contour>
      <point x="1214" y="722"/>
      <point x="1214" y="700"/>
      <point x="1214" y="722" type="curve"/>
      <point x="1147" y="722"/>
      <point x="1081" y="722"/>
      <point x="1015" y="722" type="curve"/>
      <point x="1015" y="700"/>
      <point x="1015" y="722"/>
      <point x="1015" y="700" type="curve"/>
      <point x="1214" y="700"/>
      <point x="1015" y="700"/>
      <point x="1214" y="700" type="curve"/>
    </contour>
    <contour>
      <point x="1214" y="700"/>
      <point x="1214" y="722"/>
      <point x="1214" y="700" type="curve"/>
      <point x="1413" y="700"/>
      <point x="1214" y="700"/>
      <point x="1413" y="700" type="curve"/>
      <point x="1413" y="722"/>
      <point x="1413" y="700"/>
      <point x="1413" y="722" type="curve"/>
      <point x="1347" y="722"/>
      <point x="1280" y="722"/>
      <point x="1214" y="722" type="curve"/>
    </contour>
    <contour>
      <point x="455" y="0"/>
      <point x="444" y="0"/>
      <point x="461" y="0" type="curve"/>
      <point x="551" y="241"/>
      <point x="642" y="481"/>
      <point x="732" y="722" type="curve"/>
      <point x="709" y="722"/>
      <point x="732" y="722"/>
      <point x="709" y="722" type="curve"/>
      <point x="619" y="481"/>
      <point x="528" y="241"/>
      <point x="438" y="0" type="curve"/>
    </contour>
    <contour>
      <point x="718" y="722"/>
      <point x="741" y="722"/>
      <point x="718" y="722" type="curve"/>
      <point x="799" y="481"/>
      <point x="881" y="241"/>
      <point x="962" y="0" type="curve"/>
      <point x="980" y="0"/>
      <point x="967" y="0"/>
      <point x="985" y="0" type="curve"/>
      <point x="905" y="241"/>
      <point x="823" y="481"/>
      <point x="741" y="722" type="curve"/>
    </contour>
    <contour>
      <point x="191" y="722"/>
      <point x="216" y="722"/>
      <point x="191" y="722" type="curve"/>
      <point x="272" y="481"/>
      <point x="354" y="241"/>
      <point x="436" y="0" type="curve"/>
      <point x="453" y="0"/>
      <point x="442" y="0"/>
      <point x="459" y="0" type="curve"/>
      <point x="379" y="240"/>
      <point x="296" y="482"/>
      <point x="216" y="722" type="curve"/>
    </contour>
    <contour>
      <point x="1218" y="722"/>
      <point x="1243" y="722"/>
      <point x="1218" y="722" type="curve"/>
      <point x="1133" y="481"/>
      <point x="1048" y="241"/>
      <point x="965" y="0" type="curve"/>
      <point x="983" y="0"/>
      <point x="970" y="0"/>
      <point x="988" y="0" type="curve"/>
      <point x="1073" y="241"/>
      <point x="1158" y="481"/>
      <point x="1243" y="722" type="curve"/>
    </contour>
  </outline>
</glyph>
<glyph name="X" format="1">
  <advance width="1085"/>
  <unicode hex="0058"/>
  <outline>
    <contour>
      <point x="213" y="0"/>
      <point x="213" y="22"/>
      <point x="213" y="0" type="curve"/>
      <point x="280" y="0"/>
      <point x="213" y="0"/>
      <point x="412" y="0" type="curve"/>
      <point x="412" y="22"/>
      <point x="412" y="0"/>
      <point x="412" y="22" type="curve"/>
      <point x="213" y="22"/>
      <point x="412" y="22"/>
      <point x="213" y="22" type="curve"/>
    </contour>
    <contour>
      <point x="213" y="22"/>
      <point x="213" y="0"/>
      <point x="213" y="22" type="curve"/>
      <point x="14" y="22"/>
      <point x="213" y="22"/>
      <point x="14" y="22" type="curve"/>
      <point x="14" y="0"/>
      <point x="14" y="22"/>
      <point x="14" y="0" type="curve"/>
      <point x="81" y="0"/>
      <point x="147" y="0"/>
      <point x="213" y="0" type="curve"/>
    </contour>
    <contour>
      <point x="867" y="0"/>
      <point x="867" y="22"/>
      <point x="867" y="0" type="curve"/>
      <point x="933" y="0"/>
      <point x="1000" y="0"/>
      <point x="1066" y="0" type="curve"/>
      <point x="1066" y="22"/>
      <point x="1066" y="0"/>
      <point x="1066" y="22" type="curve"/>
      <point x="867" y="22"/>
      <point x="1066" y="22"/>
      <point x="867" y="22" type="curve"/>
    </contour>
    <contour>
      <point x="867" y="22"/>
      <point x="867" y="0"/>
      <point x="867" y="22" type="curve"/>
      <point x="668" y="22"/>
      <point x="867" y="22"/>
      <point x="668" y="22" type="curve"/>
      <point x="668" y="0"/>
      <point x="668" y="22"/>
      <point x="668" y="0" type="curve"/>
      <point x="734" y="0"/>
      <point x="801" y="0"/>
      <point x="867" y="0" type="curve"/>
    </contour>
    <contour>
      <point x="832" y="700"/>
      <point x="832" y="722"/>
      <point x="832" y="700" type="curve"/>
      <point x="1031" y="700"/>
      <point x="832" y="700"/>
      <point x="1031" y="700" type="curve"/>
      <point x="1031" y="722"/>
      <point x="1031" y="700"/>
      <point x="1031" y="722" type="curve"/>
      <point x="965" y="722"/>
      <point x="898" y="722"/>
      <point x="832" y="722" type="curve"/>
    </contour>
    <contour>
      <point x="832" y="722"/>
      <point x="832" y="700"/>
      <point x="832" y="722" type="curve"/>
      <point x="766" y="722"/>
      <point x="699" y="722"/>
      <point x="633" y="722" type="curve"/>
      <point x="633" y="700"/>
      <point x="633" y="722"/>
      <point x="633" y="700" type="curve"/>
      <point x="832" y="700"/>
      <point x="633" y="700"/>
      <point x="832" y="700" type="curve"/>
    </contour>
    <contour>
      <point x="254" y="722"/>
      <point x="254" y="700"/>
      <point x="254" y="722" type="curve"/>
      <point x="188" y="722"/>
      <point x="121" y="722"/>
      <point x="55" y="722" type="curve"/>
      <point x="55" y="700"/>
      <point x="55" y="722"/>
      <point x="55" y="700" type="curve"/>
      <point x="254" y="700"/>
      <point x="55" y="700"/>
      <point x="254" y="700" type="curve"/>
    </contour>
    <contour>
      <point x="254" y="700"/>
      <point x="254" y="722"/>
      <point x="254" y="700" type="curve"/>
      <point x="453" y="700"/>
      <point x="254" y="700"/>
      <point x="453" y="700" type="curve"/>
      <point x="453" y="722"/>
      <point x="453" y="700"/>
      <point x="453" y="722" type="curve"/>
      <point x="387" y="722"/>
      <point x="320" y="722"/>
      <point x="254" y="722" type="curve"/>
    </contour>
    <contour>
      <point x="845" y="722"/>
      <point x="874" y="722"/>
      <point x="845" y="722" type="curve"/>
      <point x="621" y="481"/>
      <point x="396" y="241"/>
      <point x="172" y="0" type="curve"/>
      <point x="204" y="0"/>
      <point x="172" y="0"/>
      <point x="204" y="0" type="curve"/>
      <point x="427" y="241"/>
      <point x="650" y="481"/>
      <point x="874" y="722" type="curve"/>
    </contour>
    <contour>
      <point x="216" y="722"/>
      <point x="245" y="722"/>
      <point x="216" y="722" type="curve"/>
      <point x="438" y="481"/>
      <point x="659" y="241"/>
      <point x="881" y="0" type="curve"/>
      <point x="911" y="0"/>
      <point x="881" y="0"/>
      <point x="911" y="0" type="curve"/>
      <point x="689" y="241"/>
      <point x="467" y="481"/>
      <point x="245" y="722" type="curve"/>
    </contour>
  </outline>
</glyph>
<glyph name="Y" format="1">
  <advance width="1051"/>
  <unicode hex="0059"/>
  <outline>
    <contour>
      <point x="524" y="22"/>
      <point x="524" y="0"/>
      <point x="524" y="22" type="curve"/>
      <point x="325" y="22"/>
      <point x="524" y="22"/>
      <point x="325" y="22" type="curve"/>
      <point x="325" y="0"/>
      <point x="325" y="22"/>
      <point x="325" y="0" type="curve"/>
      <point x="391" y="0"/>
      <point x="458" y="0"/>
      <point x="524" y="0" type="curve"/>
    </contour>
    <contour>
      <point x="524" y="0"/>
      <point x="524" y="22"/>
      <point x="524" y="0" type="curve"/>
      <point x="590" y="0"/>
      <point x="657" y="0"/>
      <point x="723" y="0" type="curve"/>
      <point x="723" y="22"/>
      <point x="723" y="0"/>
      <point x="723" y="22" type="curve"/>
      <point x="524" y="22"/>
      <point x="723" y="22"/>
      <point x="524" y="22" type="curve"/>
    </contour>
    <contour>
      <point x="823" y="722"/>
      <point x="823" y="700"/>
      <point x="823" y="722" type="curve"/>
      <point x="756" y="722"/>
      <point x="690" y="722"/>
      <point x="624" y="722" type="curve"/>
      <point x="624" y="700"/>
      <point x="624" y="722"/>
      <point x="624" y="700" type="curve"/>
      <point x="823" y="700"/>
      <point x="624" y="700"/>
      <point x="823" y="700" type="curve"/>
    </contour>
    <contour>
      <point x="243" y="722"/>
      <point x="243" y="700"/>
      <point x="243" y="722" type="curve"/>
      <point x="177" y="722"/>
      <point x="110" y="722"/>
      <point x="44" y="722" type="curve"/>
      <point x="44" y="700"/>
      <point x="44" y="722"/>
      <point x="44" y="700" type="curve"/>
      <point x="243" y="700"/>
      <point x="44" y="700"/>
      <point x="243" y="700" type="curve"/>
    </contour>
    <contour>
      <point x="243" y="700"/>
      <point x="243" y="722"/>
      <point x="243" y="700" type="curve"/>
      <point x="442" y="700"/>
      <point x="243" y="700"/>
      <point x="442" y="700" type="curve"/>
      <point x="442" y="722"/>
      <point x="442" y="700"/>
      <point x="442" y="722" type="curve"/>
      <point x="376" y="722"/>
      <point x="309" y="722"/>
      <point x="243" y="722" type="curve"/>
    </contour>
    <contour>
      <point x="823" y="700"/>
      <point x="823" y="722"/>
      <point x="823" y="700" type="curve"/>
      <point x="1022" y="700"/>
      <point x="823" y="700"/>
      <point x="1022" y="700" type="curve"/>
      <point x="1022" y="722"/>
      <point x="1022" y="700"/>
      <point x="1022" y="722" type="curve"/>
      <point x="955" y="722"/>
      <point x="889" y="722"/>
      <point x="823" y="722" type="curve"/>
    </contour>
    <contour>
      <point x="194" y="722"/>
      <point x="220" y="722"/>
      <point x="194" y="722" type="curve"/>
      <point x="299" y="594"/>
      <point x="405" y="465"/>
      <point x="511" y="337" type="curve"/>
      <point x="537" y="337"/>
      <point x="511" y="337"/>
      <point x="537" y="337" type="curve"/>
      <point x="431" y="465"/>
      <point x="326" y="594"/>
      <point x="220" y="722" type="curve"/>
    </contour>
    <contour>
      <point x="846" y="722"/>
      <point x="872" y="722"/>
      <point x="846" y="722" type="curve"/>
      <point x="734" y="594"/>
      <point x="622" y="465"/>
      <point x="511" y="337" type="curve"/>
      <point x="537" y="337"/>
      <point x="511" y="337"/>
      <point x="537" y="337" type="curve"/>
      <point x="649" y="465"/>
      <point x="760" y="594"/>
      <point x="872" y="722" type="curve"/>
    </contour>
    <contour>
      <point x="537" y="0"/>
      <point x="511" y="0"/>
      <point x="537" y="0" type="curve"/>
      <point x="537" y="115"/>
      <point x="537" y="231"/>
      <point x="537" y="346" type="curve"/>
      <point x="511" y="346"/>
      <point x="537" y="346"/>
      <point x="511" y="346" type="curve"/>
      <point x="511" y="231"/>
      <point x="511" y="115"/>
      <point x="511" y="0" type="curve"/>
    </contour>
  </outline>
</glyph>
<glyph name="backslash" format="1">
  <advance width="677"/>
  <unicode hex="005C"/>
  <outline>
    <contour>
      <point x="633" y="-68"/>
      <point x="608" y="-68"/>
      <point x="633" y="-68" type="curve"/>
      <point x="457" y="236"/>
      <point x="281" y="540"/>
      <point x="104" y="844" type="curve"/>
      <point x="79" y="844"/>
      <point x="104" y="844"/>
      <point x="79" y="844" type="curve"/>
      <point x="255" y="540"/>
      <point x="432" y="236"/>
      <point x="608" y="-68" type="curve"/>
    </contour>
  </outline>
</glyph>
<glyph name="bracketright" format="1">
  <advance width="328"/>
  <unicode hex="005D"/>
  <outline>
    <contour>
      <point x="56" y="747"/>
      <point x="56" y="771"/>
      <point x="56" y="747" type="curve"/>
      <point x="125" y="747"/>
      <point x="193" y="747"/>
      <point x="262" y="747" type="curve"/>
      <point x="259" y="750"/>
      <point x="255" y="753"/>
      <point x="252" y="756" type="curve"/>
      <point x="248" y="759"/>
      <point x="244" y="762"/>
      <point x="241" y="765" type="curve"/>
      <point x="241" y="470"/>
      <point x="241" y="175"/>
      <point x="241" y="-120" type="curve"/>
      <point x="245" y="-117"/>
      <point x="249" y="-113"/>
      <point x="253" y="-109" type="curve"/>
      <point x="257" y="-107"/>
      <point x="260" y="-103"/>
      <point x="264" y="-100" type="curve"/>
      <point x="194" y="-100"/>
      <point x="125" y="-100"/>
      <point x="56" y="-100" type="curve"/>
      <point x="56" y="-124"/>
      <point x="56" y="-100"/>
      <point x="56" y="-124" type="curve"/>
      <point x="125" y="-124"/>
      <point x="194" y="-124"/>
      <point x="264" y="-124" type="curve"/>
      <point x="265" y="-124"/>
      <point x="264" y="-124"/>
      <point x="265" y="-124" type="curve"/>
      <point x="265" y="-120"/>
      <point x="265" y="-124"/>
      <point x="265" y="-120" type="curve"/>
      <point x="265" y="175"/>
      <point x="265" y="470"/>
      <point x="265" y="765" type="curve"/>
      <point x="265" y="771"/>
      <point x="265" y="765"/>
      <point x="265" y="771" type="curve"/>
      <point x="262" y="771"/>
      <point x="265" y="771"/>
      <point x="262" y="771" type="curve"/>
      <point x="193" y="771"/>
      <point x="125" y="771"/>
      <point x="56" y="771" type="curve"/>
    </contour>
  </outline>
</glyph>
<glyph name="b" format="1">
  <advance width="824"/>
  <unicode hex="0062"/>
  <outline>
    <contour>
      <point x="227" y="800"/>
      <point x="227" y="778"/>
      <point x="227" y="800" type="curve"/>
      <point x="161" y="800"/>
      <point x="95" y="800"/>
      <point x="28" y="800" type="curve"/>
      <point x="28" y="778"/>
      <point x="28" y="800"/>
      <point x="28" y="778" type="curve"/>
      <point x="227" y="778"/>
      <point x="28" y="778"/>
      <point x="227" y="778" type="curve"/>
    </contour>
    <contour>
      <point x="231" y="408"/>
      <point x="219" y="424"/>
      <point x="231" y="408" type="curve"/>
      <point x="291.322425243" y="463.210355307"/>
      <point x="395.0" y="516.0"/>
      <point x="512" y="516" type="curve"/>
      <point x="669.0" y="516.0"/>
      <point x="780.0" y="420.10483871"/>
      <point x="780" y="263" type="curve"/>
      <point x="780" y="112"/>
      <point x="668.000533979" y="14.9999931977"/>
      <point x="511" y="17" type="curve"/>
      <point x="403.0" y="17.0"/>
      <point x="320.882494964" y="41.5161510287"/>
      <point x="234" y="110" type="curve"/>
      <point x="218" y="97"/>
      <point x="234" y="110"/>
      <point x="218" y="97" type="curve"/>
      <point x="308.903166134" y="21.4175922033"/>
      <point x="396.0" y="-5.0"/>
      <point x="512" y="-5" type="curve"/>
      <point x="682.0" y="-5.0"/>
      <point x="804.0" y="96.8939393939"/>
      <point x="804" y="264" type="curve"/>
      <point x="804.0" y="432.066914498"/>
      <point x="683.0" y="538.0"/>
      <point x="515" y="538" type="curve"/>
      <point x="392.0" y="538.0"/>
      <point x="283.341856565" y="483.235360012"/>
      <point x="219" y="424" type="curve"/>
    </contour>
    <contour>
      <point x="237" y="0"/>
      <point x="213" y="0"/>
      <point x="237" y="0" type="curve"/>
      <point x="237" y="267"/>
      <point x="237" y="533"/>
      <point x="237" y="800" type="curve"/>
      <point x="213" y="800"/>
      <point x="237" y="800"/>
      <point x="213" y="800" type="curve"/>
      <point x="213" y="533"/>
      <point x="213" y="267"/>
      <point x="213" y="0" type="curve"/>
    </contour>
    <contour>
      <point x="227" y="22"/>
      <point x="227" y="0"/>
      <point x="227" y="22" type="curve"/>
      <point x="28" y="22"/>
      <point x="227" y="22"/>
      <point x="28" y="22" type="curve"/>
      <point x="28" y="0"/>
      <point x="28" y="22"/>
      <point x="28" y="0" type="curve"/>
      <point x="95" y="0"/>
      <point x="161" y="0"/>
      <point x="227" y="0" type="curve"/>
    </contour>
  </outline>
</glyph>
<glyph name="j" format="1">
  <advance width="363"/>
  <unicode hex="006A"/>
  <outline>
    <contour>
      <point x="290.25" y="533"/>
      <point x="290.25" y="511.44"/>
      <point x="290.25" y="533" type="curve"/>
      <point x="223.9006635" y="533"/>
      <point x="157.5493365" y="533"/>
      <point x="91.2" y="533" type="curve"/>
      <point x="91.2" y="511.44"/>
      <point x="91.2" y="533"/>
      <point x="91.2" y="511.44" type="curve"/>
      <point x="290.25" y="511.44"/>
      <point x="91.2" y="511.44"/>
      <point x="290.25" y="511.44" type="curve"/>
    </contour>
    <contour>
      <point x="307.87" y="670"/>
      <point x="279.38" y="670"/>
      <point x="307.87" y="670" type="curve"/>
      <point x="307.87" y="679.366827218"/>
      <point x="301.177952527" y="684.4601"/>
      <point x="291.6" y="684.4601" type="curve"/>
      <point x="283.502800335" y="684.4601"/>
      <point x="279.38" y="678.247896763"/>
      <point x="279.38" y="670" type="curve"/>
      <point x="307.87" y="670"/>
      <point x="279.38" y="670"/>
      <point x="307.87" y="670" type="curve"/>
      <point x="307.87" y="660.702205176"/>
      <point x="301.152346966" y="656.5399"/>
      <point x="291.6" y="656.5399" type="curve"/>
      <point x="283.574986531" y="656.5399"/>
      <point x="279.38" y="661.867809163"/>
      <point x="279.38" y="670" type="curve"/>
    </contour>
    <contour>
      <point x="55" y="-301"/>
      <point x="58" y="-279"/>
      <point x="54" y="-301" type="curve"/>
      <point x="65" y="-301"/>
      <point x="79" y="-304"/>
      <point x="94" y="-304" type="curve"/>
      <point x="209.0" y="-304.0"/>
      <point x="304.0" y="-253.0"/>
      <point x="304" y="-142" type="curve"/>
      <point x="304.0" y="83.0"/>
      <point x="303.7" y="308.020473224"/>
      <point x="303.7" y="533.015495399" type="curve"/>
      <point x="279.5" y="533.015495399"/>
      <point x="303.7" y="533.015495399"/>
      <point x="279.5" y="533.015495399" type="curve"/>
      <point x="279.5" y="308.020473224"/>
      <point x="280.0" y="83.0"/>
      <point x="280" y="-142" type="curve"/>
      <point x="280.0" y="-238.0"/>
      <point x="196.0" y="-282.0"/>
      <point x="94" y="-282" type="curve"/>
      <point x="82" y="-282"/>
      <point x="66" y="-280"/>
      <point x="58" y="-279" type="curve"/>
    </contour>
  </outline>
</glyph>
<glyph name="k" format="1">
  <advance width="964"/>
  <unicode hex="006B"/>
  <outline>
    <contour>
      <point x="218" y="22"/>
      <point x="218" y="0"/>
      <point x="218" y="22" type="curve"/>
      <point x="19" y="22"/>
      <point x="218" y="22"/>
      <point x="19" y="22" type="curve"/>
      <point x="19" y="0"/>
      <point x="19" y="22"/>
      <point x="19" y="0" type="curve"/>
      <point x="85" y="0"/>
      <point x="151" y="0"/>
      <point x="218" y="0" type="curve"/>
    </contour>
    <contour>
      <point x="725" y="0"/>
      <point x="725" y="22"/>
      <point x="725" y="0" type="curve"/>
      <point x="791" y="0"/>
      <point x="858" y="0"/>
      <point x="924" y="0" type="curve"/>
      <point x="924" y="22"/>
      <point x="924" y="0"/>
      <point x="924" y="22" type="curve"/>
      <point x="725" y="22"/>
      <point x="924" y="22"/>
      <point x="725" y="22" type="curve"/>
    </contour>
    <contour>
      <point x="690" y="511"/>
      <point x="690" y="533"/>
      <point x="690" y="511" type="curve"/>
      <point x="871" y="511"/>
      <point x="690" y="511"/>
      <point x="871" y="511" type="curve"/>
      <point x="871" y="533"/>
      <point x="871" y="511"/>
      <point x="871" y="533" type="curve"/>
      <point x="811" y="533"/>
      <point x="750" y="533"/>
      <point x="690" y="533" type="curve"/>
    </contour>
    <contour>
      <point x="218" y="0"/>
      <point x="218" y="22"/>
      <point x="218" y="0" type="curve"/>
      <point x="279" y="0"/>
      <point x="218" y="0"/>
      <point x="401" y="0" type="curve"/>
      <point x="401" y="22"/>
      <point x="401" y="0"/>
      <point x="401" y="22" type="curve"/>
      <point x="218" y="22"/>
      <point x="401" y="22"/>
      <point x="218" y="22" type="curve"/>
    </contour>
    <contour>
      <point x="690" y="533"/>
      <point x="690" y="511"/>
      <point x="690" y="533" type="curve"/>
      <point x="628" y="533"/>
      <point x="566" y="533"/>
      <point x="504" y="533" type="curve"/>
      <point x="504" y="511"/>
      <point x="504" y="533"/>
      <point x="504" y="511" type="curve"/>
      <point x="690" y="511"/>
      <point x="504" y="511"/>
      <point x="690" y="511" type="curve"/>
    </contour>
    <contour>
      <point x="221" y="800"/>
      <point x="221" y="778"/>
      <point x="221" y="800" type="curve"/>
      <point x="154" y="800"/>
      <point x="88" y="800"/>
      <point x="21" y="800" type="curve"/>
      <point x="21" y="778"/>
      <point x="21" y="800"/>
      <point x="21" y="778" type="curve"/>
      <point x="221" y="778"/>
      <point x="21" y="778"/>
      <point x="221" y="778" type="curve"/>
    </contour>
    <contour>
      <point x="231" y="0"/>
      <point x="207" y="0"/>
      <point x="231" y="0" type="curve"/>
      <point x="231" y="0"/>
      <point x="231" y="800"/>
      <point x="231" y="800" type="curve"/>
      <point x="207" y="800"/>
      <point x="231" y="800"/>
      <point x="207" y="800" type="curve"/>
      <point x="207" y="533"/>
      <point x="207" y="267"/>
      <point x="207" y="0" type="curve"/>
    </contour>
    <contour>
      <point x="694.0" y="533.0"/>
      <point x="736.0" y="533.0"/>
      <point x="694" y="533" type="curve"/>
      <point x="536" y="447"/>
      <point x="378" y="361"/>
      <point x="220" y="275" type="curve"/>
      <point x="263.0" y="275.0"/>
      <point x="220.0" y="275.0"/>
      <point x="263" y="275" type="curve"/>
      <point x="420" y="361"/>
      <point x="578" y="447"/>
      <point x="736" y="533" type="curve"/>
    </contour>
    <contour>
      <point x="772.0" y="0.0"/>
      <point x="725.0" y="0.0"/>
      <point x="772" y="0" type="curve"/>
      <point x="602" y="92"/>
      <point x="432" y="183"/>
      <point x="263" y="275" type="curve"/>
      <point x="220.0" y="275.0"/>
      <point x="263.0" y="275.0"/>
      <point x="220" y="275" type="curve"/>
      <point x="389" y="182"/>
      <point x="556" y="91"/>
      <point x="725" y="0" type="curve"/>
    </contour>
  </outline>
</glyph>
<glyph name="n" format="1">
  <advance width="938"/>
  <unicode hex="006E"/>
  <outline>
    <contour>
      <point x="225" y="354"/>
      <point x="213" y="365"/>
      <point x="225" y="354" type="curve"/>
      <point x="276.282833755" y="457.591324185"/>
      <point x="385.0" y="516.0"/>
      <point x="500" y="516" type="curve"/>
      <point x="626.0" y="516.0"/>
      <point x="708.0" y="461.441176471"/>
      <point x="708" y="341" type="curve"/>
      <point x="708" y="228"/>
      <point x="708" y="114"/>
      <point x="708" y="0" type="curve"/>
      <point x="733" y="0"/>
      <point x="708" y="0"/>
      <point x="733" y="0" type="curve"/>
      <point x="733" y="115"/>
      <point x="733" y="229"/>
      <point x="733" y="344" type="curve"/>
      <point x="733.0" y="477.439153439"/>
      <point x="644.0" y="538.0"/>
      <point x="505" y="538" type="curve"/>
      <point x="380.0" y="538.0"/>
      <point x="259.158260091" y="480.908519785"/>
      <point x="213" y="365" type="curve"/>
    </contour>
    <contour>
      <point x="719" y="0"/>
      <point x="719" y="22"/>
      <point x="719" y="0" type="curve"/>
      <point x="785" y="0"/>
      <point x="852" y="0"/>
      <point x="918" y="0" type="curve"/>
      <point x="918" y="22"/>
      <point x="918" y="0"/>
      <point x="918" y="22" type="curve"/>
      <point x="719" y="22"/>
      <point x="918" y="22"/>
      <point x="719" y="22" type="curve"/>
    </contour>
    <contour>
      <point x="218" y="22"/>
      <point x="218" y="0"/>
      <point x="218" y="22" type="curve"/>
      <point x="19" y="22"/>
      <point x="218" y="22"/>
      <point x="19" y="22" type="curve"/>
      <point x="19" y="0"/>
      <point x="19" y="22"/>
      <point x="19" y="0" type="curve"/>
      <point x="86" y="0"/>
      <point x="152" y="0"/>
      <point x="218" y="0" type="curve"/>
    </contour>
    <contour>
      <point x="218" y="0"/>
      <point x="218" y="22"/>
      <point x="218" y="0" type="curve"/>
      <point x="280" y="0"/>
      <point x="218" y="0"/>
      <point x="404" y="0" type="curve"/>
      <point x="404" y="22"/>
      <point x="404" y="0"/>
      <point x="404" y="22" type="curve"/>
      <point x="218" y="22"/>
      <point x="404" y="22"/>
      <point x="218" y="22" type="curve"/>
    </contour>
    <contour>
      <point x="230" y="0"/>
      <point x="206" y="0"/>
      <point x="230" y="0" type="curve"/>
      <point x="230" y="178"/>
      <point x="230" y="355"/>
      <point x="230" y="533" type="curve"/>
      <point x="206" y="533"/>
      <point x="230" y="533"/>
      <point x="206" y="533" type="curve"/>
      <point x="206" y="355"/>
      <point x="206" y="178"/>
      <point x="206" y="0" type="curve"/>
    </contour>
    <contour>
      <point x="218" y="533"/>
      <point x="218" y="511"/>
      <point x="218" y="533" type="curve"/>
      <point x="152" y="533"/>
      <point x="86" y="533"/>
      <point x="19" y="533" type="curve"/>
      <point x="19" y="511"/>
      <point x="19" y="533"/>
      <point x="19" y="511" type="curve"/>
      <point x="218" y="511"/>
      <point x="19" y="511"/>
      <point x="218" y="511" type="curve"/>
    </contour>
    <contour>
      <point x="719" y="22"/>
      <point x="719" y="0"/>
      <point x="719" y="22" type="curve"/>
      <point x="534" y="22"/>
      <point x="719" y="22"/>
      <point x="534" y="22" type="curve"/>
      <point x="534" y="0"/>
      <point x="534" y="22"/>
      <point x="534" y="0" type="curve"/>
      <point x="595" y="0"/>
      <point x="657" y="0"/>
      <point x="719" y="0" type="curve"/>
    </contour>
  </outline>
</glyph>
<glyph name="q" format="1">
  <advance width="866"/>
  <unicode hex="0071"/>
  <outline>
    <contour>
      <point x="654" y="511"/>
      <point x="654" y="533"/>
      <point x="654" y="511" type="curve"/>
      <point x="839" y="511"/>
      <point x="654" y="511"/>
      <point x="839" y="511" type="curve"/>
      <point x="839" y="533"/>
      <point x="839" y="511"/>
      <point x="839" y="533" type="curve"/>
      <point x="778" y="533"/>
      <point x="716" y="533"/>
      <point x="654" y="533" type="curve"/>
    </contour>
    <contour>
      <point x="654" y="-279"/>
      <point x="654" y="-300"/>
      <point x="654" y="-279" type="curve"/>
      <point x="455" y="-278"/>
      <point x="654" y="-279"/>
      <point x="455" y="-278" type="curve"/>
      <point x="455" y="-300"/>
      <point x="455" y="-278"/>
      <point x="455" y="-300" type="curve"/>
      <point x="521" y="-300"/>
      <point x="588" y="-300"/>
      <point x="654" y="-300" type="curve"/>
    </contour>
    <contour>
      <point x="654" y="-300"/>
      <point x="654" y="-279"/>
      <point x="654" y="-300" type="curve"/>
      <point x="716" y="-300"/>
      <point x="778" y="-300"/>
      <point x="839" y="-300" type="curve"/>
      <point x="839" y="-278"/>
      <point x="839" y="-300"/>
      <point x="839" y="-278" type="curve"/>
      <point x="654" y="-279"/>
      <point x="839" y="-278"/>
      <point x="654" y="-279" type="curve"/>
    </contour>
    <contour>
      <point x="663" y="442"/>
      <point x="647.260027608" y="428.943668991"/>
      <point x="660" y="444" type="curve"/>
      <point x="578" y="503"/>
      <point x="469" y="538"/>
      <point x="364" y="538" type="curve"/>
      <point x="188" y="538"/>
      <point x="67.0" y="436.141263941"/>
      <point x="67" y="264" type="curve"/>
      <point x="67.0" y="92.4490566038"/>
      <point x="192.0" y="-5.0"/>
      <point x="368" y="-5" type="curve"/>
      <point x="479.0" y="-5.0"/>
      <point x="584.715951472" y="41.6089474283"/>
      <point x="658" y="121" type="curve"/>
      <point x="642.357560321" y="135.439175088"/>
      <point x="663" y="126"/>
      <point x="648" y="140" type="curve"/>
      <point x="573.666337337" y="59.5567212274"/>
      <point x="474.0" y="17.0"/>
      <point x="368" y="17" type="curve"/>
      <point x="208.0" y="17.0"/>
      <point x="92.0" y="107.459016393"/>
      <point x="92" y="265" type="curve"/>
      <point x="92.0" y="423.0"/>
      <point x="204" y="516"/>
      <point x="365" y="516" type="curve"/>
      <point x="465" y="516"/>
      <point x="568" y="481"/>
      <point x="650" y="427" type="curve"/>
    </contour>
    <contour>
      <point x="665" y="-300"/>
      <point x="639" y="-300"/>
      <point x="665" y="-300" type="curve"/>
      <point x="665" y="-22"/>
      <point x="665" y="255"/>
      <point x="665" y="533" type="curve"/>
      <point x="639" y="533"/>
      <point x="665" y="533"/>
      <point x="639" y="533" type="curve"/>
      <point x="639" y="255"/>
      <point x="639" y="-22"/>
      <point x="639" y="-300" type="curve"/>
    </contour>
  </outline>
</glyph>
<glyph name="t" format="1">
  <advance width="619"/>
  <unicode hex="0074"/>
  <outline>
    <contour>
      <point x="58.05" y="476.035873418"/>
      <point x="58.05" y="497.595873418"/>
      <point x="58.05" y="476.035873418" type="curve"/>
      <point x="58.05" y="476.035873418"/>
      <point x="585.9" y="476.035873418"/>
      <point x="585.9" y="476.035873418" type="curve"/>
      <point x="585.9" y="497.595873418"/>
      <point x="585.9" y="476.035873418"/>
      <point x="585.9" y="497.595873418" type="curve"/>
      <point x="585.9" y="497.595873418"/>
      <point x="58.05" y="497.595873418"/>
      <point x="58.05" y="497.595873418" type="curve"/>
    </contour>
    <contour>
      <point x="555" y="48"/>
      <point x="563.938799796" y="28.1360004539"/>
      <point x="555" y="48" type="curve"/>
      <point x="506.538339222" y="28.8172592756"/>
      <point x="472.0" y="17.0"/>
      <point x="421" y="17" type="curve"/>
      <point x="331.0" y="17.0"/>
      <point x="278.05" y="53.8371466836"/>
      <point x="278.05" y="144.541873418" type="curve"/>
      <point x="278.05" y="144.541873418"/>
      <point x="278.05" y="651.007873418"/>
      <point x="278.05" y="651.007873418" type="curve"/>
      <point x="253.85" y="636.993873418"/>
      <point x="278.05" y="651.007873418"/>
      <point x="253.85" y="636.993873418" type="curve"/>
      <point x="253.85" y="636.993873418"/>
      <point x="253.85" y="143.463873418"/>
      <point x="253.85" y="143.463873418" type="curve"/>
      <point x="253.85" y="42.2846735339"/>
      <point x="317.337240498" y="-5.01012658228"/>
      <point x="418.75" y="-5.01012658228" type="curve"/>
      <point x="474.066768303" y="-5.01012658228"/>
      <point x="511" y="9"/>
      <point x="564" y="28" type="curve"/>
    </contour>
  </outline>
</glyph>
<glyph name="u" format="1">
  <advance width="927"/>
  <unicode hex="0075"/>
  <outline>
    <contour>
      <point x="709" y="533"/>
      <point x="709" y="511"/>
      <point x="709" y="533" type="curve"/>
      <point x="643" y="533"/>
      <point x="576" y="533"/>
      <point x="510" y="533" type="curve"/>
      <point x="510" y="511"/>
      <point x="510" y="533"/>
      <point x="510" y="511" type="curve"/>
      <point x="709" y="511"/>
      <point x="510" y="511"/>
      <point x="709" y="511" type="curve"/>
    </contour>
    <contour>
      <point x="216" y="533"/>
      <point x="216" y="511"/>
      <point x="216" y="533" type="curve"/>
      <point x="150" y="533"/>
      <point x="83" y="533"/>
      <point x="17" y="533" type="curve"/>
      <point x="17" y="511"/>
      <point x="17" y="533"/>
      <point x="17" y="511" type="curve"/>
      <point x="216" y="511"/>
      <point x="17" y="511"/>
      <point x="216" y="511" type="curve"/>
    </contour>
    <contour>
      <point x="709" y="-1"/>
      <point x="709" y="21"/>
      <point x="709" y="-1" type="curve"/>
      <point x="771" y="-1"/>
      <point x="833" y="0"/>
      <point x="894" y="0" type="curve"/>
      <point x="894" y="22"/>
      <point x="894" y="0"/>
      <point x="894" y="22" type="curve"/>
      <point x="709" y="21"/>
      <point x="894" y="22"/>
      <point x="709" y="21" type="curve"/>
    </contour>
    <contour>
      <point x="721" y="0"/>
      <point x="697" y="0"/>
      <point x="721" y="0" type="curve"/>
      <point x="721" y="178"/>
      <point x="721" y="355"/>
      <point x="721" y="533" type="curve"/>
      <point x="697" y="533"/>
      <point x="721" y="533"/>
      <point x="697" y="533" type="curve"/>
      <point x="697" y="355"/>
      <point x="697" y="178"/>
      <point x="697" y="0" type="curve"/>
    </contour>
    <contour>
      <point x="700.04003392" y="161.5999788"/>
      <point x="717.95996608" y="152.4000212"/>
      <point x="701" y="163" type="curve"/>
      <point x="645.472012355" y="80.2128184208"/>
      <point x="548.0" y="17.0"/>
      <point x="446" y="17" type="curve"/>
      <point x="315.0" y="17.0"/>
      <point x="228.0" y="64.3939393939"/>
      <point x="228" y="187" type="curve"/>
      <point x="228" y="302"/>
      <point x="228" y="418"/>
      <point x="228" y="533" type="curve"/>
      <point x="204" y="533"/>
      <point x="228" y="533"/>
      <point x="204" y="533" type="curve"/>
      <point x="204" y="417"/>
      <point x="204" y="301"/>
      <point x="204" y="185" type="curve"/>
      <point x="204.0" y="48.4054054054"/>
      <point x="299.0" y="-5.0"/>
      <point x="443" y="-5" type="curve"/>
      <point x="554.0" y="-5.0"/>
      <point x="659.682695614" y="61.9534735426"/>
      <point x="717" y="151" type="curve"/>
    </contour>
  </outline>
</glyph>
<glyph name="x" format="1">
  <advance width="1023"/>
  <unicode hex="0078"/>
  <outline>
    <contour>
      <point x="232" y="22"/>
      <point x="232" y="0"/>
      <point x="232" y="22" type="curve"/>
      <point x="33" y="22"/>
      <point x="232" y="22"/>
      <point x="33" y="22" type="curve"/>
      <point x="33" y="0"/>
      <point x="33" y="22"/>
      <point x="33" y="0" type="curve"/>
      <point x="99" y="0"/>
      <point x="165" y="0"/>
      <point x="232" y="0" type="curve"/>
    </contour>
    <contour>
      <point x="788" y="22"/>
      <point x="788" y="0"/>
      <point x="788" y="22" type="curve"/>
      <point x="589" y="22"/>
      <point x="788" y="22"/>
      <point x="589" y="22" type="curve"/>
      <point x="589" y="0"/>
      <point x="589" y="22"/>
      <point x="589" y="0" type="curve"/>
      <point x="655" y="0"/>
      <point x="721" y="0"/>
      <point x="788" y="0" type="curve"/>
    </contour>
    <contour>
      <point x="788" y="0"/>
      <point x="788" y="22"/>
      <point x="788" y="0" type="curve"/>
      <point x="854" y="0"/>
      <point x="921" y="0"/>
      <point x="987" y="0" type="curve"/>
      <point x="987" y="22"/>
      <point x="987" y="0"/>
      <point x="987" y="22" type="curve"/>
      <point x="788" y="22"/>
      <point x="987" y="22"/>
      <point x="788" y="22" type="curve"/>
    </contour>
    <contour>
      <point x="232" y="0"/>
      <point x="232" y="22"/>
      <point x="232" y="0" type="curve"/>
      <point x="298" y="0"/>
      <point x="232" y="0"/>
      <point x="431" y="0" type="curve"/>
      <point x="431" y="22"/>
      <point x="431" y="0"/>
      <point x="431" y="22" type="curve"/>
      <point x="232" y="22"/>
      <point x="431" y="22"/>
      <point x="232" y="22" type="curve"/>
    </contour>
    <contour>
      <point x="766" y="511"/>
      <point x="766" y="533"/>
      <point x="766" y="511" type="curve"/>
      <point x="965" y="511"/>
      <point x="766" y="511"/>
      <point x="965" y="511" type="curve"/>
      <point x="965" y="533"/>
      <point x="965" y="511"/>
      <point x="965" y="533" type="curve"/>
      <point x="899" y="533"/>
      <point x="833" y="533"/>
      <point x="766" y="533" type="curve"/>
    </contour>
    <contour>
      <point x="259" y="533"/>
      <point x="259" y="511"/>
      <point x="259" y="533" type="curve"/>
      <point x="192" y="533"/>
      <point x="126" y="533"/>
      <point x="60" y="533" type="curve"/>
      <point x="60" y="511"/>
      <point x="60" y="533"/>
      <point x="60" y="511" type="curve"/>
      <point x="259" y="511"/>
      <point x="60" y="511"/>
      <point x="259" y="511" type="curve"/>
    </contour>
    <contour>
      <point x="259" y="511"/>
      <point x="259" y="533"/>
      <point x="259" y="511" type="curve"/>
      <point x="458" y="511"/>
      <point x="259" y="511"/>
      <point x="458" y="511" type="curve"/>
      <point x="458" y="533"/>
      <point x="458" y="511"/>
      <point x="458" y="533" type="curve"/>
      <point x="391" y="533"/>
      <point x="325" y="533"/>
      <point x="259" y="533" type="curve"/>
    </contour>
    <contour>
      <point x="766" y="533"/>
      <point x="766" y="511"/>
      <point x="766" y="533" type="curve"/>
      <point x="700" y="533"/>
      <point x="633" y="533"/>
      <point x="567" y="533" type="curve"/>
      <point x="567" y="511"/>
      <point x="567" y="533"/>
      <point x="567" y="511" type="curve"/>
      <point x="766" y="511"/>
      <point x="567" y="511"/>
      <point x="766" y="511" type="curve"/>
    </contour>
    <contour>
      <point x="821.0" y="0.0"/>
      <point x="788.0" y="0.0"/>
      <point x="821" y="0" type="curve"/>
      <point x="633" y="178"/>
      <point x="446" y="355"/>
      <point x="258" y="533" type="curve"/>
      <point x="228.0" y="533.0"/>
      <point x="258.0" y="533.0"/>
      <point x="228" y="533" type="curve"/>
      <point x="415" y="355"/>
      <point x="602" y="178"/>
      <point x="788" y="0" type="curve"/>
    </contour>
    <contour>
      <point x="769" y="533"/>
      <point x="799.0" y="533.0"/>
      <point x="769" y="533" type="curve"/>
      <point x="580" y="355"/>
      <point x="390" y="178"/>
      <point x="200" y="0" type="curve"/>
      <point x="233.0" y="0.0"/>
      <point x="200" y="0"/>
      <point x="233" y="0" type="curve"/>
      <point x="421" y="178"/>
      <point x="610" y="355"/>
      <point x="799" y="533" type="curve"/>
    </contour>
  </outline>
</glyph>
<glyph name="dvAA" format="1">
  <advance width="1475"/>
  <unicode hex="0906"/>
  <outline>
    <contour>
      <point x="1261" y="0"/>
      <point x="1261" y="21"/>
      <point x="1261" y="0" type="curve"/>
      <point x="1318" y="0"/>
      <point x="1376" y="0"/>
      <point x="1433" y="0" type="curve"/>
      <point x="1433" y="21"/>
      <point x="1433" y="0"/>
      <point x="1433" y="21" type="curve"/>
      <point x="1261" y="21"/>
      <point x="1433" y="21"/>
      <point x="1261" y="21" type="curve"/>
    </contour>
    <contour>
      <point x="1261" y="21"/>
      <point x="1261" y="0"/>
      <point x="1261" y="21" type="curve"/>
      <point x="1075" y="21"/>
      <point x="1261" y="21"/>
      <point x="1075" y="21" type="curve"/>
      <point x="1075" y="0"/>
      <point x="1075" y="21"/>
      <point x="1075" y="0" type="curve"/>
      <point x="1137" y="0"/>
      <point x="1199" y="0"/>
      <point x="1261" y="0" type="curve"/>
    </contour>
    <contour>
      <point x="1249" y="699"/>
      <point x="1249" y="722"/>
      <point x="1249" y="699" type="curve"/>
      <point x="1325" y="699"/>
      <point x="1401" y="699"/>
      <point x="1477" y="699" type="curve"/>
      <point x="1477" y="722"/>
      <point x="1477" y="699"/>
      <point x="1477" y="722" type="curve"/>
      <point x="1401" y="722"/>
      <point x="1325" y="722"/>
      <point x="1249" y="722" type="curve"/>
    </contour>
    <contour>
      <point x="1272" y="0"/>
      <point x="1249" y="0"/>
      <point x="1272" y="0" type="curve"/>
      <point x="1272" y="240"/>
      <point x="1272" y="481"/>
      <point x="1272" y="722" type="curve"/>
      <point x="1249" y="722"/>
      <point x="1272" y="722"/>
      <point x="1249" y="722" type="curve"/>
      <point x="1249" y="481"/>
      <point x="1249" y="240"/>
      <point x="1249" y="0" type="curve"/>
    </contour>
    <contour>
      <point x="864" y="699"/>
      <point x="864" y="722"/>
      <point x="864" y="699" type="curve"/>
      <point x="999" y="699"/>
      <point x="1131" y="699"/>
      <point x="1266" y="699" type="curve"/>
      <point x="1266" y="722"/>
      <point x="1266" y="699"/>
      <point x="1266" y="722" type="curve"/>
      <point x="1131" y="722"/>
      <point x="999" y="722"/>
      <point x="864" y="722" type="curve"/>
    </contour>
    <contour>
      <point x="876" y="0"/>
      <point x="876" y="21"/>
      <point x="876" y="0" type="curve"/>
      <point x="933" y="0"/>
      <point x="991" y="0"/>
      <point x="1048" y="0" type="curve"/>
      <point x="1048" y="21"/>
      <point x="1048" y="0"/>
      <point x="1048" y="21" type="curve"/>
      <point x="876" y="21"/>
      <point x="1048" y="21"/>
      <point x="876" y="21" type="curve"/>
    </contour>
    <contour>
      <point x="876" y="21"/>
      <point x="876" y="0"/>
      <point x="876" y="21" type="curve"/>
      <point x="690" y="21"/>
      <point x="876" y="21"/>
      <point x="690" y="21" type="curve"/>
      <point x="690" y="0"/>
      <point x="690" y="21"/>
      <point x="690" y="0" type="curve"/>
      <point x="752" y="0"/>
      <point x="814" y="0"/>
      <point x="876" y="0" type="curve"/>
    </contour>
    <contour>
      <point x="887" y="0"/>
      <point x="864" y="0"/>
      <point x="887" y="0" type="curve"/>
      <point x="887" y="240"/>
      <point x="887" y="481"/>
      <point x="887" y="722" type="curve"/>
      <point x="864" y="722"/>
      <point x="887" y="722"/>
      <point x="864" y="722" type="curve"/>
      <point x="864" y="481"/>
      <point x="864" y="240"/>
      <point x="864" y="0" type="curve"/>
    </contour>
    <contour>
      <point x="68" y="122"/>
      <point x="46" y="122"/>
      <point x="68" y="122" type="curve"/>
      <point x="68" y="242"/>
      <point x="68" y="122"/>
      <point x="68" y="242" type="curve"/>
      <point x="46" y="242"/>
      <point x="68" y="242"/>
      <point x="46" y="242" type="curve"/>
      <point x="46" y="122"/>
      <point x="46" y="242"/>
      <point x="46" y="122" type="curve"/>
    </contour>
    <contour>
      <point x="46" y="122"/>
      <point x="62" y="135"/>
      <point x="46" y="122" type="curve"/>
      <point x="116" y="60"/>
      <point x="207" y="32"/>
      <point x="301" y="32" type="curve"/>
      <point x="466" y="27"/>
      <point x="601" y="73"/>
      <point x="598" y="216" type="curve"/>
      <point x="594" y="383"/>
      <point x="420" y="394"/>
      <point x="227" y="394" type="curve"/>
      <point x="227" y="377"/>
      <point x="227" y="394"/>
      <point x="227" y="377" type="curve"/>
      <point x="409" y="377"/>
      <point x="571" y="371"/>
      <point x="575" y="214" type="curve"/>
      <point x="578" y="86"/>
      <point x="454" y="49"/>
      <point x="303" y="53" type="curve"/>
      <point x="213" y="53"/>
      <point x="130" y="78"/>
      <point x="62" y="135" type="curve"/>
    </contour>
    <contour>
      <point x="867" y="421"/>
      <point x="875" y="404"/>
      <point x="867" y="421" type="curve"/>
      <point x="689" y="359"/>
      <point x="557" y="367"/>
      <point x="373" y="389" type="curve"/>
      <point x="368" y="377"/>
      <point x="373" y="389"/>
      <point x="368" y="377" type="curve"/>
      <point x="534" y="347"/>
      <point x="680" y="331"/>
      <point x="875" y="404" type="curve"/>
    </contour>
    <contour>
      <point x="98" y="641"/>
      <point x="84" y="658"/>
      <point x="98" y="641" type="curve"/>
      <point x="173" y="681"/>
      <point x="232" y="705"/>
      <point x="316" y="705" type="curve"/>
      <point x="437" y="705"/>
      <point x="533" y="659"/>
      <point x="532" y="550" type="curve"/>
      <point x="530" y="412"/>
      <point x="387" y="399"/>
      <point x="227" y="399" type="curve"/>
      <point x="227" y="380"/>
      <point x="227" y="399"/>
      <point x="227" y="380" type="curve"/>
      <point x="402" y="380"/>
      <point x="555" y="401"/>
      <point x="555" y="553" type="curve"/>
      <point x="555" y="674"/>
      <point x="452" y="726"/>
      <point x="319" y="726" type="curve"/>
      <point x="227" y="726"/>
      <point x="165" y="702"/>
      <point x="84" y="658" type="curve"/>
    </contour>
  </outline>
</glyph>
<glyph name="dvEcandra" format="1">
  <advance width="805"/>
  <unicode hex="090D"/>
  <outline>
    <contour>
      <point x="622.275" y="1028.51333333"/>
      <point x="644.325" y="1028.51333333"/>
      <point x="622.275" y="1028.51333333" type="curve"/>
      <point x="622.275" y="920.362882552"/>
      <point x="529.104600732" y="879.769222222"/>
      <point x="408.8" y="879.769222222" type="curve"/>
      <point x="290.24748766" y="879.769222222"/>
      <point x="199.875" y="922.115087036"/>
      <point x="199.875" y="1028.51333333" type="curve"/>
      <point x="177.825" y="1028.51333333"/>
      <point x="199.875" y="1028.51333333"/>
      <point x="177.825" y="1028.51333333" type="curve"/>
      <point x="177.825" y="909.22527618"/>
      <point x="275.99204693" y="855.872222222"/>
      <point x="406.7" y="855.872222222" type="curve"/>
      <point x="541.481685081" y="855.872222222"/>
      <point x="644.325" y="906.169479831"/>
      <point x="644.325" y="1028.51333333" type="curve"/>
    </contour>
    <contour>
      <point x="593.125" y="9.58666666667"/>
      <point x="585.775" y="-11.1933333333"/>
      <point x="593.125" y="9.58666666667" type="curve"/>
      <point x="350.852808979" y="84.2290307487"/>
      <point x="157.9" y="193.172989782"/>
      <point x="157.9" y="433.998222222" type="curve"/>
      <point x="157.9" y="526.071968142"/>
      <point x="157.9" y="618.148476302"/>
      <point x="157.9" y="710.222222222" type="curve"/>
      <point x="134.8" y="710.222222222"/>
      <point x="157.9" y="710.222222222"/>
      <point x="134.8" y="710.222222222" type="curve"/>
      <point x="134.8" y="616.763156822"/>
      <point x="134.8" y="523.301287622"/>
      <point x="134.8" y="429.842222222" type="curve"/>
      <point x="134.8" y="179.680268688"/>
      <point x="332.555599073" y="62.1011425215"/>
      <point x="585.775" y="-11.1933333333" type="curve"/>
    </contour>
    <contour>
      <point x="812.7" y="722"/>
      <point x="812.7" y="701.22"/>
      <point x="812.7" y="722" type="curve"/>
      <point x="535.9527675" y="722"/>
      <point x="259.1972325" y="722"/>
      <point x="-17.55" y="722" type="curve"/>
      <point x="-17.55" y="701.22"/>
      <point x="-17.55" y="722"/>
      <point x="-17.55" y="701.22" type="curve"/>
      <point x="259.1972325" y="701.22"/>
      <point x="535.9527675" y="701.22"/>
      <point x="812.7" y="701.22" type="curve"/>
    </contour>
    <contour>
      <point x="476.275" y="252.518"/>
      <point x="462.625" y="271.22"/>
      <point x="476.275" y="252.518" type="curve"/>
      <point x="591.760254981" y="306.798829157"/>
      <point x="668.2" y="383.059673749"/>
      <point x="668.2" y="508.791444444" type="curve"/>
      <point x="668.2" y="575.934365601"/>
      <point x="668.2" y="643.079301066"/>
      <point x="668.2" y="710.222222222" type="curve"/>
      <point x="645.1" y="710.222222222"/>
      <point x="668.2" y="710.222222222"/>
      <point x="645.1" y="710.222222222" type="curve"/>
      <point x="645.1" y="642.040311456"/>
      <point x="645.1" y="573.856355211"/>
      <point x="645.1" y="505.674444444" type="curve"/>
      <point x="645.1" y="389.275175203"/>
      <point x="570.447508852" y="321.317000481"/>
      <point x="462.625" y="271.22" type="curve"/>
    </contour>
  </outline>
</glyph>
<glyph name="dvE" format="1">
  <advance width="805"/>
  <unicode hex="090F"/>
  <outline>
    <contour>
      <point x="476.275" y="252.518"/>
      <point x="462.625" y="271.22"/>
      <point x="476.275" y="252.518" type="curve"/>
      <point x="591.760254981" y="306.798829157"/>
      <point x="668.2" y="383.059673749"/>
      <point x="668.2" y="508.791444444" type="curve"/>
      <point x="668.2" y="575.934365601"/>
      <point x="668.2" y="643.079301066"/>
      <point x="668.2" y="710.222222222" type="curve"/>
      <point x="645.1" y="710.222222222"/>
      <point x="668.2" y="710.222222222"/>
      <point x="645.1" y="710.222222222" type="curve"/>
      <point x="645.1" y="642.040311456"/>
      <point x="645.1" y="573.856355211"/>
      <point x="645.1" y="505.674444444" type="curve"/>
      <point x="645.1" y="389.275175203"/>
      <point x="570.447508852" y="321.317000481"/>
      <point x="462.625" y="271.22" type="curve"/>
    </contour>
    <contour>
      <point x="812.7" y="722"/>
      <point x="812.7" y="701.22"/>
      <point x="812.7" y="722" type="curve"/>
      <point x="535.9527675" y="722"/>
      <point x="259.1972325" y="722"/>
      <point x="-17.55" y="722" type="curve"/>
      <point x="-17.55" y="701.22"/>
      <point x="-17.55" y="722"/>
      <point x="-17.55" y="701.22" type="curve"/>
      <point x="259.1972325" y="701.22"/>
      <point x="535.9527675" y="701.22"/>
      <point x="812.7" y="701.22" type="curve"/>
    </contour>
    <contour>
      <point x="593.125" y="9.58666666667"/>
      <point x="585.775" y="-11.1933333333"/>
      <point x="593.125" y="9.58666666667" type="curve"/>
      <point x="350.852808979" y="84.2290307487"/>
      <point x="157.9" y="193.172989782"/>
      <point x="157.9" y="433.998222222" type="curve"/>
      <point x="157.9" y="526.071968142"/>
      <point x="157.9" y="618.148476302"/>
      <point x="157.9" y="710.222222222" type="curve"/>
      <point x="134.8" y="710.222222222"/>
      <point x="157.9" y="710.222222222"/>
      <point x="134.8" y="710.222222222" type="curve"/>
      <point x="134.8" y="616.763156822"/>
      <point x="134.8" y="523.301287622"/>
      <point x="134.8" y="429.842222222" type="curve"/>
      <point x="134.8" y="179.680268688"/>
      <point x="332.555599073" y="62.1011425215"/>
      <point x="585.775" y="-11.1933333333" type="curve"/>
    </contour>
  </outline>
</glyph>
<glyph name="dvJHA" format="1">
  <advance width="1198"/>
  <unicode hex="091D"/>
  <outline>
    <contour>
      <point x="988.2" y="0"/>
      <point x="988.2" y="20.78"/>
      <point x="988.2" y="0" type="curve"/>
      <point x="1050.0493815" y="0"/>
      <point x="1111.9006185" y="0"/>
      <point x="1173.75" y="0" type="curve"/>
      <point x="1173.75" y="21.56"/>
      <point x="1173.75" y="0"/>
      <point x="1173.75" y="21.56" type="curve"/>
      <point x="988.2" y="20.78"/>
      <point x="1173.75" y="21.56"/>
      <point x="988.2" y="20.78" type="curve"/>
    </contour>
    <contour>
      <point x="988.2" y="21.56"/>
      <point x="988.2" y="0.78"/>
      <point x="988.2" y="21.56" type="curve"/>
      <point x="789.15" y="21.56"/>
      <point x="988.2" y="21.56"/>
      <point x="789.15" y="21.56" type="curve"/>
      <point x="789.15" y="0.78"/>
      <point x="789.15" y="21.56"/>
      <point x="789.15" y="0.78" type="curve"/>
      <point x="855.4993365" y="0.78"/>
      <point x="921.8506635" y="0.78"/>
      <point x="988.2" y="0.78" type="curve"/>
    </contour>
    <contour>
      <point x="1210" y="722"/>
      <point x="1210" y="701"/>
      <point x="1210" y="722" type="curve"/>
      <point x="815" y="722"/>
      <point x="379.3460445" y="722"/>
      <point x="-16.2" y="722" type="curve"/>
      <point x="-16.2" y="701.22"/>
      <point x="-16.2" y="722"/>
      <point x="-16.2" y="701.22" type="curve"/>
      <point x="379.3460445" y="701.22"/>
      <point x="815" y="701"/>
      <point x="1210" y="701" type="curve"/>
    </contour>
    <contour>
      <point x="560.2" y="521.837777778"/>
      <point x="537.1" y="542.617777778"/>
      <point x="560.2" y="521.837777778" type="curve"/>
      <point x="560.2" y="584.631964644"/>
      <point x="560.2" y="647.428035356"/>
      <point x="560.2" y="710.222222222" type="curve"/>
      <point x="537.1" y="710.222222222"/>
      <point x="560.2" y="710.222222222"/>
      <point x="537.1" y="710.222222222" type="curve"/>
      <point x="537.1" y="654.354632756"/>
      <point x="537.1" y="598.485367244"/>
      <point x="537.1" y="542.617777778" type="curve"/>
    </contour>
    <contour>
      <point x="536" y="543.397777778"/>
      <point x="559.1" y="522.617777778"/>
      <point x="536" y="543.397777778" type="curve"/>
      <point x="450.934184" y="543.397777778"/>
      <point x="365.865816" y="543.397777778"/>
      <point x="280.8" y="543.397777778" type="curve"/>
      <point x="161.89450164" y="543.397777778"/>
      <point x="66.2" y="524.071596734"/>
      <point x="66.2" y="416.875555556" type="curve"/>
      <point x="66.2" y="334.897329657"/>
      <point x="122.296718721" y="300.349573282"/>
      <point x="196.125" y="266.206111111" type="curve"/>
      <point x="199.275" y="292.181111111"/>
      <point x="196.125" y="266.206111111"/>
      <point x="199.275" y="292.181111111" type="curve"/>
      <point x="141.208877187" y="324.289539031"/>
      <point x="89.3" y="348.44396358"/>
      <point x="89.3" y="416.875555556" type="curve"/>
      <point x="89.3" y="511.277568315"/>
      <point x="176.658678788" y="522.617777778"/>
      <point x="280.8" y="522.617777778" type="curve"/>
      <point x="373.565739" y="522.617777778"/>
      <point x="466.334261" y="522.617777778"/>
      <point x="559.1" y="522.617777778" type="curve"/>
    </contour>
    <contour>
      <point x="196.125" y="266.206111111"/>
      <point x="199.275" y="292.181111111"/>
      <point x="196.125" y="266.206111111" type="curve"/>
      <point x="287.506546426" y="297.936887449"/>
      <point x="346.222897417" y="309.136891656"/>
      <point x="443.05" y="309.311111111" type="curve"/>
      <point x="542.760317787" y="309.311111111"/>
      <point x="619.50636122" y="286.781246424"/>
      <point x="619.7" y="197.364444444" type="curve"/>
      <point x="619.7" y="65.9011768231"/>
      <point x="496.734119995" y="49.4977777778"/>
      <point x="345.6" y="49.4977777778" type="curve"/>
      <point x="242.953139935" y="49.4977777778"/>
      <point x="164.351219708" y="57.0370516225"/>
      <point x="131.4" y="150.032666667" type="curve"/>
      <point x="112.5" y="135.486666667"/>
      <point x="131.4" y="150.032666667"/>
      <point x="112.5" y="135.486666667" type="curve"/>
      <point x="144.469055459" y="33.0013596981"/>
      <point x="232.337121422" y="28.7177777778"/>
      <point x="345.6" y="28.7177777778" type="curve"/>
      <point x="511.460755837" y="28.7177777778"/>
      <point x="642.8" y="54.0032523535"/>
      <point x="642.8" y="197.364444444" type="curve"/>
      <point x="641.431775652" y="297.526050777"/>
      <point x="558.359747449" y="330.091111111"/>
      <point x="445.15" y="330.091111111" type="curve"/>
      <point x="349.321732625" y="331.249608051"/>
      <point x="288.171102667" y="322.97156741"/>
      <point x="199.275" y="292.181111111" type="curve"/>
    </contour>
    <contour>
      <point x="111.6" y="134.940666667"/>
      <point x="130.5" y="149.486666667"/>
      <point x="111.6" y="134.940666667" type="curve"/>
      <point x="215.604406347" y="43.1010638907"/>
      <point x="319.695593653" y="-48.6465083351"/>
      <point x="423.7" y="-140.486111111" type="curve"/>
      <point x="444.7" y="-124.901111111"/>
      <point x="423.7" y="-140.486111111"/>
      <point x="444.7" y="-124.901111111" type="curve"/>
      <point x="339.918921909" y="-33.4953197551"/>
      <point x="235.281078091" y="58.0808753107"/>
      <point x="130.5" y="149.486666667" type="curve"/>
    </contour>
    <contour>
      <point x="444.275" y="313.462666667"/>
      <point x="445.325" y="330.086666667"/>
      <point x="444.275" y="313.462666667" type="curve"/>
      <point x="509.207652463" y="307.666224351"/>
      <point x="623.153916153" y="284.366666667"/>
      <point x="738.7" y="284.366666667" type="curve"/>
      <point x="832.667432928" y="284.192796492"/>
      <point x="944.141109308" y="303.784787322"/>
      <point x="991.0" y="334.416" type="curve"/>
      <point x="980.5" y="351.04"/>
      <point x="991.0" y="334.416"/>
      <point x="980.5" y="351.04" type="curve"/>
      <point x="925.461048977" y="322.533504352"/>
      <point x="832.466067836" y="306.305517424"/>
      <point x="740.8" y="305.146666667" type="curve"/>
      <point x="629.273410285" y="305.146666667"/>
      <point x="523.287654763" y="329.893329555"/>
      <point x="445.325" y="330.086666667" type="curve"/>
    </contour>
    <contour>
      <point x="974.75" y="709.224444444"/>
      <point x="997.85" y="709.224444444"/>
      <point x="974.75" y="709.224444444" type="curve"/>
      <point x="974.75" y="473.086065111"/>
      <point x="974.75" y="236.940601556"/>
      <point x="974.75" y="0.802222222222" type="curve"/>
      <point x="997.85" y="0.802222222222"/>
      <point x="974.75" y="0.802222222222"/>
      <point x="997.85" y="0.802222222222" type="curve"/>
      <point x="997.85" y="236.940601556"/>
      <point x="997.85" y="473.086065111"/>
      <point x="997.85" y="709.224444444" type="curve"/>
    </contour>
  </outline>
</glyph>
<glyph name="dvDDA" format="1">
  <advance width="753"/>
  <unicode hex="0921"/>
  <outline>
    <contour>
      <point x="196.125" y="256.228333333"/>
      <point x="199.275" y="282.203333333"/>
      <point x="196.125" y="256.228333333" type="curve"/>
      <point x="279.718571529" y="281.494247798"/>
      <point x="335.39720405" y="299.160636003"/>
      <point x="421.45" y="299.333333333" type="curve"/>
      <point x="538.888429364" y="299.333333333"/>
      <point x="619.511901601" y="256.963750434"/>
      <point x="619.7" y="159.448888889" type="curve"/>
      <point x="619.7" y="30.9813993905"/>
      <point x="495.436468663" y="11.6223333333"/>
      <point x="345.6" y="11.6223333333" type="curve"/>
      <point x="240.096049018" y="11.6223333333"/>
      <point x="171.396873838" y="31.9081197552"/>
      <point x="81.7" y="87.1726666667" type="curve"/>
      <point x="64.9" y="72.6266666667"/>
      <point x="81.7" y="87.1726666667"/>
      <point x="64.9" y="72.6266666667" type="curve"/>
      <point x="157.292716482" y="7.26568879864"/>
      <point x="232.983536991" y="-10.1966666667"/>
      <point x="345.6" y="-10.1966666667" type="curve"/>
      <point x="508.870730762" y="-10.1966666667"/>
      <point x="642.8" y="18.3231170825"/>
      <point x="642.8" y="159.448888889" type="curve"/>
      <point x="641.454450634" y="270.34666064"/>
      <point x="553.157670712" y="320.113333333"/>
      <point x="423.55" y="320.113333333" type="curve"/>
      <point x="337.139124724" y="321.269279773"/>
      <point x="281.867138969" y="307.693384708"/>
      <point x="199.275" y="282.203333333" type="curve"/>
    </contour>
    <contour>
      <point x="-20.25" y="700.44"/>
      <point x="-20.25" y="721.22"/>
      <point x="-20.25" y="700.44" type="curve"/>
      <point x="246.5973315" y="700.44"/>
      <point x="513.4526685" y="700.44"/>
      <point x="780.3" y="700.44" type="curve"/>
      <point x="780.3" y="721.22"/>
      <point x="780.3" y="700.44"/>
      <point x="780.3" y="721.22" type="curve"/>
      <point x="513.4526685" y="721.22"/>
      <point x="246.5973315" y="721.22"/>
      <point x="-20.25" y="721.22" type="curve"/>
    </contour>
    <contour>
      <point x="536" y="543.397777778"/>
      <point x="559.1" y="522.617777778"/>
      <point x="536" y="543.397777778" type="curve"/>
      <point x="450.934184" y="543.397777778"/>
      <point x="365.865816" y="543.397777778"/>
      <point x="280.8" y="543.397777778" type="curve"/>
      <point x="161.295510475" y="543.397777778"/>
      <point x="66.2" y="512.282843061"/>
      <point x="66.2" y="406.897777778" type="curve"/>
      <point x="66.2" y="327.157400599"/>
      <point x="121.021677464" y="291.355272772"/>
      <point x="196.125" y="256.228333333" type="curve"/>
      <point x="199.275" y="282.203333333"/>
      <point x="196.125" y="256.228333333"/>
      <point x="199.275" y="282.203333333" type="curve"/>
      <point x="138.741992223" y="315.168488236"/>
      <point x="89.3" y="339.630106617"/>
      <point x="89.3" y="406.897777778" type="curve"/>
      <point x="89.3" y="499.175128849"/>
      <point x="174.764035351" y="522.617777778"/>
      <point x="280.8" y="522.617777778" type="curve"/>
      <point x="373.565739" y="522.617777778"/>
      <point x="466.334261" y="522.617777778"/>
      <point x="559.1" y="522.617777778" type="curve"/>
    </contour>
    <contour>
      <point x="560.2" y="521.837777778"/>
      <point x="537.1" y="542.617777778"/>
      <point x="560.2" y="521.837777778" type="curve"/>
      <point x="560.2" y="584.631964644"/>
      <point x="560.2" y="647.428035356"/>
      <point x="560.2" y="710.222222222" type="curve"/>
      <point x="537.1" y="710.222222222"/>
      <point x="560.2" y="710.222222222"/>
      <point x="537.1" y="710.222222222" type="curve"/>
      <point x="537.1" y="654.354632756"/>
      <point x="537.1" y="598.485367244"/>
      <point x="537.1" y="542.617777778" type="curve"/>
    </contour>
  </outline>
</glyph>
<glyph name="dvNNA" format="1">
  <advance width="1107"/>
  <unicode hex="0923"/>
  <outline>
    <contour>
      <point x="905" y="0"/>
      <point x="905" y="21"/>
      <point x="905" y="0" type="curve"/>
      <point x="966" y="0"/>
      <point x="1028" y="0"/>
      <point x="1090" y="0" type="curve"/>
      <point x="1090" y="22"/>
      <point x="1090" y="0"/>
      <point x="1090" y="22" type="curve"/>
      <point x="905" y="21"/>
      <point x="1090" y="22"/>
      <point x="905" y="21" type="curve"/>
    </contour>
    <contour>
      <point x="905" y="22"/>
      <point x="905" y="1"/>
      <point x="905" y="22" type="curve"/>
      <point x="706" y="22"/>
      <point x="905" y="22"/>
      <point x="706" y="22" type="curve"/>
      <point x="706" y="1"/>
      <point x="706" y="22"/>
      <point x="706" y="1" type="curve"/>
      <point x="772" y="1"/>
      <point x="838" y="1"/>
      <point x="905" y="1" type="curve"/>
    </contour>
    <contour>
      <point x="1117" y="722"/>
      <point x="1117" y="701"/>
      <point x="1117" y="722" type="curve"/>
      <point x="755" y="722"/>
      <point x="360" y="722"/>
      <point x="-3" y="722" type="curve"/>
      <point x="-3" y="701"/>
      <point x="-3" y="722"/>
      <point x="-3" y="701" type="curve"/>
      <point x="360" y="701"/>
      <point x="755" y="701"/>
      <point x="1117" y="701" type="curve"/>
    </contour>
    <contour>
      <point x="139" y="709"/>
      <point x="162" y="709"/>
      <point x="139" y="709" type="curve"/>
      <point x="139" y="606"/>
      <point x="139" y="503"/>
      <point x="139" y="400" type="curve"/>
      <point x="139" y="276"/>
      <point x="244" y="212"/>
      <point x="378" y="212" type="curve"/>
      <point x="512" y="212"/>
      <point x="616" y="278"/>
      <point x="616" y="400" type="curve"/>
      <point x="616" y="503"/>
      <point x="616" y="606"/>
      <point x="616" y="709" type="curve"/>
      <point x="593" y="709"/>
      <point x="616" y="709"/>
      <point x="593" y="709" type="curve"/>
      <point x="593" y="605"/>
      <point x="593" y="501"/>
      <point x="593" y="397" type="curve"/>
      <point x="593" y="287"/>
      <point x="498" y="232"/>
      <point x="378" y="232" type="curve"/>
      <point x="259" y="232"/>
      <point x="162" y="288"/>
      <point x="162" y="397" type="curve"/>
      <point x="162" y="501"/>
      <point x="162" y="605"/>
      <point x="162" y="709" type="curve"/>
    </contour>
    <contour>
      <point x="893" y="710"/>
      <point x="916" y="710"/>
      <point x="893" y="710" type="curve"/>
      <point x="893" y="473"/>
      <point x="893" y="237"/>
      <point x="893" y="0" type="curve"/>
      <point x="916" y="0"/>
      <point x="893" y="0"/>
      <point x="916" y="0" type="curve"/>
      <point x="916" y="237"/>
      <point x="916" y="473"/>
      <point x="916" y="710" type="curve"/>
    </contour>
  </outline>
</glyph>
<glyph name="dvTA" format="1">
  <advance width="890"/>
  <unicode hex="0924"/>
  <outline>
    <contour>
      <point x="374" y="17"/>
      <point x="363" y="-1"/>
      <point x="374" y="17" type="curve"/>
      <point x="233" y="68"/>
      <point x="126" y="130"/>
      <point x="126" y="257" type="curve"/>
      <point x="126" y="400"/>
      <point x="242" y="447"/>
      <point x="369" y="447" type="curve"/>
      <point x="474" y="447"/>
      <point x="579" y="447"/>
      <point x="685" y="447" type="curve"/>
      <point x="685" y="468"/>
      <point x="685" y="447"/>
      <point x="685" y="468" type="curve"/>
      <point x="579" y="468"/>
      <point x="473" y="468"/>
      <point x="368" y="468" type="curve"/>
      <point x="228" y="468"/>
      <point x="103" y="413"/>
      <point x="103" y="257" type="curve"/>
      <point x="103" y="122"/>
      <point x="209" y="51"/>
      <point x="363" y="-1" type="curve"/>
    </contour>
    <contour>
      <point x="686" y="0"/>
      <point x="686" y="21"/>
      <point x="686" y="0" type="curve"/>
      <point x="748" y="0"/>
      <point x="810" y="0"/>
      <point x="872" y="0" type="curve"/>
      <point x="872" y="22"/>
      <point x="872" y="0"/>
      <point x="872" y="22" type="curve"/>
      <point x="686" y="21"/>
      <point x="872" y="22"/>
      <point x="686" y="21" type="curve"/>
    </contour>
    <contour>
      <point x="696" y="0"/>
      <point x="672" y="0"/>
      <point x="696" y="0" type="curve"/>
      <point x="696" y="237"/>
      <point x="696" y="473"/>
      <point x="696" y="710" type="curve"/>
      <point x="672" y="710"/>
      <point x="696" y="710"/>
      <point x="672" y="710" type="curve"/>
      <point x="672" y="473"/>
      <point x="672" y="237"/>
      <point x="672" y="0" type="curve"/>
    </contour>
    <contour>
      <point x="-17" y="704"/>
      <point x="-17" y="718"/>
      <point x="-17" y="700" type="curve"/>
      <point x="279" y="700"/>
      <point x="606" y="700"/>
      <point x="902" y="700" type="curve"/>
      <point x="902" y="718"/>
      <point x="902" y="704"/>
      <point x="902" y="722" type="curve"/>
      <point x="606" y="722"/>
      <point x="279" y="722"/>
      <point x="-17" y="722" type="curve"/>
    </contour>
  </outline>
</glyph>
<glyph name="dvDA" format="1">
  <advance width="786"/>
  <unicode hex="0926"/>
  <outline>
    <contour>
      <point x="712" y="-55"/>
      <point x="688" y="-64"/>
      <point x="712" y="-55" type="curve"/>
      <point x="653" y="55"/>
      <point x="594" y="164"/>
      <point x="534" y="274" type="curve"/>
      <point x="513" y="262"/>
      <point x="534" y="274"/>
      <point x="513" y="262" type="curve"/>
      <point x="572" y="153"/>
      <point x="630" y="45"/>
      <point x="688" y="-64" type="curve"/>
    </contour>
    <contour>
      <point x="808" y="722"/>
      <point x="808" y="701"/>
      <point x="808" y="722" type="curve"/>
      <point x="534" y="722"/>
      <point x="260" y="722"/>
      <point x="-14" y="722" type="curve"/>
      <point x="-14" y="701"/>
      <point x="-14" y="722"/>
      <point x="-14" y="701" type="curve"/>
      <point x="260" y="701"/>
      <point x="534" y="701"/>
      <point x="808" y="701" type="curve"/>
    </contour>
    <contour>
      <point x="594" y="524"/>
      <point x="571" y="544"/>
      <point x="594" y="524" type="curve"/>
      <point x="594" y="586"/>
      <point x="594" y="648"/>
      <point x="594" y="710" type="curve"/>
      <point x="571" y="710"/>
      <point x="594" y="710"/>
      <point x="571" y="710" type="curve"/>
      <point x="571" y="655"/>
      <point x="571" y="599"/>
      <point x="571" y="544" type="curve"/>
    </contour>
    <contour>
      <point x="571" y="544"/>
      <point x="594" y="524"/>
      <point x="571" y="544" type="curve"/>
      <point x="527" y="544"/>
      <point x="483" y="544"/>
      <point x="438" y="544" type="curve"/>
      <point x="259" y="544"/>
      <point x="102" y="482"/>
      <point x="102" y="327" type="curve"/>
      <point x="102" y="174"/>
      <point x="239" y="96"/>
      <point x="401" y="96" type="curve"/>
      <point x="501" y="96"/>
      <point x="599" y="106"/>
      <point x="599" y="185" type="curve"/>
      <point x="599" y="233"/>
      <point x="569" y="268"/>
      <point x="534" y="274" type="curve"/>
      <point x="513" y="262"/>
      <point x="534" y="274"/>
      <point x="513" y="262" type="curve"/>
      <point x="546" y="253"/>
      <point x="575" y="206"/>
      <point x="575" y="183" type="curve"/>
      <point x="575" y="123"/>
      <point x="481" y="117"/>
      <point x="403" y="117" type="curve"/>
      <point x="254" y="117"/>
      <point x="125" y="188"/>
      <point x="125" y="329" type="curve"/>
      <point x="125" y="471"/>
      <point x="274" y="524"/>
      <point x="438" y="524" type="curve"/>
      <point x="490" y="524"/>
      <point x="542" y="524"/>
      <point x="594" y="524" type="curve"/>
    </contour>
  </outline>
</glyph>
<glyph name="dvDHA" format="1">
  <advance width="910.0"/>
  <unicode hex="0927"/>
  <outline>
    <contour>
      <point x="710" y="0"/>
      <point x="710" y="21"/>
      <point x="710" y="0" type="curve"/>
      <point x="772" y="0"/>
      <point x="834" y="0"/>
      <point x="896" y="0" type="curve"/>
      <point x="896" y="22"/>
      <point x="896" y="0"/>
      <point x="896" y="22" type="curve"/>
      <point x="710" y="21"/>
      <point x="896" y="22"/>
      <point x="710" y="21" type="curve"/>
    </contour>
    <contour>
      <point x="710" y="22"/>
      <point x="710" y="1"/>
      <point x="710" y="22" type="curve"/>
      <point x="511" y="22"/>
      <point x="710" y="22"/>
      <point x="511" y="22" type="curve"/>
      <point x="511" y="1"/>
      <point x="511" y="22"/>
      <point x="511" y="1" type="curve"/>
      <point x="578" y="1"/>
      <point x="644" y="1"/>
      <point x="710" y="1" type="curve"/>
    </contour>
    <contour>
      <point x="918" y="722"/>
      <point x="918" y="701"/>
      <point x="918" y="722" type="curve"/>
      <point x="850" y="722"/>
      <point x="773" y="722"/>
      <point x="706" y="722" type="curve"/>
      <point x="706" y="701"/>
      <point x="706" y="722"/>
      <point x="706" y="701" type="curve"/>
      <point x="773" y="701"/>
      <point x="850" y="701"/>
      <point x="918" y="701" type="curve"/>
    </contour>
    <contour>
      <point x="702" y="313"/>
      <point x="718" y="304"/>
      <point x="702" y="313" type="curve"/>
      <point x="643" y="185"/>
      <point x="533" y="153"/>
      <point x="404" y="153" type="curve"/>
      <point x="261" y="153"/>
      <point x="124" y="170"/>
      <point x="126" y="291" type="curve"/>
      <point x="127" y="421"/>
      <point x="277" y="427"/>
      <point x="428" y="427" type="curve"/>
      <point x="428" y="445"/>
      <point x="428" y="427"/>
      <point x="428" y="445" type="curve"/>
      <point x="264" y="445"/>
      <point x="103" y="431"/>
      <point x="103" y="290" type="curve"/>
      <point x="102" y="159"/>
      <point x="249" y="132"/>
      <point x="402" y="132" type="curve"/>
      <point x="540" y="132"/>
      <point x="657" y="167"/>
      <point x="718" y="304" type="curve"/>
    </contour>
    <contour>
      <point x="723" y="0"/>
      <point x="699" y="0"/>
      <point x="723" y="0" type="curve"/>
      <point x="723" y="241"/>
      <point x="723" y="481"/>
      <point x="723" y="722" type="curve"/>
      <point x="699" y="722"/>
      <point x="723" y="722"/>
      <point x="699" y="722" type="curve"/>
      <point x="699" y="481"/>
      <point x="699" y="241"/>
      <point x="699" y="0" type="curve"/>
    </contour>
    <contour>
      <point x="449" y="535"/>
      <point x="435" y="548"/>
      <point x="449" y="535" type="curve"/>
      <point x="475" y="555"/>
      <point x="488" y="580"/>
      <point x="488" y="612" type="curve"/>
      <point x="488" y="695"/>
      <point x="403" y="727"/>
      <point x="309" y="727" type="curve"/>
      <point x="205" y="727"/>
      <point x="118" y="679"/>
      <point x="118" y="585" type="curve"/>
      <point x="118" y="444"/>
      <point x="272" y="427"/>
      <point x="428" y="427" type="curve"/>
      <point x="428" y="445"/>
      <point x="428" y="427"/>
      <point x="428" y="445" type="curve"/>
      <point x="283" y="445"/>
      <point x="139" y="455"/>
      <point x="141" y="586" type="curve"/>
      <point x="142" y="667"/>
      <point x="218" y="706"/>
      <point x="307" y="706" type="curve"/>
      <point x="391" y="706"/>
      <point x="467" y="682"/>
      <point x="467" y="609" type="curve"/>
      <point x="467" y="584"/>
      <point x="454" y="565"/>
      <point x="435" y="548" type="curve"/>
    </contour>
  </outline>
</glyph>
<glyph name="dvNA" format="1">
  <advance width="856"/>
  <unicode hex="0928"/>
  <outline>
    <contour>
      <point x="657.45" y="21.56"/>
      <point x="657.45" y="0.78"/>
      <point x="657.45" y="21.56" type="curve"/>
      <point x="458.4" y="21.56"/>
      <point x="657.45" y="21.56"/>
      <point x="458.4" y="21.56" type="curve"/>
      <point x="458.4" y="0.78"/>
      <point x="458.4" y="21.56"/>
      <point x="458.4" y="0.78" type="curve"/>
      <point x="524.7493365" y="0.78"/>
      <point x="591.1006635" y="0.78"/>
      <point x="657.45" y="0.78" type="curve"/>
    </contour>
    <contour>
      <point x="657.45" y="0"/>
      <point x="657.45" y="20.78"/>
      <point x="657.45" y="0" type="curve"/>
      <point x="719.2993815" y="0"/>
      <point x="781.1506185" y="0"/>
      <point x="843" y="0" type="curve"/>
      <point x="843" y="21.56"/>
      <point x="843" y="0"/>
      <point x="843" y="21.56" type="curve"/>
      <point x="657.45" y="20.78"/>
      <point x="843" y="21.56"/>
      <point x="657.45" y="20.78" type="curve"/>
    </contour>
    <contour>
      <point x="871" y="722"/>
      <point x="871" y="701"/>
      <point x="871" y="722" type="curve"/>
      <point x="575" y="722"/>
      <point x="279.530376" y="722.0"/>
      <point x="-16.2" y="722" type="curve"/>
      <point x="-16.2" y="701.22"/>
      <point x="-16" y="722"/>
      <point x="-16" y="701" type="curve"/>
      <point x="279.666666667" y="701.0"/>
      <point x="575" y="701"/>
      <point x="871" y="701" type="curve"/>
    </contour>
    <contour>
      <point x="645.35" y="710"/>
      <point x="668.45" y="710"/>
      <point x="645.35" y="710" type="curve"/>
      <point x="645.35" y="473.3357"/>
      <point x="645.35" y="236.6643"/>
      <point x="645.35" y="1.45213821436e-15" type="curve"/>
      <point x="668.45" y="-2.69413397841e-15"/>
      <point x="645.35" y="1.45213821436e-15"/>
      <point x="668.45" y="-2.69413397841e-15" type="curve"/>
      <point x="668.45" y="236.6643"/>
      <point x="668.45" y="473.3357"/>
      <point x="668.45" y="710" type="curve"/>
    </contour>
    <contour>
      <point x="279.575" y="390.291555556"/>
      <point x="280.625" y="406.915555556"/>
      <point x="279.575" y="390.291555556" type="curve"/>
      <point x="347.907197504" y="390.291555556"/>
      <point x="408" y="359"/>
      <point x="408" y="297" type="curve"/>
      <point x="408" y="236"/>
      <point x="345.575802576" y="208.144444444"/>
      <point x="276.625" y="208.144444444" type="curve"/>
      <point x="212.247251044" y="208.144444444"/>
      <point x="156.55" y="239.254152442"/>
      <point x="156.55" y="297.182333333" type="curve"/>
      <point x="156.55" y="357.002960761"/>
      <point x="212.811269775" y="390.131111111"/>
      <point x="278.225" y="390.131111111" type="curve"/>
      <point x="406.43205125" y="390.131111111"/>
      <point x="534.64294875" y="390.131111111"/>
      <point x="662.85" y="390.131111111" type="curve"/>
      <point x="662.85" y="410.911111111"/>
      <point x="662.85" y="390.131111111"/>
      <point x="662.85" y="410.911111111" type="curve"/>
      <point x="534.99294525" y="410.911111111"/>
      <point x="407.13205475" y="410.911111111"/>
      <point x="279.275" y="410.911111111" type="curve"/>
      <point x="200.215321357" y="410.911111111"/>
      <point x="133.45" y="369.536600461"/>
      <point x="133.45" y="296.143333333" type="curve"/>
      <point x="133.45" y="225.693628688"/>
      <point x="198.598227879" y="187.364444444"/>
      <point x="275.575" y="187.364444444" type="curve"/>
      <point x="358.154424933" y="187.364444444"/>
      <point x="431" y="223"/>
      <point x="431" y="297" type="curve"/>
      <point x="431" y="369"/>
      <point x="360.541253606" y="406.915555556"/>
      <point x="280.625" y="406.915555556" type="curve"/>
    </contour>
  </outline>
</glyph>
<glyph name="dvBHA" format="1">
  <advance width="1015"/>
  <unicode hex="092D"/>
  <outline>
    <contour>
      <point x="815.4" y="21.56"/>
      <point x="815.4" y="0.78"/>
      <point x="815.4" y="21.56" type="curve"/>
      <point x="616.35" y="21.56"/>
      <point x="815.4" y="21.56"/>
      <point x="616.35" y="21.56" type="curve"/>
      <point x="616.35" y="0.78"/>
      <point x="616.35" y="21.56"/>
      <point x="616.35" y="0.78" type="curve"/>
      <point x="682.6993365" y="0.78"/>
      <point x="749.0506635" y="0.78"/>
      <point x="815.4" y="0.78" type="curve"/>
    </contour>
    <contour>
      <point x="815.4" y="0"/>
      <point x="815.4" y="20.78"/>
      <point x="815.4" y="0" type="curve"/>
      <point x="877.2493815" y="0"/>
      <point x="939.1006185" y="0"/>
      <point x="1000.95" y="0" type="curve"/>
      <point x="1000.95" y="21.56"/>
      <point x="1000.95" y="0"/>
      <point x="1000.95" y="21.56" type="curve"/>
      <point x="815.4" y="20.78"/>
      <point x="1000.95" y="21.56"/>
      <point x="815.4" y="20.78" type="curve"/>
    </contour>
    <contour>
      <point x="824.8" y="0"/>
      <point x="801.7" y="1.3470669892e-15"/>
      <point x="824.8" y="0" type="curve"/>
      <point x="824.8" y="240.66426"/>
      <point x="824.8" y="481.33574"/>
      <point x="824.8" y="722" type="curve"/>
      <point x="801.7" y="722"/>
      <point x="824.8" y="722"/>
      <point x="801.7" y="722" type="curve"/>
      <point x="801.7" y="481.33574"/>
      <point x="801.7" y="240.66426"/>
      <point x="801.7" y="1.3470669892e-15" type="curve"/>
    </contour>
    <contour>
      <point x="808" y="701"/>
      <point x="808" y="722"/>
      <point x="808" y="701" type="curve"/>
      <point x="881" y="701"/>
      <point x="954" y="701"/>
      <point x="1027" y="701" type="curve"/>
      <point x="1027" y="722"/>
      <point x="1027" y="701"/>
      <point x="1027" y="722" type="curve"/>
      <point x="954" y="722"/>
      <point x="881" y="722"/>
      <point x="808" y="722" type="curve"/>
    </contour>
    <contour>
      <point x="808.65" y="343.842222222"/>
      <point x="808.65" y="323.062222222"/>
      <point x="808.65" y="343.842222222" type="curve"/>
      <point x="635.81006175" y="343.842222222"/>
      <point x="462.96493825" y="343.842222222"/>
      <point x="290.125" y="343.842222222" type="curve"/>
      <point x="209.261572485" y="343.842222222"/>
      <point x="139.225" y="312.703778667"/>
      <point x="139.225" y="240.228777778" type="curve"/>
      <point x="139.225" y="173.100914451"/>
      <point x="197.926157674" y="136.695555556"/>
      <point x="270.125" y="136.695555556" type="curve"/>
      <point x="351.773337183" y="136.695555556"/>
      <point x="417.1" y="180.52064877"/>
      <point x="417.1" y="257.231111111" type="curve"/>
      <point x="417.1" y="368.648515444"/>
      <point x="417.1" y="480.069262333"/>
      <point x="417.1" y="591.486666667" type="curve"/>
      <point x="417.1" y="678.714239189"/>
      <point x="341.363616116" y="727"/>
      <point x="246.925" y="727" type="curve"/>
      <point x="159.571330001" y="727"/>
      <point x="86.4657621289" y="686.836250169"/>
      <point x="84.85" y="605.415444444" type="curve"/>
      <point x="84.85" y="565.632338175"/>
      <point x="103.683025696" y="536.543349447"/>
      <point x="136.5" y="514.136333333" type="curve"/>
      <point x="149.1" y="527.643333333"/>
      <point x="136.5" y="514.136333333"/>
      <point x="149.1" y="527.643333333" type="curve"/>
      <point x="122.114597808" y="547.631434234"/>
      <point x="105.85" y="573.154785605"/>
      <point x="105.85" y="606.454444444" type="curve"/>
      <point x="107.422282479" y="674.50858156"/>
      <point x="170.892649016" y="706.22"/>
      <point x="245.875" y="706.22" type="curve"/>
      <point x="327.834360547" y="706.22"/>
      <point x="394" y="666.275418449"/>
      <point x="394" y="591.486666667" type="curve"/>
      <point x="394" y="480.069262333"/>
      <point x="394" y="368.648515444"/>
      <point x="394" y="257.231111111" type="curve"/>
      <point x="394" y="193.135407615"/>
      <point x="339.044303239" y="157.475555556"/>
      <point x="271.175" y="157.475555556" type="curve"/>
      <point x="211.556750117" y="157.475555556"/>
      <point x="163.375" y="186.758315018"/>
      <point x="163.375" y="241.267777778" type="curve"/>
      <point x="163.375" y="300.412992719"/>
      <point x="221.629876364" y="323.062222222"/>
      <point x="289.075" y="323.062222222" type="curve"/>
      <point x="462.26493475" y="323.062222222"/>
      <point x="635.46006525" y="323.062222222"/>
      <point x="808.65" y="323.062222222" type="curve"/>
    </contour>
  </outline>
</glyph>
<glyph name="dvLA" format="1">
  <advance width="1072"/>
  <unicode hex="0932"/>
  <outline>
    <contour>
      <point x="868.1" y="709.224444444"/>
      <point x="891.2" y="709.224444444"/>
      <point x="868.1" y="709.224444444" type="curve"/>
      <point x="868.1" y="473.086065111"/>
      <point x="868.1" y="236.940601556"/>
      <point x="868.1" y="0.802222222222" type="curve"/>
      <point x="891.2" y="0.802222222222"/>
      <point x="868.1" y="0.802222222222"/>
      <point x="891.2" y="0.802222222222" type="curve"/>
      <point x="891.2" y="236.940601556"/>
      <point x="891.2" y="473.086065111"/>
      <point x="891.2" y="709.224444444" type="curve"/>
    </contour>
    <contour>
      <point x="1081" y="722"/>
      <point x="1081" y="701"/>
      <point x="1081" y="722" type="curve"/>
      <point x="718" y="722"/>
      <point x="346.0463775" y="722"/>
      <point x="-16.2" y="722" type="curve"/>
      <point x="-16.2" y="701.22"/>
      <point x="-16.2" y="722"/>
      <point x="-16.2" y="701.22" type="curve"/>
      <point x="346.0463775" y="701.22"/>
      <point x="718" y="701"/>
      <point x="1081" y="701" type="curve"/>
    </contour>
    <contour>
      <point x="880.675" y="467.446333333"/>
      <point x="873.325" y="449.783333333"/>
      <point x="880.675" y="467.446333333" type="curve"/>
      <point x="824.229657994" y="494.476282732"/>
      <point x="774.984902254" y="510.471111111"/>
      <point x="709.85" y="510.471111111" type="curve"/>
      <point x="571.390504843" y="510.471111111"/>
      <point x="493.65" y="420.635238045"/>
      <point x="493.65" y="277.186666667" type="curve"/>
      <point x="512.55" y="277.186666667"/>
      <point x="493.65" y="277.186666667"/>
      <point x="512.55" y="277.186666667" type="curve"/>
      <point x="512.55" y="401.564396235"/>
      <point x="580.866975439" y="489.691111111"/>
      <point x="707.75" y="489.691111111" type="curve"/>
      <point x="770.869719882" y="489.691111111"/>
      <point x="816.569316993" y="478.184416734"/>
      <point x="873.325" y="449.783333333" type="curve"/>
    </contour>
    <contour>
      <point x="396.75" y="9.46633333333"/>
      <point x="384.15" y="-8.19666666667"/>
      <point x="396.75" y="9.46633333333" type="curve"/>
      <point x="243.86811068" y="88.5563569222"/>
      <point x="103.9" y="155.315405958"/>
      <point x="103.9" y="328.113444444" type="curve"/>
      <point x="103.9" y="436.40766093"/>
      <point x="187.493838873" y="491.904444444"/>
      <point x="295.9" y="491.904444444" type="curve"/>
      <point x="390.040947744" y="491.904444444"/>
      <point x="455.964500416" y="463.72172604"/>
      <point x="529.1" y="404.260444444" type="curve"/>
      <point x="539.6" y="420.884444444"/>
      <point x="529.1" y="404.260444444"/>
      <point x="539.6" y="420.884444444" type="curve"/>
      <point x="464.213385916" y="481.957915805"/>
      <point x="395.132229249" y="512.684444444"/>
      <point x="298" y="512.684444444" type="curve"/>
      <point x="174.561762036" y="512.684444444"/>
      <point x="80.8" y="449.071119535"/>
      <point x="80.8" y="327.074444444" type="curve"/>
      <point x="80.8" y="147.214664216"/>
      <point x="222.479837106" y="72.7738545985"/>
      <point x="384.15" y="-8.19666666667" type="curve"/>
    </contour>
    <contour>
      <point x="877.5" y="0"/>
      <point x="877.5" y="20.78"/>
      <point x="877.5" y="0" type="curve"/>
      <point x="939.3493815" y="0"/>
      <point x="1001.2006185" y="0"/>
      <point x="1063.05" y="0" type="curve"/>
      <point x="1063.05" y="21.56"/>
      <point x="1063.05" y="0"/>
      <point x="1063.05" y="21.56" type="curve"/>
      <point x="877.5" y="20.78"/>
      <point x="1063.05" y="21.56"/>
      <point x="877.5" y="20.78" type="curve"/>
    </contour>
    <contour>
      <point x="877.5" y="21.56"/>
      <point x="877.5" y="0.78"/>
      <point x="877.5" y="21.56" type="curve"/>
      <point x="678.45" y="21.56"/>
      <point x="877.5" y="21.56"/>
      <point x="678.45" y="21.56" type="curve"/>
      <point x="678.45" y="0.78"/>
      <point x="678.45" y="21.56"/>
      <point x="678.45" y="0.78" type="curve"/>
      <point x="744.7993365" y="0.78"/>
      <point x="811.1506635" y="0.78"/>
      <point x="877.5" y="0.78" type="curve"/>
    </contour>
  </outline>
</glyph>
<glyph name="dvLLA" format="1">
  <advance width="1114"/>
  <unicode hex="0933"/>
  <outline>
    <contour>
      <point x="1127.25" y="722"/>
      <point x="1127.25" y="701.22"/>
      <point x="1127.25" y="722" type="curve"/>
      <point x="746.1038115" y="722"/>
      <point x="364.9461885" y="722"/>
      <point x="-16.2" y="722" type="curve"/>
      <point x="-16.2" y="701.22"/>
      <point x="-16.2" y="722"/>
      <point x="-16.2" y="701.22" type="curve"/>
      <point x="364.9461885" y="701.22"/>
      <point x="746.1038115" y="701.22"/>
      <point x="1127.25" y="701.22" type="curve"/>
    </contour>
    <contour>
      <point x="787.1" y="709.224444444"/>
      <point x="810.2" y="709.224444444"/>
      <point x="787.1" y="709.224444444" type="curve"/>
      <point x="787.1" y="638.382930644"/>
      <point x="787.1" y="567.539291578"/>
      <point x="787.1" y="496.697777778" type="curve"/>
      <point x="810.2" y="496.697777778"/>
      <point x="787.1" y="496.697777778"/>
      <point x="810.2" y="496.697777778" type="curve"/>
      <point x="810.2" y="567.539291578"/>
      <point x="810.2" y="638.382930644"/>
      <point x="810.2" y="709.224444444" type="curve"/>
    </contour>
    <contour>
      <point x="604.4" y="390.457"/>
      <point x="589.7" y="376.95"/>
      <point x="604.4" y="390.457" type="curve"/>
      <point x="531.070900323" y="474.388748191"/>
      <point x="450.433567419" y="510.471111111"/>
      <point x="339.95" y="510.471111111" type="curve"/>
      <point x="193.423513556" y="510.471111111"/>
      <point x="86.45" y="437.05667575"/>
      <point x="86.45" y="300.095444444" type="curve"/>
      <point x="86.45" y="158.848117451"/>
      <point x="184.95579591" y="73.8355555556"/>
      <point x="329.65" y="73.8355555556" type="curve"/>
      <point x="458.908348421" y="73.8355555556"/>
      <point x="519.169345203" y="170.987667996"/>
      <point x="569.775" y="295.903777778" type="curve"/>
      <point x="612.760255492" y="407.082372687"/>
      <point x="677.417470678" y="482.884333333"/>
      <point x="792.825" y="482.884333333" type="curve"/>
      <point x="919.595230327" y="482.884333333"/>
      <point x="1012.55" y="417.69911439"/>
      <point x="1012.55" y="298.14" type="curve"/>
      <point x="1012.55" y="165.556556057"/>
      <point x="907.609916662" y="96.3933333333"/>
      <point x="765.2" y="96.3933333333" type="curve"/>
      <point x="662.475373583" y="96.3933333333"/>
      <point x="587.782834323" y="120.776874243"/>
      <point x="515.55" y="193.017333333" type="curve"/>
      <point x="502.95" y="176.393333333"/>
      <point x="515.55" y="193.017333333"/>
      <point x="502.95" y="176.393333333" type="curve"/>
      <point x="580.086142829" y="101.7941908"/>
      <point x="657.508369809" y="75.6133333333"/>
      <point x="763.1" y="75.6133333333" type="curve"/>
      <point x="919.191646152" y="75.6133333333"/>
      <point x="1035.65" y="151.792827844"/>
      <point x="1035.65" y="298.14" type="curve"/>
      <point x="1035.65" y="431.132173133"/>
      <point x="935.197978286" y="504.703333333"/>
      <point x="795.975" y="504.703333333" type="curve"/>
      <point x="668.707005896" y="504.703333333"/>
      <point x="595.91880841" y="422.484589881"/>
      <point x="547.725" y="302.137777778" type="curve"/>
      <point x="501.176232976" y="188.060857804"/>
      <point x="450.405021802" y="94.6155555556"/>
      <point x="331.75" y="94.6155555556" type="curve"/>
      <point x="200.267743671" y="94.6155555556"/>
      <point x="109.55" y="172.07085654"/>
      <point x="109.55" y="301.134444444" type="curve"/>
      <point x="109.55" y="423.955487817"/>
      <point x="206.156401276" y="489.691111111"/>
      <point x="337.85" y="489.691111111" type="curve"/>
      <point x="444.571094702" y="489.691111111"/>
      <point x="519.122698643" y="454.758394131"/>
      <point x="589.7" y="376.95" type="curve"/>
    </contour>
  </outline>
</glyph>
<glyph name="dvSHA" format="1">
  <advance width="1063"/>
  <unicode hex="0936"/>
  <outline>
    <contour>
      <point x="481.05" y="4.51755555556"/>
      <point x="462.15" y="-14.1844444444"/>
      <point x="481.05" y="4.51755555556" type="curve"/>
      <point x="341.069387561" y="104.937518788"/>
      <point x="200.930612439" y="205.145703434"/>
      <point x="60.95" y="305.565666667" type="curve"/>
      <point x="39.95" y="294.136666667"/>
      <point x="60.95" y="305.565666667"/>
      <point x="39.95" y="294.136666667" type="curve"/>
      <point x="180.703194743" y="191.393118251"/>
      <point x="321.396805257" y="88.5591039715"/>
      <point x="462.15" y="-14.1844444444" type="curve"/>
    </contour>
    <contour>
      <point x="845.15" y="722"/>
      <point x="868.25" y="722"/>
      <point x="845.15" y="722" type="curve"/>
      <point x="845.15" y="481.33574"/>
      <point x="845.15" y="240.66426"/>
      <point x="845.15" y="1.45213821436e-15" type="curve"/>
      <point x="868.25" y="-2.69413397841e-15"/>
      <point x="845.15" y="1.45213821436e-15"/>
      <point x="868.25" y="-2.69413397841e-15" type="curve"/>
      <point x="868.25" y="240.66426"/>
      <point x="868.25" y="481.33574"/>
      <point x="868.25" y="722" type="curve"/>
    </contour>
    <contour>
      <point x="1079" y="722"/>
      <point x="1079" y="701"/>
      <point x="1079" y="722" type="curve"/>
      <point x="1010" y="722"/>
      <point x="911.2493115" y="722"/>
      <point x="842.4" y="722" type="curve"/>
      <point x="842.4" y="701.22"/>
      <point x="842.4" y="722"/>
      <point x="842.4" y="701.22" type="curve"/>
      <point x="911.2493115" y="701.22"/>
      <point x="1010" y="701"/>
      <point x="1079" y="701" type="curve"/>
    </contour>
    <contour>
      <point x="193.625" y="495.344"/>
      <point x="175.775" y="478.72"/>
      <point x="193.625" y="495.344" type="curve"/>
      <point x="162.188650291" y="516.782298202"/>
      <point x="144.4" y="544.123127453"/>
      <point x="144.4" y="581.549" type="curve"/>
      <point x="146.004793872" y="674.907387152"/>
      <point x="239.667661139" y="705.44"/>
      <point x="345.725" y="705.44" type="curve"/>
      <point x="466.898585236" y="705.44"/>
      <point x="557.6" y="635.207068581"/>
      <point x="557.6" y="518.568666667" type="curve"/>
      <point x="557.6" y="329.373191745"/>
      <point x="387.136450605" y="235.084444444"/>
      <point x="178.2" y="235.084444444" type="curve"/>
      <point x="117.649536329" y="234.93399796"/>
      <point x="94" y="252"/>
      <point x="60.95" y="305.565666667" type="curve"/>
      <point x="39.95" y="294.136666667"/>
      <point x="60.95" y="305.565666667"/>
      <point x="39.95" y="294.136666667" type="curve"/>
      <point x="40.4084835286" y="231.108846979"/>
      <point x="105.856775265" y="215.371948367"/>
      <point x="178.2" y="214.304444444" type="curve"/>
      <point x="400.62516679" y="214.304444444"/>
      <point x="580.7" y="316.999505884"/>
      <point x="580.7" y="520.646666667" type="curve"/>
      <point x="580.7" y="650.030774861"/>
      <point x="481.983948313" y="726.22"/>
      <point x="346.775" y="726.22" type="curve"/>
      <point x="225.997532709" y="726.22"/>
      <point x="122.93622664" y="688.217661576"/>
      <point x="121.3" y="580.51" type="curve"/>
      <point x="121.3" y="536.793463412"/>
      <point x="139.665053468" y="503.638077906"/>
      <point x="175.775" y="478.72" type="curve"/>
    </contour>
    <contour>
      <point x="862.65" y="0"/>
      <point x="862.65" y="20.78"/>
      <point x="862.65" y="0" type="curve"/>
      <point x="924.4993815" y="0"/>
      <point x="986.3506185" y="0"/>
      <point x="1048.2" y="0" type="curve"/>
      <point x="1048.2" y="21.56"/>
      <point x="1048.2" y="0"/>
      <point x="1048.2" y="21.56" type="curve"/>
      <point x="862.65" y="20.78"/>
      <point x="1048.2" y="21.56"/>
      <point x="862.65" y="20.78" type="curve"/>
    </contour>
    <contour>
      <point x="862.65" y="21.56"/>
      <point x="862.65" y="0.78"/>
      <point x="862.65" y="21.56" type="curve"/>
      <point x="663.6" y="21.56"/>
      <point x="862.65" y="21.56"/>
      <point x="663.6" y="21.56" type="curve"/>
      <point x="663.6" y="0.78"/>
      <point x="663.6" y="21.56"/>
      <point x="663.6" y="0.78" type="curve"/>
      <point x="729.9493365" y="0.78"/>
      <point x="796.3006635" y="0.78"/>
      <point x="862.65" y="0.78" type="curve"/>
    </contour>
  </outline>
</glyph>
<glyph name="dvSSA" format="1">
  <advance width="786"/>
  <unicode hex="0937"/>
  <outline>
    <contour>
      <point x="-17" y="700"/>
      <point x="-17" y="721"/>
      <point x="-17" y="700" type="curve"/>
      <point x="251" y="700"/>
      <point x="519" y="700"/>
      <point x="787" y="700" type="curve"/>
      <point x="787" y="721"/>
      <point x="787" y="700"/>
      <point x="787" y="721" type="curve"/>
      <point x="519" y="721"/>
      <point x="251" y="721"/>
      <point x="-17" y="721" type="curve"/>
    </contour>
    <contour>
      <point x="586" y="21"/>
      <point x="586" y="0"/>
      <point x="586" y="21" type="curve"/>
      <point x="387" y="21"/>
      <point x="586" y="21"/>
      <point x="387" y="21" type="curve"/>
      <point x="387" y="0"/>
      <point x="387" y="21"/>
      <point x="387" y="0" type="curve"/>
      <point x="454" y="0"/>
      <point x="520" y="0"/>
      <point x="586" y="0" type="curve"/>
    </contour>
    <contour>
      <point x="586" y="0"/>
      <point x="586" y="21"/>
      <point x="586" y="0" type="curve"/>
      <point x="648" y="0"/>
      <point x="710" y="0"/>
      <point x="772" y="0" type="curve"/>
      <point x="772" y="22"/>
      <point x="772" y="0"/>
      <point x="772" y="22" type="curve"/>
      <point x="586" y="21"/>
      <point x="772" y="22"/>
      <point x="586" y="21" type="curve"/>
    </contour>
    <contour>
      <point x="112" y="700"/>
      <point x="127" y="713"/>
      <point x="112" y="700" type="curve"/>
      <point x="267" y="579"/>
      <point x="422" y="458"/>
      <point x="577" y="337" type="curve"/>
      <point x="592" y="354"/>
      <point x="577" y="337"/>
      <point x="592" y="354" type="curve"/>
      <point x="437" y="474"/>
      <point x="282" y="593"/>
      <point x="127" y="713" type="curve"/>
    </contour>
    <contour>
      <point x="580" y="369"/>
      <point x="596" y="361"/>
      <point x="580" y="369" type="curve"/>
      <point x="527" y="279"/>
      <point x="445" y="260"/>
      <point x="339" y="260" type="curve"/>
      <point x="218" y="260"/>
      <point x="130" y="314"/>
      <point x="130" y="424" type="curve"/>
      <point x="130" y="519"/>
      <point x="130" y="614"/>
      <point x="130" y="709" type="curve"/>
      <point x="107" y="709"/>
      <point x="130" y="709"/>
      <point x="107" y="709" type="curve"/>
      <point x="107" y="615"/>
      <point x="107" y="521"/>
      <point x="107" y="427" type="curve"/>
      <point x="107" y="303"/>
      <point x="205" y="239"/>
      <point x="338" y="239" type="curve"/>
      <point x="452" y="239"/>
      <point x="541" y="263"/>
      <point x="596" y="361" type="curve"/>
    </contour>
    <contour>
      <point x="596" y="0"/>
      <point x="573" y="0"/>
      <point x="596" y="0" type="curve"/>
      <point x="596" y="237"/>
      <point x="596" y="473"/>
      <point x="596" y="710" type="curve"/>
      <point x="573" y="710"/>
      <point x="596" y="710"/>
      <point x="573" y="710" type="curve"/>
      <point x="573" y="473"/>
      <point x="573" y="237"/>
      <point x="573" y="0" type="curve"/>
    </contour>
  </outline>
</glyph>
<glyph name="dvNukta" format="1">
  <advance width="0"/>
  <unicode hex="093C"/>
  <outline>
    <contour>
      <point x="-415" y="-85"/>
      <point x="-404" y="-85"/>
      <point x="-389" y="-85" type="curve"/>
      <point x="-389" y="-73"/>
      <point x="-397" y="-65"/>
      <point x="-409" y="-65" type="curve"/>
      <point x="-421" y="-65"/>
      <point x="-430" y="-73"/>
      <point x="-430" y="-85" type="curve"/>
      <point x="-415" y="-85"/>
      <point x="-404" y="-85"/>
      <point x="-389" y="-85" type="curve"/>
      <point x="-389" y="-97"/>
      <point x="-397" y="-105"/>
      <point x="-409" y="-105" type="curve"/>
      <point x="-421" y="-105"/>
      <point x="-430" y="-97"/>
      <point x="-430" y="-85" type="curve"/>
    </contour>
  </outline>
</glyph>
<glyph name="dvmAA" format="1">
  <advance width="446"/>
  <unicode hex="093E"/>
  <outline>
    <contour>
      <point x="220" y="21"/>
      <point x="220" y="0"/>
      <point x="220" y="21" type="curve"/>
      <point x="21" y="21"/>
      <point x="220" y="21"/>
      <point x="21" y="21" type="curve"/>
      <point x="21" y="0"/>
      <point x="21" y="21"/>
      <point x="21" y="0" type="curve"/>
      <point x="88" y="0"/>
      <point x="154" y="0"/>
      <point x="220" y="0" type="curve"/>
    </contour>
    <contour>
      <point x="220.0" y="0.0"/>
      <point x="220.0" y="21.0"/>
      <point x="220" y="0" type="curve"/>
      <point x="287" y="0"/>
      <point x="353" y="0"/>
      <point x="419" y="0" type="curve"/>
      <point x="419" y="21"/>
      <point x="419" y="0"/>
      <point x="419" y="21" type="curve"/>
      <point x="220" y="21"/>
      <point x="419" y="21"/>
      <point x="220" y="21" type="curve"/>
    </contour>
    <contour>
      <point x="467" y="721"/>
      <point x="467" y="700"/>
      <point x="467" y="721" type="curve"/>
      <point x="306.151898734" y="721.0"/>
      <point x="144.393258427" y="721.0"/>
      <point x="-18" y="721" type="curve"/>
      <point x="-18" y="700"/>
      <point x="-18" y="721"/>
      <point x="-18" y="700" type="curve"/>
      <point x="144.393258427" y="700.0"/>
      <point x="306.151898734" y="700.0"/>
      <point x="467" y="700" type="curve"/>
    </contour>
    <contour>
      <point x="208" y="721"/>
      <point x="231" y="721"/>
      <point x="208" y="721" type="curve"/>
      <point x="208.0" y="480.333795014"/>
      <point x="208.0" y="240.666204986"/>
      <point x="208" y="0" type="curve"/>
      <point x="231" y="0"/>
      <point x="208" y="0"/>
      <point x="231" y="0" type="curve"/>
      <point x="231.0" y="240.666204986"/>
      <point x="231.0" y="480.333795014"/>
      <point x="231" y="721" type="curve"/>
    </contour>
  </outline>
</glyph>
<glyph name="dvmI" format="1">
  <advance width="410.0"/>
  <unicode hex="093F"/>
  <outline>
    <contour>
      <point x="222" y="715"/>
      <point x="206" y="705"/>
      <point x="222" y="715" type="curve"/>
      <point x="206" y="745"/>
      <point x="185" y="790"/>
      <point x="185" y="836" type="curve"/>
      <point x="185" y="943"/>
      <point x="305" y="959"/>
      <point x="430" y="959" type="curve"/>
      <point x="650" y="959"/>
      <point x="829" y="879"/>
      <point x="965" y="702" type="curve"/>
      <point x="982" y="712"/>
      <point x="965" y="702"/>
      <point x="982" y="712" type="curve"/>
      <point x="843" y="895"/>
      <point x="662" y="980"/>
      <point x="432" y="980" type="curve"/>
      <point x="294" y="980"/>
      <point x="163" y="954"/>
      <point x="163" y="834" type="curve"/>
      <point x="163" y="785"/>
      <point x="186" y="737"/>
      <point x="206" y="705" type="curve"/>
    </contour>
    <contour>
      <point x="196" y="710"/>
      <point x="219" y="710"/>
      <point x="196" y="710" type="curve"/>
      <point x="196" y="473"/>
      <point x="196" y="237"/>
      <point x="196" y="0" type="curve"/>
      <point x="219" y="0"/>
      <point x="196" y="0"/>
      <point x="219" y="0" type="curve"/>
      <point x="219" y="237"/>
      <point x="219" y="473"/>
      <point x="219" y="710" type="curve"/>
    </contour>
    <contour>
      <point x="425" y="724"/>
      <point x="425" y="701"/>
      <point x="425" y="724" type="curve"/>
      <point x="294" y="724"/>
      <point x="122" y="724"/>
      <point x="-10" y="724" type="curve"/>
      <point x="-10" y="701"/>
      <point x="-10" y="724"/>
      <point x="-10" y="701" type="curve"/>
      <point x="122" y="701"/>
      <point x="294" y="701"/>
      <point x="425" y="701" type="curve"/>
    </contour>
    <contour>
      <point x="210" y="0"/>
      <point x="210" y="21"/>
      <point x="210" y="0" type="curve"/>
      <point x="271" y="0"/>
      <point x="333" y="0"/>
      <point x="395" y="0" type="curve"/>
      <point x="395" y="22"/>
      <point x="395" y="0"/>
      <point x="395" y="22" type="curve"/>
      <point x="210" y="21"/>
      <point x="395" y="22"/>
      <point x="210" y="21" type="curve"/>
    </contour>
    <contour>
      <point x="210" y="22"/>
      <point x="210" y="1"/>
      <point x="210" y="22" type="curve"/>
      <point x="11" y="22"/>
      <point x="210" y="22"/>
      <point x="11" y="22" type="curve"/>
      <point x="11" y="1"/>
      <point x="11" y="22"/>
      <point x="11" y="1" type="curve"/>
      <point x="77" y="1"/>
      <point x="143" y="1"/>
      <point x="210" y="1" type="curve"/>
    </contour>
  </outline>
</glyph>
<glyph name="dvmII" format="1">
  <advance width="402.0"/>
  <unicode hex="0940"/>
  <outline>
    <contour>
      <point x="-153" y="722"/>
      <point x="-166" y="704"/>
      <point x="-153" y="722" type="curve"/>
      <point x="-203" y="750"/>
      <point x="-261" y="795"/>
      <point x="-261" y="864" type="curve"/>
      <point x="-261" y="942"/>
      <point x="-191" y="977"/>
      <point x="-105" y="977" type="curve"/>
      <point x="60" y="977"/>
      <point x="155" y="868"/>
      <point x="198" y="704" type="curve"/>
      <point x="219" y="713"/>
      <point x="198" y="704"/>
      <point x="219" y="713" type="curve"/>
      <point x="173" y="884"/>
      <point x="68" y="998"/>
      <point x="-103" y="998" type="curve"/>
      <point x="-204" y="998"/>
      <point x="-283" y="954"/>
      <point x="-283" y="862" type="curve"/>
      <point x="-283" y="786"/>
      <point x="-222" y="736"/>
      <point x="-166" y="704" type="curve"/>
    </contour>
    <contour>
      <point x="194" y="710"/>
      <point x="217" y="710"/>
      <point x="194" y="710" type="curve"/>
      <point x="194" y="473"/>
      <point x="194" y="237"/>
      <point x="194" y="0" type="curve"/>
      <point x="217" y="0"/>
      <point x="194" y="0"/>
      <point x="217" y="0" type="curve"/>
      <point x="217" y="237"/>
      <point x="217" y="473"/>
      <point x="217" y="710" type="curve"/>
    </contour>
    <contour>
      <point x="413" y="724"/>
      <point x="413" y="701"/>
      <point x="413" y="724" type="curve"/>
      <point x="282" y="724"/>
      <point x="120" y="724"/>
      <point x="-12" y="724" type="curve"/>
      <point x="-12" y="701"/>
      <point x="-12" y="724"/>
      <point x="-12" y="701" type="curve"/>
      <point x="120" y="701"/>
      <point x="282" y="701"/>
      <point x="413" y="701" type="curve"/>
    </contour>
    <contour>
      <point x="208" y="0"/>
      <point x="208" y="21"/>
      <point x="208" y="0" type="curve"/>
      <point x="269" y="0"/>
      <point x="331" y="0"/>
      <point x="393" y="0" type="curve"/>
      <point x="393" y="22"/>
      <point x="393" y="0"/>
      <point x="393" y="22" type="curve"/>
      <point x="208" y="21"/>
      <point x="393" y="22"/>
      <point x="208" y="21" type="curve"/>
    </contour>
    <contour>
      <point x="208" y="22"/>
      <point x="208" y="1"/>
      <point x="208" y="22" type="curve"/>
      <point x="9" y="22"/>
      <point x="208" y="22"/>
      <point x="9" y="22" type="curve"/>
      <point x="9" y="1"/>
      <point x="9" y="22"/>
      <point x="9" y="1" type="curve"/>
      <point x="75" y="1"/>
      <point x="141" y="1"/>
      <point x="208" y="1" type="curve"/>
    </contour>
  </outline>
</glyph>
<glyph name="dvmUU" format="1">
  <advance width="0"/>
  <unicode hex="0942"/>
  <outline>
    <contour>
      <point x="224.425" y="-270.649"/>
      <point x="204.475" y="-280"/>
      <point x="224.425" y="-270.649" type="curve"/>
      <point x="111.730426863" y="-97.8410948047"/>
      <point x="-31.1774812964" y="8.78"/>
      <point x="-234.9" y="8.78" type="curve"/>
      <point x="-357.678094556" y="8.78"/>
      <point x="-463.0" y="-36.1778879756"/>
      <point x="-463.0" y="-145" type="curve"/>
      <point x="-463.0" y="-255.528386296"/>
      <point x="-365.294542735" y="-312.78"/>
      <point x="-244.225" y="-312.78" type="curve"/>
      <point x="-197.953574287" y="-312.78"/>
      <point x="-162.269232933" y="-307.568465752"/>
      <point x="-118.45" y="-294.741" type="curve"/>
      <point x="-126.85" y="-275"/>
      <point x="-118.45" y="-294.741"/>
      <point x="-126.85" y="-275" type="curve"/>
      <point x="-166.34339988" y="-289.980255127"/>
      <point x="-201.354428861" y="-292"/>
      <point x="-243.175" y="-292" type="curve"/>
      <point x="-350.527518164" y="-292"/>
      <point x="-439.9" y="-243.143251913"/>
      <point x="-439.9" y="-145" type="curve"/>
      <point x="-439.9" y="-48.3531785423"/>
      <point x="-345.348869487" y="-12.0"/>
      <point x="-234.9" y="-12" type="curve"/>
      <point x="-40.6472287761" y="-12.0"/>
      <point x="99.4629470992" y="-114.804434011"/>
      <point x="204.475" y="-280" type="curve"/>
    </contour>
  </outline>
</glyph>
<glyph name="danda" format="1">
  <advance width="283.0"/>
  <unicode hex="0964"/>
  <outline>
    <contour>
      <point x="130" y="722"/>
      <point x="153" y="722"/>
      <point x="130" y="722" type="curve"/>
      <point x="130" y="481"/>
      <point x="130" y="241"/>
      <point x="130" y="0" type="curve"/>
      <point x="153" y="0"/>
      <point x="130" y="0"/>
      <point x="153" y="0" type="curve"/>
      <point x="153" y="241"/>
      <point x="153" y="481"/>
      <point x="153" y="722" type="curve"/>
    </contour>
  </outline>
</glyph>
<glyph name="dvZero" format="1">
  <advance width="687.0"/>
  <unicode hex="0966"/>
  <outline>
    <contour>
      <point x="74" y="350"/>
      <point x="51" y="350"/>
      <point x="74" y="350" type="curve"/>
      <point x="74" y="502"/>
      <point x="191" y="585"/>
      <point x="351" y="585" type="curve"/>
      <point x="513" y="585"/>
      <point x="634" y="508"/>
      <point x="634" y="355" type="curve"/>
      <point x="634" y="203"/>
      <point x="515" y="124"/>
      <point x="353" y="124" type="curve"/>
      <point x="191" y="124"/>
      <point x="74" y="198"/>
      <point x="74" y="350" type="curve"/>
      <point x="51" y="350"/>
      <point x="74" y="350"/>
      <point x="51" y="350" type="curve"/>
      <point x="51" y="186"/>
      <point x="175" y="104"/>
      <point x="352" y="104" type="curve"/>
      <point x="529" y="104"/>
      <point x="657" y="190"/>
      <point x="657" y="356" type="curve"/>
      <point x="657" y="521"/>
      <point x="529" y="605"/>
      <point x="353" y="605" type="curve"/>
      <point x="177" y="605"/>
      <point x="51" y="518"/>
      <point x="51" y="350" type="curve"/>
    </contour>
  </outline>
</glyph>
<glyph name="dvTwo" format="1">
  <advance width="667.0"/>
  <unicode hex="0968"/>
  <outline>
    <contour>
      <point x="57" y="290"/>
      <point x="74" y="301"/>
      <point x="57" y="290" type="curve"/>
      <point x="195" y="171"/>
      <point x="333" y="52"/>
      <point x="471" y="-67" type="curve"/>
      <point x="491" y="-51"/>
      <point x="471" y="-67"/>
      <point x="491" y="-51" type="curve"/>
      <point x="352" y="66"/>
      <point x="213" y="184"/>
      <point x="74" y="301" type="curve"/>
    </contour>
    <contour>
      <point x="92" y="652"/>
      <point x="82" y="667"/>
      <point x="92" y="652" type="curve"/>
      <point x="161" y="689"/>
      <point x="222" y="706"/>
      <point x="302" y="706" type="curve"/>
      <point x="465" y="708"/>
      <point x="601" y="643"/>
      <point x="604" y="495" type="curve"/>
      <point x="608" y="313"/>
      <point x="438" y="232"/>
      <point x="233" y="235" type="curve"/>
      <point x="154" y="235"/>
      <point x="78" y="238"/>
      <point x="74" y="301" type="curve"/>
      <point x="57" y="290"/>
      <point x="74" y="301"/>
      <point x="57" y="290" type="curve"/>
      <point x="57" y="214"/>
      <point x="144" y="214"/>
      <point x="233" y="214" type="curve"/>
      <point x="451" y="207"/>
      <point x="632" y="300"/>
      <point x="627" y="496" type="curve"/>
      <point x="625" y="655"/>
      <point x="479" y="726"/>
      <point x="303" y="727" type="curve"/>
      <point x="219" y="727"/>
      <point x="154" y="707"/>
      <point x="82" y="667" type="curve"/>
    </contour>
  </outline>
</glyph>
<glyph name="dvThree" format="1">
  <advance width="589.0"/>
  <unicode hex="0969"/>
  <outline>
    <contour>
      <point x="68" y="656"/>
      <point x="57" y="671"/>
      <point x="68" y="656" type="curve"/>
      <point x="136" y="692"/>
      <point x="197" y="703"/>
      <point x="274" y="703" type="curve"/>
      <point x="394" y="703"/>
      <point x="501" y="673"/>
      <point x="499" y="569" type="curve"/>
      <point x="498" y="420"/>
      <point x="335" y="409"/>
      <point x="162" y="409" type="curve"/>
      <point x="162" y="391"/>
      <point x="162" y="409"/>
      <point x="162" y="391" type="curve"/>
      <point x="347" y="391"/>
      <point x="522" y="409"/>
      <point x="523" y="568" type="curve"/>
      <point x="523" y="684"/>
      <point x="406" y="721"/>
      <point x="274" y="721" type="curve"/>
      <point x="193" y="721"/>
      <point x="129" y="708"/>
      <point x="57" y="671" type="curve"/>
    </contour>
    <contour>
      <point x="380" y="-123"/>
      <point x="360" y="-141"/>
      <point x="380" y="-123" type="curve"/>
      <point x="275" y="-37"/>
      <point x="170" y="50"/>
      <point x="65" y="137" type="curve"/>
      <point x="47" y="126"/>
      <point x="65" y="137"/>
      <point x="47" y="126" type="curve"/>
      <point x="151" y="37"/>
      <point x="256" y="-52"/>
      <point x="360" y="-141" type="curve"/>
    </contour>
    <contour>
      <point x="162" y="387"/>
      <point x="162" y="405"/>
      <point x="162" y="387" type="curve"/>
      <point x="348" y="387"/>
      <point x="530" y="388"/>
      <point x="533" y="226" type="curve"/>
      <point x="536" y="93"/>
      <point x="398" y="57"/>
      <point x="243" y="60" type="curve"/>
      <point x="153" y="60"/>
      <point x="93" y="63"/>
      <point x="65" y="137" type="curve"/>
      <point x="47" y="126"/>
      <point x="65" y="137"/>
      <point x="47" y="126" type="curve"/>
      <point x="47" y="41"/>
      <point x="143" y="40"/>
      <point x="243" y="40" type="curve"/>
      <point x="412" y="35"/>
      <point x="560" y="82"/>
      <point x="556" y="226" type="curve"/>
      <point x="553" y="399"/>
      <point x="362" y="405"/>
      <point x="162" y="405" type="curve"/>
    </contour>
  </outline>
</glyph>
<glyph name="fourdeva" format="1">
  <advance width="735.0"/>
  <unicode hex="096A"/>
  <outline>
    <contour>
      <point x="138" y="713"/>
      <point x="121" y="727"/>
      <point x="138" y="713" type="curve"/>
      <point x="89" y="680"/>
      <point x="54" y="647"/>
      <point x="54" y="589" type="curve"/>
      <point x="54" y="425"/>
      <point x="209" y="390"/>
      <point x="385" y="357" type="curve"/>
      <point x="516" y="332"/>
      <point x="625" y="294"/>
      <point x="627" y="171" type="curve"/>
      <point x="627" y="41"/>
      <point x="514" y="-10"/>
      <point x="369" y="-10" type="curve"/>
      <point x="229" y="-10"/>
      <point x="120" y="40"/>
      <point x="120" y="165" type="curve"/>
      <point x="120" y="294"/>
      <point x="237" y="330"/>
      <point x="374" y="357" type="curve"/>
      <point x="542" y="390"/>
      <point x="687" y="428"/>
      <point x="687" y="585" type="curve"/>
      <point x="687" y="647"/>
      <point x="652" y="682"/>
      <point x="598" y="714" type="curve"/>
      <point x="613" y="730"/>
      <point x="598" y="714"/>
      <point x="613" y="730" type="curve"/>
      <point x="673" y="696"/>
      <point x="709" y="655"/>
      <point x="709" y="586" type="curve"/>
      <point x="709" y="421"/>
      <point x="562" y="370"/>
      <point x="384" y="340" type="curve"/>
      <point x="254" y="319"/>
      <point x="143" y="288"/>
      <point x="143" y="168" type="curve"/>
      <point x="140" y="55"/>
      <point x="244" y="12"/>
      <point x="373" y="12" type="curve"/>
      <point x="502" y="12"/>
      <point x="607" y="53"/>
      <point x="607" y="168" type="curve"/>
      <point x="606" y="285"/>
      <point x="500" y="317"/>
      <point x="374" y="340" type="curve"/>
      <point x="192" y="374"/>
      <point x="33" y="418"/>
      <point x="33" y="587" type="curve"/>
      <point x="33" y="652"/>
      <point x="68" y="691"/>
      <point x="121" y="727" type="curve"/>
    </contour>
  </outline>
</glyph>
<glyph name="dvNine" format="1">
  <advance width="535.0"/>
  <unicode hex="096F"/>
  <outline>
    <contour>
      <point x="383" y="-52"/>
      <point x="368" y="-34"/>
      <point x="383" y="-52" type="curve"/>
      <point x="446" y="-21"/>
      <point x="497" y="16"/>
      <point x="498" y="85" type="curve"/>
      <point x="501" y="217"/>
      <point x="370" y="254"/>
      <point x="256" y="324" type="curve"/>
      <point x="165" y="388"/>
      <point x="62" y="426"/>
      <point x="63" y="537" type="curve"/>
      <point x="65" y="646"/>
      <point x="157" y="705"/>
      <point x="275" y="705" type="curve"/>
      <point x="387" y="705"/>
      <point x="474" y="650"/>
      <point x="475" y="546" type="curve"/>
      <point x="475" y="414"/>
      <point x="347" y="368"/>
      <point x="202" y="353" type="curve"/>
      <point x="206" y="335"/>
      <point x="202" y="353"/>
      <point x="206" y="335" type="curve"/>
      <point x="363" y="346"/>
      <point x="498" y="403"/>
      <point x="498" y="546" type="curve"/>
      <point x="497" y="662"/>
      <point x="399" y="726"/>
      <point x="275" y="726" type="curve"/>
      <point x="143" y="726"/>
      <point x="40" y="660"/>
      <point x="40" y="538" type="curve"/>
      <point x="40" y="421"/>
      <point x="139" y="372"/>
      <point x="239" y="308" type="curve"/>
      <point x="346" y="238"/>
      <point x="475" y="212"/>
      <point x="475" y="85" type="curve"/>
      <point x="475" y="23"/>
      <point x="425" y="-5"/>
      <point x="368" y="-34" type="curve"/>
    </contour>
  </outline>
</glyph>
<glyph name="dvK" format="1">
  <advance width="1006"/>
  <unicode hex="E044"/>
  <outline>
    <contour>
      <point x="568.75" y="339.369777778"/>
      <point x="583.45" y="331.057777778"/>
      <point x="568.75" y="339.369777778" type="curve"/>
      <point x="520.180086354" y="237.106267934"/>
      <point x="422.650416222" y="208.144444444"/>
      <point x="307.8" y="208.144444444" type="curve"/>
      <point x="188.234758199" y="208.144444444"/>
      <point x="90.4" y="258.794345436"/>
      <point x="90.4" y="366.986666667" type="curve"/>
      <point x="90.4" y="476.064131985"/>
      <point x="191.834184343" y="523.833333333"/>
      <point x="313.2" y="523.833333333" type="curve"/>
      <point x="422.748743928" y="523.833333333"/>
      <point x="511.590020873" y="490.608931255"/>
      <point x="569.975" y="397.556777778" type="curve"/>
      <point x="583.625" y="406.907777778"/>
      <point x="569.975" y="397.556777778"/>
      <point x="583.625" y="406.907777778" type="curve"/>
      <point x="527.235951854" y="508.6528407"/>
      <point x="431.095994139" y="544.613333333"/>
      <point x="313.2" y="544.613333333" type="curve"/>
      <point x="178.215411413" y="544.613333333"/>
      <point x="67.3" y="488.390199837"/>
      <point x="67.3" y="366.986666667" type="curve"/>
      <point x="67.3" y="246.400712325"/>
      <point x="175.831046132" y="187.364444444"/>
      <point x="307.8" y="187.364444444" type="curve"/>
      <point x="430.869687069" y="187.364444444"/>
      <point x="536.967424468" y="220.310904579"/>
      <point x="583.45" y="331.057777778" type="curve"/>
    </contour>
    <contour>
      <point x="568.4" y="710"/>
      <point x="591.5" y="710"/>
      <point x="568.4" y="710" type="curve"/>
      <point x="568.4" y="473.3357"/>
      <point x="568.4" y="236.6643"/>
      <point x="568.4" y="1.45213821436e-15" type="curve"/>
      <point x="591.5" y="-2.69413397841e-15"/>
      <point x="568.4" y="1.45213821436e-15"/>
      <point x="591.5" y="-2.69413397841e-15" type="curve"/>
      <point x="591.5" y="236.6643"/>
      <point x="591.5" y="473.3357"/>
      <point x="591.5" y="710" type="curve"/>
    </contour>
    <contour>
      <point x="983" y="722"/>
      <point x="983" y="700"/>
      <point x="983" y="722" type="curve"/>
      <point x="657" y="722"/>
      <point x="310.946742" y="722.040111111"/>
      <point x="-14.85" y="722.040111111" type="curve"/>
      <point x="-14.85" y="700.221111111"/>
      <point x="-14.85" y="722.040111111"/>
      <point x="-14.85" y="700.221111111" type="curve"/>
      <point x="310.946742" y="700.221111111"/>
      <point x="657" y="700"/>
      <point x="983" y="700" type="curve"/>
    </contour>
    <contour>
      <point x="589.175" y="384.946666667"/>
      <point x="571.325" y="384.946666667"/>
      <point x="589.175" y="384.946666667" type="curve"/>
      <point x="627.057533112" y="488.962414536"/>
      <point x="735.116231842" y="522.835555556"/>
      <point x="837.125" y="522.835555556" type="curve"/>
      <point x="887.789876673" y="522.835555556"/>
      <point x="935.755045546" y="514.204270891"/>
      <point x="976.325" y="496.015888889" type="curve"/>
      <point x="989.975" y="513.678888889"/>
      <point x="976.325" y="496.015888889"/>
      <point x="989.975" y="513.678888889" type="curve"/>
      <point x="946.835084619" y="533.237358961"/>
      <point x="894.180543949" y="543.615555556"/>
      <point x="838.175" y="543.615555556" type="curve"/>
      <point x="715.029722901" y="543.615555556"/>
      <point x="609.279863189" y="499.153000857"/>
      <point x="571.325" y="384.946666667" type="curve"/>
    </contour>
    <contour>
      <point x="580.5" y="0"/>
      <point x="580.5" y="20.78"/>
      <point x="580.5" y="0" type="curve"/>
      <point x="642.3493815" y="0"/>
      <point x="704.2006185" y="0"/>
      <point x="766.05" y="0" type="curve"/>
      <point x="766.05" y="21.56"/>
      <point x="766.05" y="0"/>
      <point x="766.05" y="21.56" type="curve"/>
      <point x="580.5" y="20.78"/>
      <point x="766.05" y="21.56"/>
      <point x="580.5" y="20.78" type="curve"/>
    </contour>
    <contour>
      <point x="580.5" y="21.56"/>
      <point x="580.5" y="0.78"/>
      <point x="580.5" y="21.56" type="curve"/>
      <point x="381.45" y="21.56"/>
      <point x="580.5" y="21.56"/>
      <point x="381.45" y="21.56" type="curve"/>
      <point x="381.45" y="0.78"/>
      <point x="381.45" y="21.56"/>
      <point x="381.45" y="0.78" type="curve"/>
      <point x="447.7993365" y="0.78"/>
      <point x="514.1506635" y="0.78"/>
      <point x="580.5" y="0.78" type="curve"/>
    </contour>
  </outline>
</glyph>
<glyph name="dvG" format="1">
  <advance width="543"/>
  <unicode hex="E046"/>
  <outline>
    <contour>
      <point x="89" y="321"/>
      <point x="104" y="338"/>
      <point x="89" y="321" type="curve"/>
      <point x="119" y="295"/>
      <point x="150" y="283"/>
      <point x="180" y="264" type="curve"/>
      <point x="201" y="273"/>
      <point x="180" y="264"/>
      <point x="201" y="273" type="curve"/>
      <point x="169" y="295"/>
      <point x="136" y="317"/>
      <point x="104" y="338" type="curve"/>
    </contour>
    <contour>
      <point x="199" y="705"/>
      <point x="217" y="716"/>
      <point x="199" y="705" type="curve"/>
      <point x="311" y="652"/>
      <point x="398" y="587"/>
      <point x="398" y="465" type="curve"/>
      <point x="398" y="353"/>
      <point x="302" y="280"/>
      <point x="201" y="280" type="curve"/>
      <point x="149" y="280"/>
      <point x="104" y="293"/>
      <point x="104" y="338" type="curve"/>
      <point x="89" y="321"/>
      <point x="104" y="338"/>
      <point x="89" y="321" type="curve"/>
      <point x="89" y="271"/>
      <point x="140" y="258"/>
      <point x="196" y="258" type="curve"/>
      <point x="327" y="258"/>
      <point x="421" y="340"/>
      <point x="421" y="468" type="curve"/>
      <point x="420" y="592"/>
      <point x="334" y="666"/>
      <point x="217" y="716" type="curve"/>
    </contour>
    <contour>
      <point x="547" y="723"/>
      <point x="547" y="702"/>
      <point x="547" y="723" type="curve"/>
      <point x="360" y="723"/>
      <point x="172" y="723"/>
      <point x="-15" y="723" type="curve"/>
      <point x="-15" y="702"/>
      <point x="-15" y="723"/>
      <point x="-15" y="702" type="curve"/>
      <point x="172" y="702"/>
      <point x="360" y="702"/>
      <point x="547" y="702" type="curve"/>
    </contour>
  </outline>
</glyph>
<glyph name="dvCH" format="1">
  <advance width="1057"/>
  <unicode hex="E049"/>
  <outline>
    <contour>
      <point x="-14.85" y="700.44"/>
      <point x="-14.85" y="721.22"/>
      <point x="-14.85" y="700.44" type="curve"/>
      <point x="346.946382" y="700.44"/>
      <point x="708.753618" y="700.44"/>
      <point x="1070.55" y="700.44" type="curve"/>
      <point x="1070.55" y="721.22"/>
      <point x="1070.55" y="700.44"/>
      <point x="1070.55" y="721.22" type="curve"/>
      <point x="708.753618" y="721.22"/>
      <point x="346.946382" y="721.22"/>
      <point x="-14.85" y="721.22" type="curve"/>
    </contour>
    <contour>
      <point x="432.875" y="715.772666667"/>
      <point x="440.225" y="701.226666667"/>
      <point x="432.875" y="715.772666667" type="curve"/>
      <point x="257.994194885" y="715.772666667"/>
      <point x="101.079437196" y="682.90821493"/>
      <point x="101.3" y="531.700222222" type="curve"/>
      <point x="101.52016384" y="408.206965678"/>
      <point x="223.311357568" y="367.262444444"/>
      <point x="364.5" y="367.262444444" type="curve"/>
      <point x="364.5" y="385.964444444"/>
      <point x="364.5" y="367.262444444"/>
      <point x="364.5" y="385.964444444" type="curve"/>
      <point x="236.906784019" y="385.964444444"/>
      <point x="124" y="423"/>
      <point x="124.4" y="529.622222222" type="curve"/>
      <point x="124" y="669"/>
      <point x="273.602590713" y="701.226666667"/>
      <point x="440.225" y="701.226666667" type="curve"/>
    </contour>
    <contour>
      <point x="920" y="263"/>
      <point x="921.875" y="244.24"/>
      <point x="920.825" y="262.942" type="curve"/>
      <point x="748.526102008" y="233.509751879"/>
      <point x="593" y="259"/>
      <point x="592.725" y="392.928888889" type="curve"/>
      <point x="593" y="476"/>
      <point x="668.007671435" y="514.773111111"/>
      <point x="761.4" y="514.773111111" type="curve"/>
      <point x="857.401065469" y="514.773111111"/>
      <point x="928.85" y="462.568764474"/>
      <point x="928.85" y="372.015666667" type="curve"/>
      <point x="928.85" y="139.709904446"/>
      <point x="735.826200201" y="16.6513333333"/>
      <point x="486.975" y="16.6513333333" type="curve"/>
      <point x="294.030388198" y="16.6513333333"/>
      <point x="113" y="39"/>
      <point x="113.475" y="196.246333333" type="curve"/>
      <point x="113" y="311"/>
      <point x="228.565566425" y="364.309222222"/>
      <point x="364.5" y="364.309222222" type="curve"/>
      <point x="364.5" y="381.972222222"/>
      <point x="364.5" y="364.309222222"/>
      <point x="364.5" y="381.972222222" type="curve"/>
      <point x="215.743429243" y="381.972222222"/>
      <point x="91.425" y="330.922667964"/>
      <point x="91.425" y="199.363333333" type="curve"/>
      <point x="91.425" y="23.2673514958"/>
      <point x="278.300799133" y="-6.20666666667"/>
      <point x="483.825" y="-6.20666666667" type="curve"/>
      <point x="748.71321096" y="-6.20666666667"/>
      <point x="951.95" y="124.961907602"/>
      <point x="951.95" y="370.976666667" type="curve"/>
      <point x="951.95" y="476.079809619"/>
      <point x="870.915932313" y="537.631111111"/>
      <point x="761.4" y="537.631111111" type="curve"/>
      <point x="654.52910974" y="537.631111111"/>
      <point x="570.675" y="490.57898999"/>
      <point x="570.675" y="392.928888889" type="curve"/>
      <point x="570.675" y="240.461042886"/>
      <point x="736" y="211"/>
      <point x="921" y="244" type="curve"/>
    </contour>
  </outline>
</glyph>
<glyph name="dvJH" format="1">
  <advance width="1025"/>
  <unicode hex="E04B"/>
  <outline>
    <contour>
      <point x="980" y="722"/>
      <point x="980" y="701"/>
      <point x="980" y="722" type="curve"/>
      <point x="648" y="722"/>
      <point x="316" y="722"/>
      <point x="-16" y="722" type="curve"/>
      <point x="-16" y="701"/>
      <point x="-16" y="722"/>
      <point x="-16" y="701" type="curve"/>
      <point x="316" y="701"/>
      <point x="648" y="701"/>
      <point x="980" y="701" type="curve"/>
    </contour>
    <contour>
      <point x="558.956752243" y="522.95253056"/>
      <point x="537" y="543"/>
      <point x="559" y="523" type="curve"/>
      <point x="559" y="586"/>
      <point x="559" y="648"/>
      <point x="559" y="711" type="curve"/>
      <point x="537" y="711"/>
      <point x="559.0" y="710.0"/>
      <point x="537" y="710" type="curve"/>
      <point x="537" y="654"/>
      <point x="537" y="598"/>
      <point x="537" y="543" type="curve"/>
    </contour>
    <contour>
      <point x="537" y="543"/>
      <point x="559" y="523"/>
      <point x="537" y="543" type="curve"/>
      <point x="451" y="543"/>
      <point x="366.0" y="543.0"/>
      <point x="281" y="543" type="curve"/>
      <point x="162" y="543"/>
      <point x="66" y="524"/>
      <point x="66" y="417" type="curve"/>
      <point x="66" y="335"/>
      <point x="122" y="300"/>
      <point x="196" y="266" type="curve"/>
      <point x="199" y="292"/>
      <point x="196" y="266"/>
      <point x="199" y="292" type="curve"/>
      <point x="141" y="324"/>
      <point x="89" y="348"/>
      <point x="89" y="417" type="curve"/>
      <point x="89" y="511"/>
      <point x="177" y="523"/>
      <point x="281" y="523" type="curve"/>
      <point x="374" y="523"/>
      <point x="466" y="523"/>
      <point x="559" y="523" type="curve"/>
    </contour>
    <contour>
      <point x="196" y="266"/>
      <point x="199" y="292"/>
      <point x="196" y="266" type="curve"/>
      <point x="288" y="298"/>
      <point x="346" y="309"/>
      <point x="443" y="309" type="curve"/>
      <point x="543" y="309"/>
      <point x="620" y="287"/>
      <point x="620" y="197" type="curve"/>
      <point x="620" y="71"/>
      <point x="497" y="49"/>
      <point x="346" y="49" type="curve"/>
      <point x="243" y="49"/>
      <point x="164" y="57"/>
      <point x="131" y="150" type="curve"/>
      <point x="113" y="135"/>
      <point x="131" y="150"/>
      <point x="113" y="135" type="curve"/>
      <point x="144" y="33"/>
      <point x="232" y="29"/>
      <point x="346" y="29" type="curve"/>
      <point x="511" y="29"/>
      <point x="643" y="54"/>
      <point x="643" y="197" type="curve"/>
      <point x="641" y="298"/>
      <point x="558" y="330"/>
      <point x="445" y="330" type="curve"/>
      <point x="349" y="331"/>
      <point x="288" y="323"/>
      <point x="199" y="292" type="curve"/>
    </contour>
    <contour>
      <point x="113" y="135"/>
      <point x="131" y="150"/>
      <point x="113" y="135" type="curve"/>
      <point x="217" y="43"/>
      <point x="321" y="-49"/>
      <point x="425" y="-140" type="curve"/>
      <point x="446" y="-125"/>
      <point x="425" y="-140"/>
      <point x="446" y="-125" type="curve"/>
      <point x="341" y="-33"/>
      <point x="236" y="58"/>
      <point x="131" y="150" type="curve"/>
    </contour>
    <contour>
      <point x="444" y="313"/>
      <point x="445" y="330"/>
      <point x="444" y="313" type="curve"/>
      <point x="509" y="308"/>
      <point x="623" y="284"/>
      <point x="739" y="284" type="curve"/>
      <point x="833" y="284"/>
      <point x="944" y="304"/>
      <point x="991" y="334" type="curve"/>
      <point x="981" y="351"/>
      <point x="991" y="334"/>
      <point x="981" y="351" type="curve"/>
      <point x="925" y="323"/>
      <point x="832" y="306"/>
      <point x="741" y="305" type="curve"/>
      <point x="629" y="305"/>
      <point x="523" y="330"/>
      <point x="445" y="330" type="curve"/>
    </contour>
  </outline>
</glyph>
<glyph name="dvNY" format="1"><advance width="656"/><unicode hex="E04C"/><outline><contour><point x="569.7" y="321.2042222222222"/><point x="569.7" y="344.0622222222222"/><point x="569.7" y="321.2042222222222" type="curve"/><point x="680.7182363482498" y="294.13602526283347"/><point x="749.7043452688833" y="288.4354261682962"/><point x="857.725" y="326.31344444444443" type="curve"/><point x="850.375" y="346.0544444444444"/><point x="857.725" y="326.31344444444443"/><point x="850.375" y="346.0544444444444" type="curve"/><point x="744.3098462673258" y="308.92774394035825"/><point x="678.757157373241" y="317.91723954551884"/><point x="569.7" y="344.0622222222222" type="curve"/></contour><contour><point x="156.70000000000002" y="477.0982222222222"/><point x="146.20000000000002" y="493.72222222222223"/><point x="156.70000000000002" y="477.0982222222222" type="curve"/><point x="212.07014123029995" y="509.4926005628201"/><point x="259.27201286602013" y="523.8333333333334"/><point x="324" y="523.8333333333334" type="curve"/><point x="457.00675193220593" y="523.8333333333334"/><point x="554.9565215954622" y="458.1898867691246"/><point x="556.25" y="334.06" type="curve"/><point x="557.5761938834222" y="202.27805597584194"/><point x="441.7451317535169" y="145.2844444444444"/><point x="294.175" y="145.28444444444443" type="curve"/><point x="200.41046148179595" y="145.28444444444443"/><point x="132.30061888018142" y="176.73204346251367"/><point x="72.375" y="247.6544444444444" type="curve"/><point x="56.625" y="237.26444444444442"/><point x="72.375" y="247.6544444444444"/><point x="56.625" y="237.26444444444442" type="curve"/><point x="120.71603231171733" y="160.21003655023372"/><point x="192.19921084353302" y="124.50444444444445"/><point x="293.125" y="124.50444444444443" type="curve"/><point x="452.908720812483" y="124.50444444444442"/><point x="579.5590718298902" y="189.14625431981966"/><point x="579.35" y="334.06" type="curve"/><point x="579.1452642433762" y="471.3143530949418"/><point x="470.0631079353474" y="544.6133333333333"/><point x="324" y="544.6133333333333" type="curve"/><point x="254.67990275935952" y="544.6133333333333"/><point x="204.65881901575744" y="530.7292712006997"/><point x="146.20000000000002" y="493.72222222222223" type="curve"/></contour><contour><point x="857.25" y="722"/><point x="857.25" y="701.22"/><point x="857.25" y="722" type="curve"/><point x="566.552907" y="722"/><point x="275.84709300000003" y="722"/><point x="-14.850000000000001" y="722" type="curve"/><point x="-14.850000000000003" y="701.22"/><point x="-14.850000000000001" y="722"/><point x="-14.850000000000003" y="701.22" type="curve"/><point x="275.84709300000003" y="701.22"/><point x="566.552907" y="701.22"/><point x="857.25" y="701.22" type="curve"/></contour></outline></glyph>
<glyph name="dvT" format="1"><advance width="532"/><unicode hex="E04E"/><outline><contour><point x="375.27500000000003" y="17.488666666666667"/><point x="363.725" y="-1.2133333333333356"/><point x="375.27500000000003" y="17.488666666666667" type="curve"/><point x="233.93557094341583" y="68.12919253107803"/><point x="126.85000000000001" y="130.4387113628053"/><point x="126.85000000000002" y="257.2311111111111" type="curve"/><point x="126.85000000000004" y="399.8460271582401"/><point x="242.7226985695126" y="447.0044444444444"/><point x="369.77500000000003" y="447.0044444444444" type="curve"/><point x="475.1156132500001" y="447.0044444444444"/><point x="580.45938675" y="447.0044444444444"/><point x="685.8000000000001" y="447.0044444444444" type="curve"/><point x="685.8000000000001" y="467.78444444444443"/><point x="685.8000000000001" y="447.0044444444444"/><point x="685.8000000000001" y="467.78444444444443" type="curve"/><point x="580.10939025" y="467.78444444444443"/><point x="474.41560975000004" y="467.78444444444443"/><point x="368.725" y="467.78444444444443" type="curve"/><point x="229.04231302925763" y="467.78444444444443"/><point x="103.75000000000003" y="413.27137879899095"/><point x="103.75000000000001" y="257.2311111111111" type="curve"/><point x="103.75" y="122.39828383098421"/><point x="210.28570798749425" y="51.16553852025414"/><point x="363.725" y="-1.2133333333333356" type="curve"/></contour><contour><point x="-16.200000000000003" y="702.5157777777778"/><point x="-16.200000000000003" y="721.2177777777778"/><point x="-16.200000000000003" y="702.5157777777778" type="curve"/><point x="216.897669" y="702.5157777777778"/><point x="450.0023309999999" y="702.5157777777778"/><point x="683.1" y="702.5157777777778" type="curve"/><point x="683.1" y="721.2177777777778"/><point x="683.1" y="702.5157777777778"/><point x="683.1" y="721.2177777777778" type="curve"/><point x="450.0023309999999" y="721.2177777777778"/><point x="216.897669" y="721.2177777777778"/><point x="-16.200000000000003" y="721.2177777777778" type="curve"/></contour></outline></glyph>
<glyph name="dvTH" format="1"><advance width="548"/><unicode hex="E04F"/><outline><contour><point x="93.1" y="369.17777777777775"/><point x="70" y="389.9577777777778"/><point x="93.1" y="369.17777777777775" type="curve"/><point x="283.1130893253075" y="369.17777777777775"/><point x="459.1865321894983" y="387.50904597624583"/><point x="458.95000000000005" y="568.5377777777777" type="curve"/><point x="458.7370021032008" y="670.5141756651268"/><point x="390.6748776208704" y="727"/><point x="284.725" y="727" type="curve"/><point x="195.82474280427712" y="727"/><point x="129.9504309333764" y="694.8903673387804"/><point x="128.3" y="614.3553333333333" type="curve"/><point x="128.3" y="558.9262177354937"/><point x="166.15536353175082" y="531.3147979771543"/><point x="218.60000000000002" y="507.9892222222222" type="curve"/><point x="229.10000000000002" y="525.6522222222222"/><point x="218.60000000000002" y="507.9892222222222"/><point x="229.10000000000002" y="525.6522222222222" type="curve"/><point x="184.52788128109884" y="546.8095760520907"/><point x="151.4" y="568.3993935365803"/><point x="151.4" y="616.4333333333333" type="curve"/><point x="153.00957489641675" y="682.6523831009108"/><point x="209.28432668637686" y="706.22"/><point x="283.675" y="706.22" type="curve"/><point x="374.48571153701187" y="706.22"/><point x="434.5322811383928" y="656.9182824652256"/><point x="435.85" y="568.5377777777777" type="curve"/><point x="437.3978509507282" y="396.5351969211486"/><point x="266.0034643972416" y="389.9577777777778"/><point x="70" y="389.9577777777778" type="curve"/></contour><contour><point x="68.9" y="390.7377777777778"/><point x="92" y="369.9577777777778"/><point x="68.9" y="390.7377777777778" type="curve"/><point x="68.90000000000002" y="223.2069929811504"/><point x="202.78361099918519" y="150.66444444444443"/><point x="387.82500000000005" y="150.66444444444443" type="curve"/><point x="533.2396969249208" y="150.66444444444443"/><point x="638.6618225792772" y="174.81816572063985"/><point x="725.5250000000001" y="292.8302222222222" type="curve"/><point x="707.6750000000001" y="301.1422222222222"/><point x="725.5250000000001" y="292.8302222222222"/><point x="707.6750000000001" y="301.1422222222222" type="curve"/><point x="629.4059560258398" y="195.7882823770504"/><point x="525.535263927845" y="171.44444444444443"/><point x="390.975" y="171.44444444444443" type="curve"/><point x="214.79850381018684" y="171.44444444444443"/><point x="92.00000000000001" y="244.41211546165175"/><point x="92" y="369.9577777777778" type="curve"/></contour></outline></glyph>
<glyph name="dvDH" format="1"><advance width="581"/><unicode hex="E051"/><outline><contour><point x="725.725" y="313.38744444444444"/><point x="743.575" y="306.1144444444444"/><point x="725.725" y="313.38744444444444" type="curve"/><point x="667.5496809193195" y="185.21711219581016"/><point x="556.7882263882202" y="153.26666666666662"/><point x="427.70000000000005" y="153.26666666666665" type="curve"/><point x="285.0199278701141" y="153.26666666666668"/><point x="148.3426117259144" y="170.06381047820858"/><point x="149.8" y="291.1956666666666" type="curve"/><point x="151.2900788494063" y="421.3796130735599"/><point x="301.32224961366387" y="427.1692222222222"/><point x="452.25000000000006" y="427.1692222222222" type="curve"/><point x="452.25000000000006" y="444.8322222222222"/><point x="452.25000000000006" y="427.1692222222222"/><point x="452.25000000000006" y="444.8322222222222" type="curve"/><point x="287.5238648124065" y="444.8322222222222"/><point x="126.93128081045089" y="431.02320634888395"/><point x="126.70000000000002" y="290.15666666666664" type="curve"/><point x="126.47339787328731" y="158.55878484126876"/><point x="272.80084905608334" y="132.48666666666668"/><point x="425.6" y="132.48666666666665" type="curve"/><point x="563.8851052640197" y="132.48666666666662"/><point x="682.602425852923" y="168.95761158977749"/><point x="743.575" y="306.1144444444444" type="curve"/></contour><contour><point x="473.45000000000005" y="535.1297777777778"/><point x="458.75000000000006" y="547.5977777777778"/><point x="473.45000000000005" y="535.1297777777778" type="curve"/><point x="499.16849745651183" y="555.0114615875532"/><point x="511.85" y="579.507921663816"/><point x="511.85" y="611.5224444444444" type="curve"/><point x="511.85" y="695.2880818476858"/><point x="427.21656489825943" y="727"/><point x="333.20000000000005" y="727" type="curve"/><point x="229.45446026987793" y="727"/><point x="142.02270400933335" y="679.4663805798"/><point x="141.8" y="585.4598888888888" type="curve"/><point x="141.57269797354658" y="443.79729055057874"/><point x="296.19664546354875" y="427.1692222222222"/><point x="452.25000000000006" y="427.1692222222222" type="curve"/><point x="452.25000000000006" y="444.8322222222222"/><point x="452.25000000000006" y="427.1692222222222"/><point x="452.25000000000006" y="444.8322222222222" type="curve"/><point x="307.5683118013728" y="444.8322222222222"/><point x="163.43143765067302" y="454.5349263772006"/><point x="164.9" y="586.4988888888888" type="curve"/><point x="166.27515964477496" y="667.0329420157123"/><point x="242.1667668046704" y="706.22"/><point x="331.1" y="706.22" type="curve"/><point x="414.8554675315029" y="706.22"/><point x="490.85" y="682.1364879005563"/><point x="490.85" y="609.4444444444445" type="curve"/><point x="490.85" y="583.8129534654449"/><point x="477.6981614885117" y="565.3188795328249"/><point x="458.75000000000006" y="547.5977777777778" type="curve"/></contour></outline></glyph>
<glyph name="dvP" format="1"><advance width="453"/><unicode hex="E053"/><outline><contour><point x="581.275" y="369.3031111111111"/><point x="599.125" y="360.9911111111111"/><point x="581.275" y="369.3031111111111" type="curve"/><point x="528.009558344751" y="279.6212127402406"/><point x="447.8180319569102" y="260.069"/><point x="344.12500000000006" y="260.069" type="curve"/><point x="229.17772110085536" y="260.069"/><point x="144.4" y="314.7714296661735"/><point x="144.4" y="423.7396666666666" type="curve"/><point x="144.4" y="518.9003076433333"/><point x="144.4" y="614.0638034677777"/><point x="144.4" y="709.2244444444444" type="curve"/><point x="121.30000000000001" y="709.2244444444444"/><point x="144.4" y="709.2244444444444"/><point x="121.30000000000001" y="709.2244444444444" type="curve"/><point x="121.30000000000001" y="615.1027930777777"/><point x="121.30000000000001" y="520.9783180333333"/><point x="121.30000000000001" y="426.8566666666666" type="curve"/><point x="121.3" y="303.5733386937304"/><point x="216.03136692090263" y="238.25000000000003"/><point x="343.07500000000005" y="238.25" type="curve"/><point x="454.6085186348304" y="238.25"/><point x="544.3042771072876" y="263.15590098319615"/><point x="599.125" y="360.9911111111111" type="curve"/></contour><contour><point x="-16.200000000000003" y="700.44"/><point x="-16.200000000000003" y="721.22"/><point x="-16.200000000000003" y="700.44" type="curve"/><point x="188.99794800000006" y="700.44"/><point x="394.2020520000001" y="700.44"/><point x="599.4000000000001" y="700.44" type="curve"/><point x="599.4000000000001" y="721.22"/><point x="599.4000000000001" y="700.44"/><point x="599.4000000000001" y="721.22" type="curve"/><point x="394.2020520000001" y="721.22"/><point x="188.99794800000006" y="721.22"/><point x="-16.200000000000003" y="721.22" type="curve"/></contour></outline></glyph>
<glyph name="dvPH" format="1"><advance width="883"/><unicode hex="E054"/><outline><contour><point x="596.7" y="21.560000000000002"/><point x="596.7" y="0.7800000000000011"/><point x="596.7" y="21.560000000000002" type="curve"/><point x="397.65000000000003" y="21.560000000000002"/><point x="596.7" y="21.560000000000002"/><point x="397.65000000000003" y="21.560000000000002" type="curve"/><point x="397.65000000000003" y="0.7800000000000011"/><point x="397.65000000000003" y="21.560000000000002"/><point x="397.65000000000003" y="0.7800000000000011" type="curve"/><point x="463.9993365" y="0.779999999999993"/><point x="530.3506635" y="0.7800000000000092"/><point x="596.7" y="0.7800000000000011" type="curve"/></contour><contour><point x="596.7" y="0"/><point x="596.7" y="20.78"/><point x="596.7" y="0" type="curve"/><point x="658.5493815" y="0"/><point x="720.4006185000001" y="0"/><point x="782.25" y="0" type="curve"/><point x="782.25" y="21.560000000000002"/><point x="782.25" y="0"/><point x="782.25" y="21.560000000000002" type="curve"/><point x="596.7" y="20.78"/><point x="782.25" y="21.560000000000002"/><point x="596.7" y="20.78" type="curve"/></contour><contour><point x="1205.5500000000002" y="722"/><point x="1205.5500000000002" y="701.22"/><point x="1205.5500000000002" y="722" type="curve"/><point x="798.3040725000001" y="722"/><point x="391.0459275000002" y="722"/><point x="-16.200000000000003" y="722" type="curve"/><point x="-16.200000000000006" y="701.22"/><point x="-16.200000000000003" y="722"/><point x="-16.200000000000006" y="701.22" type="curve"/><point x="391.0459275000002" y="701.22"/><point x="798.3040725000001" y="701.22"/><point x="1205.5500000000002" y="701.22" type="curve"/></contour><contour><point x="117.50000000000003" y="709.2244444444444"/><point x="140.60000000000002" y="709.2244444444444"/><point x="117.50000000000003" y="709.2244444444444" type="curve"/><point x="117.50000000000003" y="615.1417926877778"/><point x="117.50000000000003" y="521.0563184233333"/><point x="117.50000000000003" y="426.97366666666665" type="curve"/><point x="117.50000000000004" y="295.869609244936"/><point x="215.529347608946" y="223.38188888888888"/><point x="350.15000000000003" y="223.38188888888888" type="curve"/><point x="461.5197617915301" y="223.38188888888888"/><point x="555.1396032157663" y="250.48358243772896"/><point x="608.7" y="346.54977777777776" type="curve"/><point x="596.1" y="359.0177777777778"/><point x="608.7" y="346.54977777777776"/><point x="596.1" y="359.0177777777778" type="curve"/><point x="544.117864510813" y="271.1727670135482"/><point x="457.56992851121504" y="247.27888888888887"/><point x="354.35" y="247.27888888888887" type="curve"/><point x="231.58797234463748" y="247.27888888888887"/><point x="140.60000000000002" y="306.74243028641183"/><point x="140.60000000000002" y="423.8566666666666" type="curve"/><point x="140.60000000000002" y="518.9783080333333"/><point x="140.60000000000002" y="614.1028030777777"/><point x="140.60000000000002" y="709.2244444444444" type="curve"/></contour><contour><point x="583.25" y="710"/><point x="606.35" y="710"/><point x="583.25" y="710" type="curve"/><point x="583.25" y="473.3357"/><point x="583.25" y="236.6643"/><point x="583.25" y="1.452138214362575e-15" type="curve"/><point x="606.35" y="-2.69413397840923e-15"/><point x="583.25" y="1.452138214362575e-15"/><point x="606.35" y="-2.69413397840923e-15" type="curve"/><point x="606.35" y="236.6643"/><point x="606.35" y="473.3357"/><point x="606.35" y="710" type="curve"/></contour><contour><point x="1098.85" y="315.1022222222222"/><point x="1075.75" y="315.1022222222222"/><point x="1098.85" y="315.1022222222222" type="curve"/><point x="1098.85" y="430.0456636422169"/><point x="984.5721845104765" y="483.53111111111104"/><point x="855.9000000000001" y="483.53111111111104" type="curve"/><point x="733.4112208911229" y="483.53111111111104"/><point x="625.9886656318488" y="437.5283034421965"/><point x="588.025" y="325.08" type="curve"/><point x="605.875" y="325.08"/><point x="588.025" y="325.08"/><point x="605.875" y="325.08" type="curve"/><point x="642.3367325636192" y="426.7409190126285"/><point x="744.6553309976719" y="462.7511111111111"/><point x="855.9000000000001" y="462.7511111111111" type="curve"/><point x="970.8890249709384" y="462.7511111111111"/><point x="1075.75" y="417.76892562924814"/><point x="1075.75" y="315.1022222222222" type="curve"/></contour></outline></glyph>
<glyph name="dvBH" format="1"><advance width="611"/><unicode hex="E056"/><outline><contour><point x="808.6500000000001" y="343.8422222222222"/><point x="808.6500000000001" y="323.0622222222222"/><point x="808.6500000000001" y="343.8422222222222" type="curve"/><point x="635.81006175" y="343.8422222222222"/><point x="462.9649382500001" y="343.8422222222222"/><point x="290.12500000000006" y="343.8422222222222" type="curve"/><point x="209.26157248488448" y="343.8422222222222"/><point x="139.225" y="312.7037786667723"/><point x="139.225" y="240.22877777777776" type="curve"/><point x="139.225" y="173.10091445134776"/><point x="197.92615767368528" y="136.69555555555553"/><point x="270.125" y="136.69555555555553" type="curve"/><point x="351.77333718297626" y="136.69555555555553"/><point x="417.1" y="180.5206487696174"/><point x="417.1" y="257.2311111111111" type="curve"/><point x="417.1" y="368.64851544444446"/><point x="417.1" y="480.0692623333333"/><point x="417.1" y="591.4866666666667" type="curve"/><point x="417.1" y="678.7142391889453"/><point x="341.36361611566616" y="727"/><point x="246.92500000000004" y="727" type="curve"/><point x="159.5713300011152" y="727"/><point x="86.46576212885022" y="686.8362501687309"/><point x="84.85000000000001" y="605.4154444444445" type="curve"/><point x="84.85000000000001" y="565.6323381745383"/><point x="103.6830256961371" y="536.5433494469197"/><point x="136.50000000000003" y="514.1363333333334" type="curve"/><point x="149.10000000000002" y="527.6433333333333"/><point x="136.50000000000003" y="514.1363333333334"/><point x="149.10000000000002" y="527.6433333333333" type="curve"/><point x="122.1145978076867" y="547.6314342343186"/><point x="105.85000000000001" y="573.1547856052088"/><point x="105.85000000000001" y="606.4544444444444" type="curve"/><point x="107.4222824793393" y="674.5085815597215"/><point x="170.89264901561495" y="706.22"/><point x="245.87500000000003" y="706.22" type="curve"/><point x="327.8343605466207" y="706.22"/><point x="394" y="666.275418448569"/><point x="394" y="591.4866666666667" type="curve"/><point x="394" y="480.0692623333333"/><point x="394" y="368.64851544444446"/><point x="394" y="257.2311111111111" type="curve"/><point x="394" y="193.1354076154529"/><point x="339.0443032391336" y="157.47555555555553"/><point x="271.175" y="157.47555555555553" type="curve"/><point x="211.55675011731063" y="157.47555555555553"/><point x="163.375" y="186.75831501831186"/><point x="163.375" y="241.26777777777775" type="curve"/><point x="163.375" y="300.41299271866444"/><point x="221.6298763635362" y="323.0622222222222"/><point x="289.07500000000005" y="323.0622222222222" type="curve"/><point x="462.26493475000007" y="323.0622222222222"/><point x="635.4600652500001" y="323.0622222222222"/><point x="808.6500000000001" y="323.0622222222222" type="curve"/></contour></outline></glyph>
<glyph name="dvM" format="1"><advance width="619"/><unicode hex="E057"/><outline><contour><point x="-13.5" y="700.44"/><point x="-13.5" y="721.22"/><point x="-13.5" y="700.44" type="curve"/><point x="260.997255" y="700.44"/><point x="535.502745" y="700.44"/><point x="810" y="700.44" type="curve"/><point x="810" y="721.22"/><point x="810" y="700.44"/><point x="810" y="721.22" type="curve"/><point x="535.502745" y="721.22"/><point x="260.997255" y="721.22"/><point x="-13.5" y="721.22" type="curve"/></contour><contour><point x="808.6500000000001" y="343.8422222222222"/><point x="808.6500000000001" y="323.0622222222222"/><point x="808.6500000000001" y="343.8422222222222" type="curve"/><point x="635.81006175" y="343.8422222222222"/><point x="462.9649382500001" y="343.8422222222222"/><point x="290.12500000000006" y="343.8422222222222" type="curve"/><point x="209.26157248488448" y="343.8422222222222"/><point x="139.225" y="312.7037786667723"/><point x="139.225" y="240.22877777777776" type="curve"/><point x="139.225" y="173.10091445134776"/><point x="197.92615767368528" y="136.69555555555553"/><point x="270.125" y="136.69555555555553" type="curve"/><point x="351.77333718297626" y="136.69555555555553"/><point x="417.1" y="180.5206487696174"/><point x="417.1" y="257.2311111111111" type="curve"/><point x="417.1" y="408.5592274444445"/><point x="417.1" y="559.8918836666667"/><point x="417.1" y="711.22" type="curve"/><point x="394" y="711.22"/><point x="417.1" y="711.22"/><point x="394" y="711.22" type="curve"/><point x="394" y="559.8918836666667"/><point x="394" y="408.5592274444445"/><point x="394" y="257.2311111111111" type="curve"/><point x="394" y="193.1354076154529"/><point x="339.0443032391336" y="157.47555555555553"/><point x="271.175" y="157.47555555555553" type="curve"/><point x="211.55675011731063" y="157.47555555555553"/><point x="163.375" y="186.75831501831186"/><point x="163.375" y="241.26777777777775" type="curve"/><point x="163.375" y="300.41299271866444"/><point x="221.6298763635362" y="323.0622222222222"/><point x="289.07500000000005" y="323.0622222222222" type="curve"/><point x="462.26493475000007" y="323.0622222222222"/><point x="635.4600652500001" y="323.0622222222222"/><point x="808.6500000000001" y="323.0622222222222" type="curve"/></contour></outline></glyph>
